<svg id="Слой_1" data-name="Слой 1" xmlns="http://www.w3.org/2000/svg" viewBox="0 0 800 800"><defs><style>.cls-1{opacity:0.7;}.cls-2,.cls-4{opacity:0.5;}.cls-3,.cls-4{fill:#fff;}</style></defs><title>bg_pattern</title><g class="cls-1"><g class="cls-2"><path class="cls-3" d="M122.58,526.16c-2.27-9.26-9.89-19-16.41-25.74a.69.69,0,0,0-1.16.34c-3.11-1.42-6-1.48-9.38-1.4-3.21.08-6.55-.52-9.54.81a.58.58,0,0,0-.72.6c.15,7.44-6.33,11.59-13,12-3.32.19-6.61-.35-9.12-2.86-.5-.5-5-7.35-3.53-8.24a.53.53,0,0,0-.12-.95l-.39-.16h0a.63.63,0,0,0-.51-.33c-6.93-.62-13.92-1.14-20.74.75a.8.8,0,0,0-.51.44.85.85,0,0,0-.33.19A175.34,175.34,0,0,0,21.59,517.7c-2.46,2.87-5.27,4.87-4.27,8.72,1.83,7.08,11.33,15.31,18.64,14.12-1.67,18.93-5.26,37.77-2.42,56.66a.9.9,0,0,0,.77.82.68.68,0,0,0,.36.28c5,10,15,17.43,25.37,21a.87.87,0,0,0,.52,0c5.86,3.46,15.42,3.08,20.35-1.8,11.33-1.65,19.32-11.21,22.63-21.64a.31.31,0,0,0,0-.2.94.94,0,0,0,.73-.72c3.51-12.65,2.54-25.87,1.2-38.78-.61-5.88-1.19-11.71-1.61-17.55,7.29.85,15.67-4.58,18.18-11.59A.74.74,0,0,0,122.58,526.16Zm-86.53,72.2c5,.23,10.78,3.87,14.54,6.74a22.4,22.4,0,0,1,8.07,11.49C49.29,612.65,42.37,606.41,36.05,598.37Zm46.11,17.09c3.7-9,9.72-18,20.07-19.31a.72.72,0,0,0,.54-.37C100.14,605.74,91,611.84,82.16,615.45Zm31.14-81.28c-3,1.86-6.18,2.55-9.56,3.18a183.8,183.8,0,0,1-.28-22.9.5.5,0,0,0-1-.14c-5.25,24.86,4.07,50,.57,75.11a.9.9,0,0,0-.4-.28c-1-.32-2.27.25-3.23.53s-.82,1.94.24,1.82a7,7,0,0,0,3.18-.75c-.19,1.22-.4,2.43-.66,3.65a1.13,1.13,0,0,0,0,.3C90.07,595,83.4,605.61,79.4,616a1,1,0,0,0,0,.74c-3,1.36-5.86,2.67-9.31,2.79a21.82,21.82,0,0,1-8.84-1.94,1.19,1.19,0,0,0,0-.2c-.95-5.89-4.69-10.75-9.35-14.23-4-3-10.83-7.27-16.15-6.55-4-26.63,7.61-53.42,1.91-79.79a.62.62,0,0,0-1.22.17,144,144,0,0,1-.39,22.41,22,22,0,0,1-13.24-7.59c-4.5-5.1-3.79-7.23.21-12.62,4.4-5.94,10.17-11,15.18-16.42l0,0c6.6-.52,13.19-1.61,19.83-1.22-.94,2.43,1.29,6.53,2.6,8.43,2.36,3.44,6,4.92,10.05,5.05,8.23.27,16.36-4.82,15.94-13.87,2.76.25,5.46-.66,8.26-.57,3.45.12,6.68,1,10.17.73a.7.7,0,0,0,.11.17,74.41,74.41,0,0,1,9.88,12.35c2.38,3.86,3.73,8.11,5.77,12.11C118.72,529.18,116.69,532.08,113.3,534.18Z"/><path class="cls-3" d="M54.32,504.07c.14-.84-1-1.21-1.28-.36-.3,1.09-.4,2.55.48,3.39a.62.62,0,0,0,1-.44A13.21,13.21,0,0,1,54.32,504.07Z"/><path class="cls-3" d="M58.38,513.21a9.62,9.62,0,0,0-2.05-3c-.47-.53-1.25.14-.94.74a9.38,9.38,0,0,0,2,2.87C57.82,514.11,58.59,513.82,58.38,513.21Z"/><path class="cls-3" d="M65.6,518.83c-.41-.52-1.17-.65-1.73-.94A10.38,10.38,0,0,1,62,516.62a.34.34,0,0,0-.48.48,11.4,11.4,0,0,0,1.72,1.63c.56.43,1.28,1.06,2,1A.52.52,0,0,0,65.6,518.83Z"/><path class="cls-3" d="M76,519.68c-1.08-.95-3.17-.37-4.37.07a.55.55,0,0,0,.29,1.07,13,13,0,0,1,2.21-.24,4.43,4.43,0,0,0,1.78-.15A.48.48,0,0,0,76,519.68Z"/><path class="cls-3" d="M85.11,515.36a14.16,14.16,0,0,0-2,.74,21.77,21.77,0,0,1-2.11.68c-.53.13-.59,1.07,0,1.15,1.7.24,3.82-.11,4.81-1.71A.59.59,0,0,0,85.11,515.36Z"/><path class="cls-3" d="M89.34,507.85c-.95.9-1.32,2.4-1.82,3.57-.28.66.58,1.22,1,.58.67-1.08,1.69-2.25,1.88-3.54A.63.63,0,0,0,89.34,507.85Z"/><path class="cls-3" d="M92,502.33a.84.84,0,0,0-1.65.23c0,.75.37,1.27.08,2-.17.44.48.65.72.31A3.36,3.36,0,0,0,92,502.33Z"/><path class="cls-3" d="M21.77,524.07c-.2-.23-.65,0-.53.31.44,1.11.73,3.31,2,3.65a.59.59,0,0,0,.72-.42C24.32,526.24,22.56,525,21.77,524.07Z"/><path class="cls-3" d="M29.09,532.2a6.66,6.66,0,0,0-2.67-2.45c-.45-.29-1.08.3-.76.77a6.71,6.71,0,0,0,2.67,2.68C28.94,533.45,29.3,532.67,29.09,532.2Z"/><path class="cls-3" d="M34.12,535.21a7.76,7.76,0,0,0-2.15-.41.51.51,0,0,0-.13,1,6.23,6.23,0,0,1,1.9.67c.51.3.85.68,1.48.51a.55.55,0,0,0,.36-.65C35.47,535.62,34.71,535.42,34.12,535.21Z"/><path class="cls-3" d="M108.18,533.24a10.27,10.27,0,0,0-1.77.31,4.66,4.66,0,0,1-2-.1c-.38-.11-.65.48-.28.67,1.24.63,3.33,1.17,4.4-.07A.48.48,0,0,0,108.18,533.24Z"/><path class="cls-3" d="M114.47,529.7a26.45,26.45,0,0,1-2.52,1.3c-.44.15-.4.91.12.87a4.44,4.44,0,0,0,3.08-1.28A.56.56,0,0,0,114.47,529.7Z"/><path class="cls-3" d="M119.15,524.59c-.5.22-.66.69-.94,1.14a7,7,0,0,1-1.11,1.35.51.51,0,0,0,.61.8c.85-.52,2.49-1.58,2.36-2.75A.62.62,0,0,0,119.15,524.59Z"/><path class="cls-3" d="M42.67,593.41a6.12,6.12,0,0,0-5.05-.56.62.62,0,0,0,.16,1.22,26.28,26.28,0,0,0,4.63.31A.53.53,0,0,0,42.67,593.41Z"/><path class="cls-3" d="M49.19,597.42a4.66,4.66,0,0,0-1.51-1.33c-.61-.42-1.26-.79-1.89-1.18a.6.6,0,0,0-.71.94c.53.49,1.05,1,1.61,1.47a4.8,4.8,0,0,0,1.72,1.13A.7.7,0,0,0,49.19,597.42Z"/><path class="cls-3" d="M56.49,602.34c-.37-1.6-2.32-1.72-3.45-2.54-.35-.25-.8.34-.46.61,1.09.87,1.75,2.74,3.37,2.66A.58.58,0,0,0,56.49,602.34Z"/><path class="cls-3" d="M61.47,608.09c-.6-1.16-1.8-1.74-2.3-3-.23-.58-1.14-.36-.94.26.43,1.37,1.06,3.24,2.6,3.6A.59.59,0,0,0,61.47,608.09Z"/><path class="cls-3" d="M64.09,614.18a17.1,17.1,0,0,1-.4-2c-.07-.53-1-.41-.92.13.1,1.27-.2,2.66.33,3.84a.6.6,0,0,0,1.09-.15A3.87,3.87,0,0,0,64.09,614.18Z"/><path class="cls-3" d="M78.13,611.74a.57.57,0,0,0-1-.14,8.25,8.25,0,0,0-.54,3.82.62.62,0,0,0,1.22.17A8.28,8.28,0,0,0,78.13,611.74Z"/><path class="cls-3" d="M80.73,604.45a6.87,6.87,0,0,0-1.35,3.91c0,.72,1,.69,1.09,0a10,10,0,0,1,1.1-3.26C81.82,604.59,81.13,603.94,80.73,604.45Z"/><path class="cls-3" d="M87.78,596.63a4.23,4.23,0,0,0-1.73,1.6c-.59.79-1.16,1.58-1.8,2.33-.34.41.19,1,.58.59.68-.64,1.39-1.24,2.11-1.83a4.52,4.52,0,0,0,1.61-1.9A.64.64,0,0,0,87.78,596.63Z"/><path class="cls-3" d="M95,591.6c-.69,0-1.06.39-1.54.84L92,593.87c-.46.42.13,1.14.65.85l1.85-1c.57-.32,1-.55,1.24-1.22A.69.69,0,0,0,95,591.6Z"/></g><g class="cls-2"><path class="cls-3" d="M373.06,429.4c-2,1.34-3.49,3.29-5.59,4.58a27.81,27.81,0,0,1-6.25,2.69,7.72,7.72,0,0,0-8.16-5.63,7.47,7.47,0,0,0-6.19,6.22c-1.93-.55-4.09-.37-6.06-.78a47.75,47.75,0,0,1-6.44-2c-.39-.14-.55.42-.26.63,3.05,2.22,8.68,4.8,12.66,3.84a.59.59,0,0,0,.16.26,6.43,6.43,0,0,0-1.53,4.41c.13,3.81,3.52,6.57,7,6.93,4,.41,8.54-1.94,10-5.82a6.08,6.08,0,0,0-1.71-6.88,1,1,0,0,0,.2-.12c4.82-.07,11.29-2.82,13.18-7.52C374.38,429.64,373.56,429.07,373.06,429.4Zm-13.48,7.81a5,5,0,0,0-1-.3.45.45,0,0,0-.42.13,3.17,3.17,0,0,0-.79-.9,3.4,3.4,0,0,0-2.62-.55c-1,.15-2.39.56-2.9,1.5a.27.27,0,0,0-.34.05l0,0s0,0-.07,0a5.77,5.77,0,0,0-3.29,1A5.83,5.83,0,0,1,359.58,437.21Zm-7.28,3.61a4.55,4.55,0,0,0,2.95.18,5.72,5.72,0,0,0,2.5-.81,2.57,2.57,0,0,1-.31,2.56,4,4,0,0,1-3.3,1.36,3.32,3.32,0,0,1-2.73-1.31,2.34,2.34,0,0,1,.14-2.55A2.94,2.94,0,0,0,352.3,440.82Zm-.4-3a.37.37,0,0,0,.19.09c1,.14,1.69-.5,2.64-.73s2.89.28,2.28,1.64c-.38.83-2.31,1-3.08.9S351.68,438.92,351.9,437.84Zm8,7.61a8.4,8.4,0,0,1-7,3.36c-6.61-.29-7.48-8.2-2-10.86a2,2,0,0,0,0,1.46,2.93,2.93,0,0,0-1.28,3,4.22,4.22,0,0,0,3.81,3.23,5.31,5.31,0,0,0,5.09-2.13c.79-1.22,1.19-3.48-.11-4.47a2.44,2.44,0,0,0,0-1.18C361.58,439.35,361.77,442.91,359.91,445.45Z"/><path class="cls-3" d="M393.78,410.84a5.63,5.63,0,0,0-2.65-3.92,5.29,5.29,0,0,0-2.25-.71,5,5,0,0,0-2.39.47c-6.39-17.86-25-24.78-42.65-22.31-15.82,2.2-32.59,14.18-31.91,32.08a1,1,0,0,0,0,.2,5.44,5.44,0,0,0-5.29,5.15,5.06,5.06,0,0,0,6.1,5c3.34,18.86,24.12,35.83,43.21,30.3,19.55-.47,34.3-22.23,33.86-40.73a4.36,4.36,0,0,0,2.38-1.13A4.86,4.86,0,0,0,393.78,410.84Zm-3.19,3c-.73.45-1.59.34-2.35.68a.88.88,0,0,0-.29,1.21s0,.06,0,.1c-.23,10.27-3.22,20-10.16,27.71-6,6.61-13.15,9.4-21,12-9.3.37-17.87.05-26.19-5.45-8.67-5.73-13.7-14.45-16.18-24.45a.82.82,0,0,0-1.43-.37c-2,.14-4.57-1.42-4.47-3.69a3.75,3.75,0,0,1,2-2.88c1-.56,1.89-.33,2.87-.62a.52.52,0,0,0,.22-.85,1.73,1.73,0,0,0-.15-.11.94.94,0,0,0,.34-.67c1.44-17,14.29-27.69,30.25-29.9,3.71,2.18,7.39,4.51,8.29,9.15a7.64,7.64,0,0,1-2.1,7c-1.63,1.41-3.94,2-5.75.62a2.23,2.23,0,0,1-1.57-2.57q-1.77-3,2.28-3c.38.34,1.06-.1.75-.58-2-3-5.23-.65-5.38,2.36-.19,3.92,3.85,6.91,7.45,6.18,4.2-.85,6.65-5.17,6.06-9.32-.63-4.45-3.94-8-7.74-10.11,15.58-1.35,33.48,4.79,39.29,20.88a.53.53,0,0,0,.07.12.47.47,0,0,0,.58.53c2.11-.5,5,.84,5.53,3A2.69,2.69,0,0,1,390.59,413.81Z"/><path class="cls-3" d="M354.15,425.19c-.51-.8-1.64,0-2.3.13a1.56,1.56,0,0,1-1.87-.81c-.2-.58-.13-1.51.46-1.82s.15-1.07-.4-1a2.64,2.64,0,0,0-1.81,3.63,3.45,3.45,0,0,0,4.67,1.69C353.51,426.78,354.67,426,354.15,425.19Z"/><path class="cls-3" d="M333.21,416.12a4.28,4.28,0,0,0-1.66,6.9c.31.33.78-.09.59-.46a3.88,3.88,0,0,1,1.35-4.58c1.87-1,4,1,3.66,3-.23,1.44,1.95,2.06,2.18.61C339.86,418.24,336.52,414.91,333.21,416.12Z"/><path class="cls-3" d="M366.71,415.32a4.51,4.51,0,0,0-4.11-1.5,4.6,4.6,0,0,0-3,6.61c.42.79,1.79.25,1.46-.62-.56-1.46.13-3.55,1.77-4a2.48,2.48,0,0,1,2.42,1c.63.76.47,1.58.8,2.42a.87.87,0,0,0,1.57.21C368.49,418.23,367.59,416.3,366.71,415.32Z"/></g><g class="cls-2"><path class="cls-3" d="M100.11,380.88a25.77,25.77,0,0,0-31.17,16C66.24,386,53.54,381.46,43.52,383.17c-11.8,2-22.86,9.91-24.48,22.52-3.39,26.44,20.28,55.09,42,66.83,4.28,3.77,8.48,1.53,12.94-1.27a149,149,0,0,0,20.39-14.87c12.07-10.79,22.5-24.69,24.72-41.3C121.08,400.4,115.08,385.26,100.11,380.88Zm15.12,40.4c-3.41,12-11.2,22.63-20,31.11a157.43,157.43,0,0,1-13.7,11.56c-4.33,3.31-13.44,11.52-19.32,8.61C46,459.31,30,445.53,23.42,424.64c-4-12.64-4-26.25,8.16-34,12.68-8.12,29.18-6.72,35.43,8.33a1.16,1.16,0,0,0,1.88.51.81.81,0,0,0,1.19-.33c5.84-12.86,19.46-20.43,32.86-14C116.58,391.63,119,407.91,115.23,421.28Z"/><path class="cls-3" d="M66.1,469.34a7,7,0,0,1-3-1.08c-.42-.25-1,.28-.71.72a3.29,3.29,0,0,0,3.78,1.2A.43.43,0,0,0,66.1,469.34Z"/><path class="cls-3" d="M59,465.46c-.55-.59-1.08-1.2-1.65-1.78s-1-1.19-1.73-1.35c-.41-.09-.89.28-.73.74a3.81,3.81,0,0,0,1.54,1.6c.67.51,1.37,1,2,1.48C58.84,466.45,59.28,465.81,59,465.46Z"/><path class="cls-3" d="M51,457.84a16.47,16.47,0,0,1-1.88-1.66,13.18,13.18,0,0,0-1.64-1.59.36.36,0,0,0-.54.32c.24,1.82,2,3.2,3.45,4A.61.61,0,0,0,51,457.84Z"/><path class="cls-3" d="M43.76,450.7A21.81,21.81,0,0,0,41.19,447c-.35-.4-.94.11-.71.55A21.85,21.85,0,0,0,43,451.28C43.37,451.7,44,451.16,43.76,450.7Z"/><path class="cls-3" d="M37.94,442.45A38.64,38.64,0,0,1,35.56,438a.55.55,0,0,0-1,.28,6.25,6.25,0,0,0,2.9,4.64C37.73,443.18,38.16,442.75,37.94,442.45Z"/><path class="cls-3" d="M33,433.43A20.16,20.16,0,0,1,30.52,429c-.22-.53-1.1-.26-1.06.29A6.16,6.16,0,0,0,32.37,434C32.72,434.24,33.23,433.79,33,433.43Z"/><path class="cls-3" d="M28.51,424.26a15.33,15.33,0,0,1-1.29-6.2c0-.71-1.12-.94-1.28-.18a9.17,9.17,0,0,0,1.6,7A.56.56,0,0,0,28.51,424.26Z"/><path class="cls-3" d="M26.49,406.84a.66.66,0,0,0-1.23-.34c-.94,1.64-.61,3.87,0,5.58a.54.54,0,0,0,1-.29C25.93,410.05,26.38,408.56,26.49,406.84Z"/><path class="cls-3" d="M29.06,397.21c-1.36.72-2,2.64-2.21,4.08-.1.73.91,1.07,1.12.31a7.47,7.47,0,0,1,.83-1.88c.35-.56.83-1,1.14-1.62A.65.65,0,0,0,29.06,397.21Z"/><path class="cls-3" d="M37.78,391.32a29,29,0,0,1-3.58,2.14.4.4,0,0,0,.2.74,5.28,5.28,0,0,0,3.94-2.31A.42.42,0,0,0,37.78,391.32Z"/><path class="cls-3" d="M48.43,389a8.45,8.45,0,0,0-4.87.54c-.4.15-.39.87.11.82,1.54-.17,3.08-.12,4.62-.3C48.84,390,49.07,389.11,48.43,389Z"/><path class="cls-3" d="M58,392a7.62,7.62,0,0,0-4.21-1.77c-.54-.08-.8.71-.23.86a14.87,14.87,0,0,1,3.72,1.87A.61.61,0,0,0,58,392Z"/><path class="cls-3" d="M64,399.35c-.47-1.59-2-3-2.94-4.25a.42.42,0,0,0-.73.43c.77,1.42,1.38,3.37,2.61,4.45A.64.64,0,0,0,64,399.35Z"/><path class="cls-3" d="M67.07,405.24a5.48,5.48,0,0,0-1.21-1.92.63.63,0,0,0-1.09.65,5.6,5.6,0,0,0,1.33,2C66.61,406.38,67.17,405.75,67.07,405.24Z"/><path class="cls-3" d="M74.85,401.06a.55.55,0,0,0-1.08-.15,9.72,9.72,0,0,1-1.63,3.38.55.55,0,0,0,.76.78A4.57,4.57,0,0,0,74.85,401.06Z"/><path class="cls-3" d="M79.94,392.45A7,7,0,0,0,77,396.59a.53.53,0,0,0,1,.42,33,33,0,0,1,2.76-3.52C81.19,392.93,80.62,392.05,79.94,392.45Z"/><path class="cls-3" d="M91,386.7A8.53,8.53,0,0,0,85.64,389c-.43.4.12.95.57.75a40.37,40.37,0,0,1,5-1.66A.73.73,0,0,0,91,386.7Z"/><path class="cls-3" d="M101,388.52a7.09,7.09,0,0,0-4.63-.75c-.62.06-.9,1.11-.16,1.22,1.48.21,2.95.81,4.43.88C101.4,389.9,101.55,388.89,101,388.52Z"/><path class="cls-3" d="M110.13,396a11.87,11.87,0,0,0-3.55-3.66c-.43-.33-.95.38-.57.75a23.21,23.21,0,0,1,1.64,1.78,17.79,17.79,0,0,0,1.57,1.84A.59.59,0,0,0,110.13,396Z"/><path class="cls-3" d="M112.41,401.41c-.29-.68-1.27-.28-1.29.35a14.85,14.85,0,0,0,.25,2.8,7.33,7.33,0,0,0,.73,2.69c.32.54,1.34.52,1.45-.19A11.33,11.33,0,0,0,112.41,401.41Z"/><path class="cls-3" d="M75.18,464.5a22.59,22.59,0,0,0-4,2.23.6.6,0,0,0,.6,1,22.63,22.63,0,0,0,3.92-2.42C76.05,465,75.63,464.31,75.18,464.5Z"/><path class="cls-3" d="M83.9,457.24a19.55,19.55,0,0,0-3.64,3c-.46.43.16,1.28.68.89a19.7,19.7,0,0,0,3.66-3A.59.59,0,0,0,83.9,457.24Z"/><path class="cls-3" d="M92.76,449.83A23.14,23.14,0,0,1,89.3,453c-.49.38-.24,1.38.46,1.12a7.7,7.7,0,0,0,3.93-3.52C94,450,93.22,449.3,92.76,449.83Z"/><path class="cls-3" d="M101.29,440.07a17.59,17.59,0,0,1-3.36,3.64.57.57,0,0,0,.57,1,6.78,6.78,0,0,0,3.71-4.08C102.36,440.11,101.64,439.62,101.29,440.07Z"/><path class="cls-3" d="M106.65,430.87a9.44,9.44,0,0,1-2.56,3.73c-.62.54.18,1.55.86,1.13a6.54,6.54,0,0,0,3.14-4.46A.75.75,0,0,0,106.65,430.87Z"/><path class="cls-3" d="M112.81,417.67c-1,1.65-1.53,3.75-2.29,5.55-.27.62.5,1.43,1,.8,1.34-1.59,2.74-3.78,2.71-6A.78.78,0,0,0,112.81,417.67Z"/><path class="cls-3" d="M114.07,410.83a.6.6,0,0,0-1.2,0,22.45,22.45,0,0,0,.21,3.25.39.39,0,0,0,.78,0A22.45,22.45,0,0,0,114.07,410.83Z"/></g><g class="cls-2"><path class="cls-3" d="M774.76,494a67.79,67.79,0,0,0-7.16-2.74c1-10.93-5.74-19.24-17-19.83-8.93-.47-17.25,6.48-15.72,15.86a62.4,62.4,0,0,0-12.68,2.17c-11.6,3.35-22.62,13.22-23.7,26-1,11.9,8.5,23.12,20.2,23.35,0,.18,0,.37,0,.54a33.46,33.46,0,0,0,28.95,31.41c17.51,2.2,32-9.45,34-27.18a34.49,34.49,0,0,0,.19-5.16c3.91.46,7.18-3.56,9.33-6.5a17.51,17.51,0,0,0,3.65-9.69C796,509.54,785.45,498.82,774.76,494Zm-21.6-19.49c3.83.87,8.49,3.35,10.49,7,1.55,2.79,1.55,5.95,1.51,9A89.1,89.1,0,0,0,736,487.2C736.56,478.2,744.45,472.49,753.16,474.47Zm24.91,72.39c-3.41,15.75-18.39,24.52-33.71,20.71a31,31,0,0,1-23.19-28.23c-.82-13.94,7.62-23.27,19.8-27.33a5.06,5.06,0,0,0-.25,4.07s0,0-.08,0c-5.88,3-8,10.62-6.21,16.8,2,6.93,9,11.22,15.92,11.38,7.69.18,15.31-4.69,16.92-12.6a14.56,14.56,0,0,0-10.24-17,12.8,12.8,0,0,0-.06-2.06C773.94,513.32,781.39,531.54,778.07,546.86Zm-35.34-27.95c2.91,2.26,7.92,2.47,11.15.81a5.52,5.52,0,0,0,2.94-3.66c6.07,3.2,10.08,9.66,7.57,16.72-2.43,6.86-10.18,10.17-16.91,8.88-12.88-2.47-13.78-16.08-6.41-24.76A6.16,6.16,0,0,0,742.74,518.91Zm.19-7.65a.56.56,0,0,0,.13-.31,24.61,24.61,0,0,1,8.16-.77c2.27.21,4.13.76,4.17,3.65a4.5,4.5,0,0,1-2.85,4.5,10.63,10.63,0,0,1-6.9.06C742.95,517.43,740.71,513.9,742.93,511.26ZM790,529.64c-1.91,2.88-4.77,6.13-8.18,7.2-1.15-13.77-10.56-25.92-25.38-26.15a3,3,0,0,0-.21-.43c-1-1.42-3.46-1.51-5-1.68a20.11,20.11,0,0,0-8.61.94.74.74,0,0,0-.44,1l-.16.15c-13.58-1.67-22.86,14.1-23.27,26.44C707,534.07,697.59,523.48,702,510.39c4.63-13.87,19.84-19.26,33-19.76,23.32-.89,51.84,4.65,58,30.34A17.45,17.45,0,0,1,790,529.64Z"/></g><g class="cls-2"><path class="cls-3" d="M758.11,277.06a.93.93,0,0,0-.64-1.56,32.8,32.8,0,0,0-7.18-.21,35.79,35.79,0,0,0-3.38-7.48h0c-.07-8.18-1-16.34-1.51-24.5s-.22-16.46-.51-24.68a11.49,11.49,0,0,0,9-5c3.49-5,1.72-12.67-3.92-14.6,4.77-4.57.18-13.6-5.07-16.14-6.82-3.29-14.13,1.19-15.71,8.13.14-12.63-16.38-20.46-25.75-12.08-.82-33.07-63.79-25.21-54.28,6.22-4.79-4.17-12.94-3.89-17.66.22-4.54,4-6.11,11.31-3.27,16.61-7.76-2.37-14.83,7.07-11.09,14.94a11.33,11.33,0,0,0,7.89,6c-1.15,12.83-1.85,26.66-.6,39.49a.54.54,0,0,0-.88.07,23.42,23.42,0,0,0-2.88,7.93,14.67,14.67,0,0,0-8,.21.89.89,0,0,0-.21,1.6c1.88,1.33,4.07,3.27,6.3,3.88a24.36,24.36,0,0,0-1.85,9.76c0,.63.8,1.23,1.36.79,1.83-1.43,4.06-2.87,5.51-4.75a16.64,16.64,0,0,0,7.2,3.94.79.79,0,0,0,1-1c-.76-2.45-1.45-4.94-2.32-7.36a.88.88,0,0,0-.07-.12c2.16-1.48,4-3.67,5.9-5.46a.83.83,0,0,0-.57-1.41c-1.45,0-2.9-.1-4.35-.1a16.84,16.84,0,0,0-2.6.26c-.28-2.66-1.77-5.39-3.09-7.69a.25.25,0,0,0,.2-.24c.92-13.06.59-26.61.53-39.72,4.49.86,9.41-.54,11.82-4.51,1.89,9.47,9.75,14.74,18.67,16a.43.43,0,0,0-.11.26,76.13,76.13,0,0,0,.36,11.56h0a.61.61,0,0,0-.54.91c-.53,1.15-1,2.31-1.52,3.49a13.12,13.12,0,0,0-1.37,4.3h0a15.22,15.22,0,0,0-3.86-.43c-1.46.08-2.91.3-4.35.52-.8.12-.91,1.21-.45,1.71,1.45,1.58,3.51,3.31,5.68,3.73l0,.05a12,12,0,0,0-1.56,8.21,1,1,0,0,0,1.67.45l3.51-2.94a29.77,29.77,0,0,0,2.46-2.11c1.26.94,2.59,1.8,3.93,2.61,1,.59,2.43,1.78,3.64,1.13a1.87,1.87,0,0,0,.79-2.14,12.06,12.06,0,0,0-1.75-4.27.69.69,0,0,0-.32-.24,39.47,39.47,0,0,0,3.75-2.63c.91-.76,1.95-1.57,1.6-2.89a.65.65,0,0,0-.45-.46,21.27,21.27,0,0,0-5.86-1,12.1,12.1,0,0,0-1.49-3.75,17,17,0,0,0-2.51-3.45.46.46,0,0,0,.08-.17c.39-4-.12-8.2-.45-12.16,0-.07-.05-.1-.07-.15,9.37,1.13,19.73-2.08,25.49-9.37.86,18,.6,36.11,1.5,54.12a.67.67,0,0,0-.68.5c-.73,2.5-1.51,4.9-2,7.45a.52.52,0,0,0-.23,0,30.61,30.61,0,0,1-6.85.87c-.68,0-1.2,1-.61,1.48,1.08.87,2.19,1.72,3.34,2.49a8.77,8.77,0,0,0,2.8,1.46,18.63,18.63,0,0,0-1.43,8.93c.06.68.82,1.35,1.48.86a18.2,18.2,0,0,0,5.68-6.18c2,1.81,4.71,3.71,7.42,3.68a.56.56,0,0,0,.47-.83c-.9-2-1.74-4.14-2.82-6.09,2.19-1.25,4.71-2.89,6-5.15a.74.74,0,0,0-.43-1.07c-2.68-.44-5.39-1.25-8.09-1.45h-.05c-.39-2.28-2-4.76-3.21-6.45,1.44-18.42.11-37.38-1.43-55.76a20.27,20.27,0,0,0,2.52-5c5.49,5.93,14.86,5.28,17.57-2.59a8.71,8.71,0,0,0,1.16,3l0,.44a3.74,3.74,0,0,0,.21,1.18.3.3,0,0,0-.1.24c.27,8.94-.17,17.92.29,26.84a17.75,17.75,0,0,0-1.47,5.64,25.26,25.26,0,0,0-2.54,1.08,20.14,20.14,0,0,1-4.09,1.13,1.09,1.09,0,0,0-.25,2,21.57,21.57,0,0,0,6.24,2.92,12,12,0,0,0-1.45,7.81,1,1,0,0,0,1.74.73c1.46-1.4,3.75-3.56,4.24-5.75a15.15,15.15,0,0,0,4.74,4.93.66.66,0,0,0,1-.57c.16-1.33.28-2.67.33-4a9.85,9.85,0,0,0-.17-3.34,9.47,9.47,0,0,0,3-1.1,6.14,6.14,0,0,0,2.27-2.52.68.68,0,0,0-.39-1,24.3,24.3,0,0,0-7.74-1.7,34.44,34.44,0,0,0-3.57-7.53.9.9,0,0,0-.74-.37c.48-8-.14-16.17-.7-24.16.13,0,.28-.08.22-.23a3.36,3.36,0,0,1-.18-1.42A18.74,18.74,0,0,0,716.86,227c7.54.8,15.47-4.3,17.54-11.76a16.43,16.43,0,0,0,9.49,3.36c-.63,16.1-.48,33.53,1.92,49.46a16.84,16.84,0,0,0-2.88,7.89.53.53,0,0,0-.21-.1,18.08,18.08,0,0,0-6.9.58,1,1,0,0,0-.23,1.82c1.12.68,2.24,1.38,3.37,2a14.85,14.85,0,0,0,1.91,1,12.88,12.88,0,0,0-1.69,8c.06.72.85,1.39,1.54.9a20.07,20.07,0,0,0,5.81-6,19.28,19.28,0,0,0,6.19,4.33.91.91,0,0,0,1.31-1c-.53-1.77-.57-4.1-1.44-5.8a.76.76,0,0,0,.22-.1A33.65,33.65,0,0,0,758.11,277.06Zm-132.75-9.4c.39,1.08.67,2.19,1.14,3.23-.17.18-.13.56.15.61l.17,0v0a.58.58,0,0,0,.86.15,17.24,17.24,0,0,0,2.78.37c.69,0,1.39,0,2.08,0a28.87,28.87,0,0,0-4.28,3.84,1,1,0,0,0-.09,1.12.75.75,0,0,0-.24.84c.54,1.87,1.19,3.72,1.84,5.57a53.37,53.37,0,0,1-5.73-3,.69.69,0,0,0-.85-.15,33.49,33.49,0,0,0-4.33,3.49c.3-2.57.76-5.11,1-7.68a.52.52,0,0,0-.48-.55.55.55,0,0,0-.12-.46,13.9,13.9,0,0,0-2.57-1.9c-.6-.41-1.16-.86-1.73-1.29,1.93-.24,3.85-.2,5.82-.33h0a.53.53,0,0,0,.75-.26c.93-2.35,1.51-4.83,2.47-7.17Q624.72,265.88,625.36,267.66Zm59.89,16.48a22.23,22.23,0,0,0,1.64,3.9.47.47,0,0,0,.74.08,53.6,53.6,0,0,0,6.29.84c-1.49,1.32-2.85,2.81-4.47,4a.67.67,0,0,0-.28.51.52.52,0,0,0-.19.65,48.13,48.13,0,0,0,2.37,4.87c-.77-.35-1.56-.67-2.29-1a29.7,29.7,0,0,1-3.78-2.19.54.54,0,0,0-.8.46h0a56.25,56.25,0,0,1-4.31,4.21c.11-2.28.27-4.57.61-6.81a.6.6,0,0,0-.37-.7,8.44,8.44,0,0,0-2.43-2c-.5-.35-1-.71-1.49-1.08a10.58,10.58,0,0,0,4.6-1.44c.18.17.45.21.58-.07a53.79,53.79,0,0,0,2.34-6.6A21.27,21.27,0,0,1,685.25,284.14Zm-27.06-32.71c.7,1.29,1.11,2.86,2,4a.47.47,0,0,0,.56.13.74.74,0,0,0,.23.07,28.29,28.29,0,0,1,4.8.69c-.27.2-.58.36-.76.5-.43.33-.87.66-1.28,1-.91.8-1.74,1.71-2.6,2.56a.68.68,0,0,0,.22,1.07.57.57,0,0,0-.12.42,11,11,0,0,0,.72,2.87c.1.31.47.94.41,1.22s-.56-.12-.91-.32a50.56,50.56,0,0,0-4.86-2.54.92.92,0,0,0-1.29-.8,17.46,17.46,0,0,0-3.35,2.59l-1.65,1.38a22,22,0,0,1,.93-5,.75.75,0,0,0-.43-.94.76.76,0,0,0-.19-1.16c-1.22-.82-2.4-1.48-3.5-2.33l2.41-.29c1.24-.16,2.34-.57,3.56-.84a.25.25,0,0,0,.11-.08.56.56,0,0,0,.66-.14,11.66,11.66,0,0,0,1.67-3.72c.36-1,.69-2.06,1-3.1C657.15,249.55,657.68,250.48,658.19,251.43Zm47.71-2.37c1,2.19,2,4.34,2.8,6.62a.89.89,0,0,0,.71.6,1,1,0,0,0,.65.28,31.68,31.68,0,0,1,4,.16c.79.14,1.57.32,2.36.49l-1.17,1a8,8,0,0,1-2.91,1.5.57.57,0,0,0-.4.77s0,0,0,.05a12.51,12.51,0,0,0-.11,3.61c0,.89,0,1.77-.08,2.65a40.13,40.13,0,0,1-4.62-4.27.28.28,0,0,0-.44.06l-.1,0a9.57,9.57,0,0,0-2.36,2.57c-.33.4-.67.79-1,1.18a44.7,44.7,0,0,1,.48-5,.55.55,0,0,0-.36-.6.43.43,0,0,0-.09-.61,39.2,39.2,0,0,0-3.42-2.35c2-.51,4.11-1.47,4.89-3.17a.62.62,0,0,0-.26-.81A22.57,22.57,0,0,1,705.91,249.06ZM735,213.59a.74.74,0,0,0-.63-.08.83.83,0,0,0-1.41.15c-2.67,5.56-6.3,10.07-12.72,10.9-5.82.75-16.55-3.48-15.71-11.12.06-.55-.59-.75-1-.51a1.2,1.2,0,0,0-1.92.5c-1.8,6.46-11.69,10.37-15.54,2.67a1.14,1.14,0,0,0-2.07.27c-6.57,21.47-38.74,20.74-45.71-.06,0-.1.08-.19.11-.29a.68.68,0,0,0-1.12-.66c-2.29,2.27-4.1,4.62-7.37,5.44a10.06,10.06,0,0,1-9.85-3.25,8.68,8.68,0,0,1,9.17-14.06c.16.21.31.42.49.62s.59.05.63-.25l.26.09c.41.16.62-.46.29-.69a11,11,0,0,0-.94-.57c-2.09-5.46-2-12,2.75-16.1,5.17-4.47,11.75-3,16.78.61a.52.52,0,0,0,.81-.24.39.39,0,0,0,.34-.46c-3.47-32.66,47.15-37,51.34-6a.91.91,0,0,0,.1.63c0,.05,0,.1,0,.15a.64.64,0,0,0,1.28,0v0c4.76-3.08,10.28-4.92,15.74-2.39,5.75,2.67,7.8,8,8.64,14,.08.57,1,.63,1.21.18a.67.67,0,0,0,1.22-.16c1.17-5.34,6.15-9.91,11.77-8.72,5.9,1.24,11.47,9.89,5,14.33a1.06,1.06,0,0,0,.78,1.93,7.85,7.85,0,0,1,2.6,13.3C746,217.89,739.6,216.45,735,213.59Zm16.88,66.87a.79.79,0,0,0-.17.42.42.42,0,0,0-.45.35,10.49,10.49,0,0,0,.57,4.69c-1.52-1-3-2-4.58-2.95.07-.57-.62-1.12-1.08-.59l-.15.18a.64.64,0,0,0-.36.41,35.44,35.44,0,0,1-4.43,4.39,33.19,33.19,0,0,1,.84-5.77.55.55,0,0,0,.26-.76,8.1,8.1,0,0,0-2.44-2.06l-1.11-.74a26.49,26.49,0,0,0,4.1-1.1c0,.64.94.62,1.16.07a65.25,65.25,0,0,0,2.47-7,.49.49,0,0,0,.21-.09c.81,1.94,1.43,3.89,2.06,5.93a.78.78,0,0,0,.45.51.63.63,0,0,0,.74.56,21.16,21.16,0,0,1,5.48,0A29.53,29.53,0,0,0,751.87,280.45Z"/></g><g class="cls-2"><path class="cls-3" d="M231.28,23.58c-13.22-11.39-34-1.42-40.17,13.26a.54.54,0,0,0-.11.07l-.13.12-.22.06a.46.46,0,0,0-.28.41A286,286,0,0,0,154.54,77c-5.3,7.18-16.34,22.93-4.46,27.95,6.62,9.81,20.8,5.72,28.91,0,6.21-4.4,11.25-10.31,16.51-15.78S206,78.47,210.92,72.87a14.07,14.07,0,0,0,2.12-2A21.59,21.59,0,0,0,216.57,67a5.92,5.92,0,0,0,2.2-1.24.58.58,0,0,0,.64,0C232.21,57.28,246.81,37,231.28,23.58ZM145.85,94.67c.49-4.29,4.15-9.11,6.45-12.65,10.77-16.6,26.53-29,39.14-44.08a10.41,10.41,0,0,1,3.51.61,259.28,259.28,0,0,0-30.11,30.38c-6.37,7.52-18.56,18.55-15.59,29.61a.55.55,0,0,0,.85.32,7.48,7.48,0,0,0,2.34,1.92,10.46,10.46,0,0,0,8.33,1c4-1.26,9.11-8.17,3.47-10.79a.42.42,0,0,0-.33,0c-2.28-1.14-5.06-.4-7.45,1s-5.14,4.4-4.4,7.34a3.43,3.43,0,0,1-1.51-1.62c.68-6.57,7.87-11.47,14.2-9.24,9.53,3.36,3.08,13.8-3.25,15.52C154.87,105.78,144.79,104.06,145.85,94.67Zm59.64-49.26-.07-.1s0,0,0-.08c.84-4.22,0-9,2.7-12.6,1.54-2,4.19-3.3,6.68-2.21,3.4,1.49,2.45,4.93,1.46,7.68a.54.54,0,0,0-.17.47l-.12.32c-.22.59.66.91,1,.41.12-.2.24-.4.35-.61,2.3-1.19,5.26-2.64,7.51-.82s1.35,5.14-.64,7c-3.25,3-8.45,3.81-12.48,5.16a.69.69,0,0,0-.07,1.29c1.78,1.93,3.94,3.47,5.72,5.39a7.53,7.53,0,0,1,1.37,2.07,90.28,90.28,0,0,0-6.43,7,9.66,9.66,0,0,0-1.39-1c-3.08-3.1-6.34-6-9.32-9.19s-8.48-7.83-9.49-12.54c1.29-1.32,2.57-2.65,3.82-4,3.34,1.56,5.77,4.62,9.12,6.89C205.32,46,205.65,45.67,205.49,45.41ZM169.76,90.66c-5.41-7.58-18.12-2.87-19.72,5.42-.57-7,4.52-13.12,8.72-18.35,3.81-4.74,7.93-9.22,12.09-13.65,6.58-7,13.72-13.47,20.46-20.31.7,3.81,4.16,6.75,6.63,9.54,3.6,4.08,7.31,8.36,11.65,11.66a3.94,3.94,0,0,0,1.85,1.75c-1.75,2-3.52,4.09-5.42,6-4.52,4.51-9.18,8.85-13.78,13.27-8.91,8.56-18.21,19.75-31,19.9a13.7,13.7,0,0,0,6.45-3.13C171,99.8,172.49,94.49,169.76,90.66Zm-16.65,9.17c.27-3.07,1.25-5,4-6.71,2.35-1.42,4.75-2.1,7.1-1,2.73,3.24-.85,7.33-4.31,8.3A13.23,13.23,0,0,1,153.11,99.83Zm63.3-33.9A.41.41,0,0,0,216,66c-.13.1-.24.22-.36.32s-.41.16-.63.23a.4.4,0,0,0-.2.57c-.82.88-1.58,1.88-2.39,2.73a27,27,0,0,0-2.13,2.07c-8.72,8.34-16.51,17.65-25.31,25.91-8.52,8-23,17-33.2,7.69.3.09.59.18.91.25a20.31,20.31,0,0,0,5,.53c11.27,4.76,22.33-7.44,29.85-14.23,5.68-5.13,11.13-10.49,16.4-16.06,5-5.3,10.8-10.46,15.21-16.29A5.33,5.33,0,0,1,216.42,65.93Zm4-2.86a6.16,6.16,0,0,0,.25-2.18c-.24-3.92-4.49-7.38-7.52-9.77,5.4-1.07,13.61-3.51,14.55-9.61a5.22,5.22,0,0,0-3.13-5.92c-2.35-.89-4.5-.07-6.45,1.17a6.47,6.47,0,0,0-.68-6.12,6,6,0,0,0-5.85-1.92c-6.47,1.29-7.47,10-7,15.54-2.7-3.56-8-7.86-12.42-7.5,4.66-6.19,8.89-12.08,16.51-14.9s16.29-1.77,22.31,4c6.54,6.28,6.37,15.82,2.22,23.43C230.2,55,225.31,59,220.46,63.07Z"/></g><g class="cls-2"><path class="cls-3" d="M272.19,471.15a.72.72,0,0,0,0-.17c0-.07,0-.15,0-.22-.15-1.17-1.94-1.24-1.86,0,0,.09,0,.17,0,.26-.2.57-.43,1.14-.68,1.69-4.65,5.79-9.64,11.76-17,13.93C241.72,489.89,233,483,231.1,472.12c-2-11.31-2.59-21-10.33-30.13-13.57-16.08-37.18-18.43-53-4.25A36.06,36.06,0,0,0,157,456.41a1.09,1.09,0,0,0-.75-.12c-3.16.62-7,.91-10,2.15-1.74.72-2,2.21-1.07,3.84a14.81,14.81,0,0,0,10.39,7.11,69.45,69.45,0,0,0,8.86,32.35c11.83,20.72,37.23,29.91,59.87,25.85C250.56,522.89,275.64,500.15,272.19,471.15Zm-125-10.75c.25-.37,3-.56,3.54-.67,2-.39,3.91-.78,5.86-1.19a52.19,52.19,0,0,0-.92,9.24,21.28,21.28,0,0,1-7.42-5.17C147.74,462.11,146.58,461.23,147.15,460.4Zm76.66,65.12c-27.77,4.92-54.76-10-62.75-38-3.49-12.22-5.28-27,.9-38.63,5.78-10.84,18.17-18.52,30.37-18.26,12.47.27,23.88,7.87,30.22,18.61,5.66,9.59,3.65,20.79,8.21,30.54,3.65,7.81,11.8,11.28,20,10,8.4-1.33,15.13-7.34,19.6-14.45C269.84,501.67,249.24,521,223.81,525.52Z"/><path class="cls-3" d="M239.9,510.28a1.28,1.28,0,0,0-.5-.8c-8.11-6.08-10.9-20.28-22.7-21.11-6.87-.48-12.57,5.31-13.15,12.1-.64,7.49,4.5,14.15,11.15,16.75,9,3.52,19,.31,25.76-6.17C240.87,510.66,240.36,510.08,239.9,510.28Zm-18.35,5.83c-9.56-.29-20.29-9.42-14.42-19.63,7-12.14,18.22-1.37,23.2,6.28a32.1,32.1,0,0,0,7.42,8.58C232.63,513.86,227.35,516.29,221.54,516.11Z"/><path class="cls-3" d="M171.61,456.13h0a2.27,2.27,0,0,0-.34,2c.79,2.37,5.08,1.19,5.06-1.06A2.47,2.47,0,0,0,171.61,456.13Z"/></g><g class="cls-2"><path class="cls-3" d="M101,278.27a16.58,16.58,0,0,0-2.82-8c-1.71-5.3-5.63-9.9-9.3-13.93-3.28-3.62-6.53-7.62-11.1-9.45a.32.32,0,0,0,0-.38,40.69,40.69,0,0,1-3.66-4.36,47.44,47.44,0,0,1-2.38-4.46,1.91,1.91,0,0,0-.31-1.53c2.4.21,4.81.3,7.22.37,1.89.05,4,.4,5.89-.16a4,4,0,0,0,3-3.08.43.43,0,0,0,0-.2,3.54,3.54,0,0,0-.09-1.13.39.39,0,0,0-.67-.12c-3.89-4.81-12.45.07-16.31,2.88a.69.69,0,0,0-.29.52,3.1,3.1,0,0,0-.49-.17c0-.07,0-.14,0-.22,3.49-4.66,10.68-8.1,16.52-6.18l3.48,1.77q3.61,4.46-.48,6.46a8.63,8.63,0,0,1-5.91,2.23,22.1,22.1,0,0,1-10.8-2.4.42.42,0,0,0-.42.73c4.69,3.05,11.47,4.1,16.64,1.59,2.77-1.34,4.34-4,3.3-7.06-1.64-4.86-7.8-5.39-12-4.78a16,16,0,0,0-6.87,2.62c3.16-4.46,7.93-6,12.94-8.23A34.68,34.68,0,0,0,97,214c3.23-3.41,6.24-10.87-.34-12.5a.68.68,0,0,0-.73,1,.41.41,0,0,0,0,.1c1,15-19.74,13.9-25.08,23.94-.21-6.19-1.93-12.25-2.68-18.42-1.31-10.74,3.67-18.9,14.54-20.23a.5.5,0,0,0,0-1h-.06c-.09-3-2.34-4.14-5.28-3.81-4.25.48-7.89,3.88-10.15,7.33-7,10.67-2,24.67.4,36.63a13,13,0,0,0-4.24-4.87c-2.54-1.69-6.55-2-8.21,1.13-1.8,3.34.86,6.88,3.15,9.11s6.35,5.33,9.56,3.37c0,0,0,0,.07,0a6.92,6.92,0,0,1,1.07-.08.45.45,0,0,0,.66.15,1.65,1.65,0,0,1,.24.1,1.18,1.18,0,0,1,.52,1.39.56.56,0,0,1-.86.42,2.26,2.26,0,0,1-1-1.64c0-.31-.51-.45-.59-.08v0h0c-.53.5-.86,1.15-1.44,1.63a6.37,6.37,0,0,1-2.16,1.18.24.24,0,0,0-.16.32,7.53,7.53,0,0,1-2.66.85,11.58,11.58,0,0,1-2.76-.06c-17.08-5.53-32.87,9.51-41.56,22.78-9.64,14.71-13.45,34-5.54,50.36,7,14.48,21.41,23.92,36.54,27.55,18,4.32,33-2.44,45.24-15.86C105.49,311.64,107,294.18,101,278.27ZM86.68,233.19c-.78,3.36-6.38,2.4-8.65,2.34-2.07-.06-4.14-.09-6.21,0C75.79,232.79,83.3,227.88,86.68,233.19Zm-16.12-2.69c0,.09,0,.18,0,.28a0,0,0,0,0,.1,0c0-.35.05-.7.08-1.05,2.63-8.79,14.11-9.51,20.77-14.53,3.71-2.8,6.62-7.25,5.38-12,6.45,4.51-4.14,12.57-7,14.45A65.06,65.06,0,0,1,81,222.16c-4.17,1.93-8,4.3-9.4,8.91a13.09,13.09,0,0,0-1.36,1.47A13.67,13.67,0,0,1,70.56,230.49Zm-2.81,4.74s-.05.06-.08.09a14.21,14.21,0,0,1-7.94-3.11c-2-1.62-4.44-3.79-4.31-6.64.25-5.64,6.42-3.84,8.9-1.38a17.92,17.92,0,0,1,3.9,6.51c0,.33.1.66.14,1a.42.42,0,0,0,.15.27,21.36,21.36,0,0,1,.32,2.35l0,0-.42,0a.34.34,0,0,0,0,0A23.47,23.47,0,0,0,63,225.44c-1.17-1.1-4.41-3.1-5.49-.85-1,2.09,1.54,5.33,2.74,6.78a9.24,9.24,0,0,0,8.6,3.56h0v0A2.74,2.74,0,0,0,67.75,235.23Zm-.25-1a10.31,10.31,0,0,1-5.4-2.69A14,14,0,0,1,60,229c-.35-.51-1.65-2.28-1.47-2.9L60,224.78l1,.39a7.2,7.2,0,0,1,1.37,1,14.16,14.16,0,0,1,2,2.28A27.08,27.08,0,0,1,67.5,234.18Zm2.1-.77a15.55,15.55,0,0,0-.5-2.23c-.64-8.21-3.65-16-4.15-24.26-.28-4.61.09-9.46,2.12-13.66a17.09,17.09,0,0,1,3.74-5.18l2.44-1.81c2.69-1.95,5.45-1.71,8.27.64a15.72,15.72,0,0,0-13.7,10c-1.57,4-1.08,8.4-.37,12.57,1,6.16,2.06,12.22,2.8,18.4a11.93,11.93,0,0,0-.65,5.1.3.3,0,0,0,.18.26Zm1.78,5.14a17,17,0,0,0,5.47,8l-.4-.13a.57.57,0,0,0-.63.22,33.57,33.57,0,0,1-3.24-3.53,34.08,34.08,0,0,1-2.39-3.81A1.81,1.81,0,0,0,71.38,238.56Zm-12.48,2.92a.69.69,0,0,0,.73-.46,7.88,7.88,0,0,0,6.65-2.42,4.48,4.48,0,0,0,.44-.32A6,6,0,0,0,67.88,237a2.75,2.75,0,0,0,.53,1.46c-1.41,1.35-2.68,2.62-4.75,3.05a15.28,15.28,0,0,1-5,0ZM69,239l.2.09a15.78,15.78,0,0,0,6.36,8.1.7.7,0,0,0,0,.63c5,9.4,8.06,20.8,2.62,30.77-5.87,10.76-19.18,13.08-29.25,7.09-9.84-5.85-12.43-16.2-8.11-26.67,3.31-8,9.52-13.13,16.87-17C61.15,243.93,66.82,242.36,69,239Zm18.81,88c-7.45,7-16.52,12.5-26.91,13-9.93.48-20.26-2.91-28.73-8-17.89-10.8-26.86-30.19-21.3-51,5.42-20.33,23.75-42.18,46-39.79C47.54,244.05,40.3,253,37.86,262.46c-3,11.41,2.14,21.28,12.65,26.17,9.34,4.35,21.07,2.42,27.38-6.19,7.46-10.17,5.38-23.38-.2-33.87a39.36,39.36,0,0,1,4.27,3,.5.5,0,0,0-.39.64,7.72,7.72,0,0,1,.58,1.95.54.54,0,0,0,1.08,0,3.77,3.77,0,0,0-.41-1.88,37.88,37.88,0,0,1,5,5.21,113.57,113.57,0,0,1,8.1,11.73.45.45,0,0,0-.13.53c3.7,9.53,7.11,18.58,6.54,29.05C101.69,310.47,96.09,319.23,87.84,327Z"/><path class="cls-3" d="M51.42,241.74a2.38,2.38,0,0,0-2,1.31.55.55,0,0,0,.86.67c.48-.41.93-.86,1.41-1.26A.43.43,0,0,0,51.42,241.74Z"/><path class="cls-3" d="M46.94,244.6c-.79.31-1.62.69-1.87,1.61a.45.45,0,0,0,.75.44c.55-.45.84-1.13,1.39-1.58C47.41,244.89,47.19,244.5,46.94,244.6Z"/><path class="cls-3" d="M42.15,249.4a3.89,3.89,0,0,0-2,2.51c-.07.36.4.75.68.4.62-.79,1-1.73,1.67-2.5C42.64,249.6,42.42,249.24,42.15,249.4Z"/><path class="cls-3" d="M38.72,254.55a11.94,11.94,0,0,0-1,2.45c-.1.4.49.69.68.29a12,12,0,0,0,.81-2.52C39.3,254.46,38.87,254.24,38.72,254.55Z"/><path class="cls-3" d="M36.36,260.23a6.69,6.69,0,0,0-.63,3.57c.05.36.64.34.7,0,.21-1.1.28-2.22.49-3.33C37,260.15,36.51,259.89,36.36,260.23Z"/><path class="cls-3" d="M35.48,267a.27.27,0,0,0-.55,0,24.79,24.79,0,0,0,0,3.29.31.31,0,0,0,.61,0A24.84,24.84,0,0,0,35.48,267Z"/><path class="cls-3" d="M36.4,275c-.07-.4-.65-.28-.67.09a5,5,0,0,0,1,3.16c.19.26.72.12.58-.25A16.06,16.06,0,0,1,36.4,275Z"/><path class="cls-3" d="M41.55,285a5.31,5.31,0,0,1-1.77-2.24c-.13-.3-.62-.09-.52.22a4.54,4.54,0,0,0,2,2.5C41.58,285.65,41.84,285.18,41.55,285Z"/><path class="cls-3" d="M48.4,290.15a15.13,15.13,0,0,0-2.64-1.71.45.45,0,0,0-.45.79A15.12,15.12,0,0,0,48,290.8C48.38,290.94,48.68,290.39,48.4,290.15Z"/><path class="cls-3" d="M57.45,292.23c-1.35-.26-2.63.15-4,.18a.32.32,0,0,0,0,.64c1.34,0,2.62.45,4,.18A.53.53,0,0,0,57.45,292.23Z"/><path class="cls-3" d="M66,292a10,10,0,0,1-2.54.63.39.39,0,0,0,0,.77,4.72,4.72,0,0,0,2.85-.66C66.72,292.53,66.51,291.88,66,292Z"/><path class="cls-3" d="M74.43,287.76c-1.12.65-2.06,1.55-3.23,2.13-.56.28-.17,1.24.43,1a6.64,6.64,0,0,0,3.55-2.4A.56.56,0,0,0,74.43,287.76Z"/><path class="cls-3" d="M79.64,282.77A7.11,7.11,0,0,1,78,284.47c-.54.32-.19,1.29.44,1.06a3,3,0,0,0,2.15-2.23C80.63,282.82,80,282.29,79.64,282.77Z"/><path class="cls-3" d="M84.39,275a8.58,8.58,0,0,0-1.53,2.52c-.19.42.31.9.66.52a8.59,8.59,0,0,0,1.76-2.34C85.54,275.14,84.88,274.5,84.39,275Z"/><path class="cls-3" d="M85.41,266.55a7.62,7.62,0,0,0-.33,3.44c.07.64,1,.67,1,0a13.63,13.63,0,0,1,.34-3.15A.53.53,0,0,0,85.41,266.55Z"/><path class="cls-3" d="M84.41,257.45c-.27-.32-.71.09-.55.43a7.06,7.06,0,0,1,.84,2.53c0,.42.65.43.65,0A4.67,4.67,0,0,0,84.41,257.45Z"/><path class="cls-3" d="M72.56,308.05c-3.35-6.76-13.47-7.11-16.37-.58-1.47-6.29-11.07-7.13-15.29-1.72-2.78,3.57-2.86,9.91-.91,13.89,2.43,4.94,9.34,8.92,13.71,11.79a.71.71,0,0,0,.64.08,1.05,1.05,0,0,0,1,0C64,327.33,78.85,320.75,72.56,308.05Zm-1.77,10.06c-3,6.46-10.76,8.41-16.5,11.53l0,0c-3.85-3.33-9.21-6.23-11.82-10.54-2.3-3.81-2.36-9.62.85-12.91,4.08-4.19,12-2.26,12,4.45,0,.54.86.7,1,.13,0-.27.08-.53.11-.78,1.91-4.25,6.9-6.68,11-4.69C71.83,307.5,72.72,313.91,70.79,318.12Z"/></g><g class="cls-2"><path class="cls-3" d="M557.82,467.94a31,31,0,0,0-40.71.68c-11.79,10.77-14.29,28.14-10.3,43.12C511,527.55,523.7,545,541.19,546a11.4,11.4,0,0,0-3.38,6c-.38,2.3,1.7,3,3.58,3.18a12.71,12.71,0,0,0-2.11,7.76c-1.14-1.42-3-2.73-4.85-2.54-2.17.23-1.71,2.31-1.33,3.88s1,4.46,3,4.46c2.15,0,2.38-2.52,3.37-4,.75,5.25,3.71,10.74,6.15,16-2.45-1.2-5.9-2-6.33.91-.23,1.61,1.08,3.09,2.08,4.17s2.41,2.08,4,1.75a.67.67,0,0,0,.57-.54c.18-1.39.49-2.85.55-4.28a30,30,0,0,1,2.49,8c.56,4.51-.51,9-1.93,13.47a.77.77,0,0,0-.21.15c-.5-2-1.51-4.15-3.06-5.09-1.8-1.08-3.1.93-3.32,2.53a15.46,15.46,0,0,0,.23,4.75c.16.86.33,1.85,1.3,2.09,1.27.32,2.87-.54,4.12-1.61-2.88,8.48-6.09,16.88-1,25.1a.46.46,0,0,0,.8-.44c-4.09-8.48-.63-16.55,2.2-24.78.51.69,1.07,1.35,1.64,2a8.87,8.87,0,0,0,2.85,2.49c2.41.93,2.09-2.76,2.13-4.08a19.41,19.41,0,0,0,.08-4.49,1.29,1.29,0,0,0-1.33-1.08,7.39,7.39,0,0,0-4.38,2.18,26.88,26.88,0,0,0-1-21.46c1.52.49,3.42.84,4.44,0,1.61-1.37.46-4.52-.2-6.05s-1.94-3.49-3.87-2.33c-1.39.83-1.78,2.84-2,4.66-2-4.49-4.18-9-5.06-13.46a9.28,9.28,0,0,0,4.26,2.09c2.46.27,2.07-3,1.66-4.54-.48-1.77-1.14-3.76-3.31-3.58a4.15,4.15,0,0,0-3,2,16,16,0,0,1,1.16-6.1h.36c2.17,0,4.73-.86,4.62-3.51s-2.38-3.8-4.33-5.06c15.13-3.33,23.33-17.19,26-31.89C571.82,499.09,570.68,479,557.82,467.94Zm-20.22,97.77c-.19.54-.52,1.58-1.12,1.79l-1.41-.26a4.07,4.07,0,0,1-.43-.74c-.18-.35-.34-.72-.48-1.09a12.51,12.51,0,0,1-.7-2.43c-.1-.61-.28-1.42.72-1.65a2.29,2.29,0,0,1,1.13.22,14.12,14.12,0,0,1,3.32,2.12A6.24,6.24,0,0,0,537.61,565.71Zm7.15,20.66a3.23,3.23,0,0,1-2.22-1c-.69-.64-2-1.9-2.07-2.87-.23-2.2,2.8-1.39,4.91-.55A27.1,27.1,0,0,0,544.75,586.37Zm-1.47,20.85q-.85.58-1.3-.71-.11-.62-.18-1.24a16.14,16.14,0,0,1-.08-2.42c0-.49,0-1.88.54-2.13.9-.42,1.7,1,2.09,1.52a16.28,16.28,0,0,1,1.68,3.09A5.46,5.46,0,0,1,543.28,607.22Zm9.94-2.25c0,.77,0,1.53-.07,2.3a8.07,8.07,0,0,1-.07,2.42q.09.55-.09.23a1.32,1.32,0,0,0-.51-.45l-.84-.71a31.82,31.82,0,0,1-2.55-2.51,9.45,9.45,0,0,1,3.39-2.46C553.57,603.36,553.25,604.07,553.22,605Zm-4.76-27.61c.26-1,.65-2.49,2-1.33a6.19,6.19,0,0,1,1,2c.47,1.15,1.75,4.2-.63,3.9a18.73,18.73,0,0,1-3.27-.85l-.09-.2C547.85,579.71,548.16,578.53,548.47,577.36Zm-4.79-17c1.94-.79,2.41,1.64,2.65,3a4,4,0,0,1,0,2.2c-.49.85-1.62.07-2.26-.23a17.27,17.27,0,0,1-2.75-1.66C542,562.53,542.3,560.92,543.68,560.36Zm1.23-10.4c.52.71,1,1.9.43,2.73s-2.16.85-3.05.84-2.1.05-2.59-.78.06-1.68.39-2.49a16.23,16.23,0,0,1,1.65-3A16.4,16.4,0,0,1,544.91,550Zm-2.84-5a.93.93,0,0,0-.56.36c-9.07-2.55-16.68-6.07-22.89-13.62a52.54,52.54,0,0,1-11-25.72c-2.76-18.36,5.92-39.64,25.88-42.57C576.47,457.09,579.94,536.89,542.07,545Z"/><path class="cls-3" d="M565.09,495.08c-.37-.83-.78-1.6-1.21-2.36-1.52-7.74-5.16-15.39-11.06-20.52-3.94-3.43-10.69-6.86-14.59-2.23a.28.28,0,0,0-.42.15,6.29,6.29,0,0,0-.21.72c0,.07-.09.12-.13.19a.2.2,0,0,0,.06.27c-.5,3.62,3.19,5.46,6.24,7.05,7.9,4.12,16.08,8.27,20.27,16.66l.34,1.17s0,0,0,0c0-.22-.06-.43-.09-.65C564.63,495.87,565.31,495.57,565.09,495.08Zm-9.54-11.36c-4.17-3-17.67-7.21-17.11-13.27,5.57-7.92,16.81,4.62,19.62,9.08a46.22,46.22,0,0,1,4.85,11.6A28.44,28.44,0,0,0,555.55,483.72Z"/></g><g class="cls-2"><path class="cls-3" d="M675.5,506.86c-3.58-17.43-7.86-34.69-12.59-51.83q-2.55-9.26-5.42-18.41a.83.83,0,0,0-.3-1q-.89-2.83-1.81-5.66c-1.52-4.66-2.43-10.29-6.89-12.9a7.68,7.68,0,0,0-.44-2.65.43.43,0,0,0,0-.24c-.86-2.62-4.89-2.83-6.89-1.41a8.23,8.23,0,0,0-2.93-.63,22.11,22.11,0,0,0-4.47.51,13,13,0,0,1-3.85.34,9.23,9.23,0,0,1-3.67-1.75.83.83,0,0,0,.22-.66c-.45-4.48,1.94-8.44,1.51-12.89a15.5,15.5,0,0,0-2.63-7.26,13.27,13.27,0,0,0-15-5,13.11,13.11,0,0,0-7.5,18.19c2.2,4.31,7.18,6.31,8.13,11.11-.14,1.84-.26,3.3-2.46,4.6-1.72,1-3.59,1.77-5.24,2.92a10.2,10.2,0,0,0-3.4,3.69.49.49,0,0,0-.34-.09c-2.67.31-3.87,3.42-2.86,5.64a.35.35,0,0,0-.07.13c-1.94,5.61.14,11.27,1.62,16.76,1.67,6.19,3.41,12.36,5.1,18.54a.31.31,0,0,0-.19.52c.13.14.29.26.44.39.34,1.27.69,2.53,1,3.8.13.48.25,1,.37,1.44a.35.35,0,0,0,.08.44l0,0c3.86,14.85,7.12,30.21,12.2,44.64a.58.58,0,0,0,0,.08c.77,3.29,2.44,6.35,5.6,7.83,5.75,2.69,14.25.85,20.3.1,10.47-1.3,30.28-5.68,32.37-18.67a.58.58,0,0,0-.12-.46A.64.64,0,0,0,675.5,506.86Zm-64.6-87.17a5.71,5.71,0,0,0,1.11-7,.4.4,0,0,0-.54-.18,17.66,17.66,0,0,0-3.41-4.66c-4.85-5.4-7.41-13.24-.79-18.7,6.44-5.31,16.25-2,18.7,6,1.45,4.73-1,9.1-1.15,13.74-1.72,1.24,1.31,4.45,2.46,5,5,2.55,10.4-2.2,15,1.76-2.47,7.32-13.58,11-20.11,13-7.48,2.29-14.8,2.72-22.34.42a.51.51,0,0,0-.2,0C601.21,423.38,607.11,423.06,610.9,419.68Zm-13.27,9.26a4.34,4.34,0,0,1,1.82-2,8.55,8.55,0,0,0-.43,2.28.25.25,0,0,0,.21.26.49.49,0,0,0,.31.44c8.33,3.64,17.63,2.34,25.91-.83,6.52-2.5,16.51-5.53,18.75-13.17a.93.93,0,0,0-.75-1.2,4.59,4.59,0,0,0-1-1.17,6.62,6.62,0,0,1,2,0,12,12,0,0,1,2.5,1.08c1.37,9.95-15,16.55-22,18.28-8.22,2-20.3,5.51-27.1-1.14A3.28,3.28,0,0,1,597.63,428.94Zm-.35,3.43a3.54,3.54,0,0,0,.61.56h0c2,3.14,5.68,4,9.38,4a73.67,73.67,0,0,0,21.91-3.52c5.64-1.82,17.72-7.57,19.12-15,4.43,4.3,5.89,11.6,7.52,17.65-8.36,5-16.65,9.37-26.06,12.18-9.15,2.73-20.11,5.83-29.49,2.85C598.58,444.94,596.69,438.82,597.28,432.37Zm77,74.72a.61.61,0,0,0-.08.16c-2.52,10.83-18.24,15.37-27.59,17a78.62,78.62,0,0,1-16.36,1.21c-3.54-.11-6.58-.37-9.11-3.09-1.87-2-2.53-4.49-3.33-7-.08-.36-.16-.72-.24-1.09a9.58,9.58,0,0,0,8.16.44c.2-.09.06-.38-.13-.34a12.6,12.6,0,0,1-8.28-1.22c-.23-1-.48-2.06-.72-3.1a4.39,4.39,0,0,0,3.28.24.38.38,0,0,0-.07-.75,12.24,12.24,0,0,1-3.51-.74q-.57-2.35-1.19-4.69c2.77,1.33,6.31,1.73,8.78,0a.33.33,0,0,0-.22-.61,23.39,23.39,0,0,1-5.09.46,11.57,11.57,0,0,1-3.81-1.09c-.36-1.36-.75-2.71-1.12-4.06a5.76,5.76,0,0,0,4.28,0c.39-.16.12-.72-.24-.66a8.05,8.05,0,0,1-4.31-.36c-.44-1.58-.9-3.16-1.35-4.74a11.87,11.87,0,0,0,9.49.3c.41-.17.11-.71-.25-.68a19.64,19.64,0,0,1-9.68-1.16l-1.39-4.76a6,6,0,0,0,4.72-.22c.31-.18.24-.79-.17-.75a15.89,15.89,0,0,1-4.82.06q-.82-2.79-1.62-5.58a10.35,10.35,0,0,0,9.39.6c.62-.29.22-1.22-.41-1.1a15.41,15.41,0,0,1-9.32-.68q-.65-2.27-1.28-4.53a6.07,6.07,0,0,0,3.72.69c.52-.08.41-.87-.08-.91a9.79,9.79,0,0,1-4-1.08c-.39-1.43-.77-2.87-1.16-4.3a11.79,11.79,0,0,0,8.13,1.18c.6-.14.45-.94-.09-1-2.88-.47-5.79.08-8.35-1.31l-1.19-4.45a5.63,5.63,0,0,0,4,.87c.52-.08.45-1-.08-1a6.2,6.2,0,0,1-4.25-1.2l-1-3.55a12.56,12.56,0,0,0,1.91.79,16.61,16.61,0,0,0,6.36.92.52.52,0,0,0,0-1,33.05,33.05,0,0,1-4.43-.73c-1.1-.26-4-.7-4.38-2a.44.44,0,0,0-.14-.23c-.28-1-.55-2.06-.83-3.08l-.31-1.11c8.32,3.19,19.51.63,27.76-1.58a89,89,0,0,0,28-12.82l.2.67c2.33,7.67,4.55,15.38,6.75,23.09C667.54,476.43,671,491.79,674.26,507.09Z"/><path class="cls-3" d="M625.87,514.51a0,0,0,0,0,0,.09A0,0,0,0,0,625.87,514.51Z"/></g><path class="cls-4" d="M487.81,519.79c-14.78,3.72-29.1,8.42-44.17,11a222.08,222.08,0,0,1-45.73,3.33A174.88,174.88,0,0,1,356,527.62c-14.13-4.05-26.7-10.53-39.51-17.64-.52-.29-.92.45-.46.8a96.58,96.58,0,0,0,8.35,5.6c-1.12,15.37-1.15,30.84-1.5,46.24a.81.81,0,0,0,1.38.58c10.42-10.58,19.66-22.5,28.28-34.62v0c2.43.73,4.89,1.38,7.36,2,.18,8.87,1.19,17.76,2.17,26.56.74,6.65.78,14.26,4,20.27a.85.85,0,0,0,1.46,0c7.35-13.72,14.67-27.47,21.53-41.44a.88.88,0,0,0,.06-.65c2.36.2,4.7.37,7,.48,1.4.07,2.8.1,4.21.14,2.2,9,5.07,17.92,7.79,26.81,1.95,6.36,3,15.41,8,20.14a.87.87,0,0,0,1.45-.39q6.9-23.8,12.64-47.91,5.53-.62,11-1.49l1.75-.29v0c4.16,7.83,8.9,15.36,13.47,23,3.58,5.94,6.83,14.12,12.21,18.6a.88.88,0,0,0,1.37-.18c1.58-2.51,1.5-5,1.71-8,.32-4.47.64-8.94,1-13.41.61-8.92,1.18-17.84,1.77-26.76,4.71-1.34,9.35-2.85,13.82-4.6A.87.87,0,0,0,487.81,519.79ZM324.49,560.46c.17-14.49.85-29,.89-43.48a123.84,123.84,0,0,0,25.51,11.08A380.23,380.23,0,0,1,324.49,560.46Zm42.29,14.6c-2.91-6.64-2.78-15-3.54-22.11-.79-7.36-1.3-14.77-2.21-22.11a185,185,0,0,0,26.42,4.31C380.56,548.45,373.79,561.82,366.78,575.06Zm49.51,5.43c-2.47-3.13-3.24-7.52-4.39-11.27s-2.24-7.3-3.39-10.94c-2.34-7.47-4.58-15-7.32-22.33a214.82,214.82,0,0,0,27.3-1.2Q422.79,557.72,416.29,580.49Zm54.95-31.79q-.39,5.16-.75,10.32c-.27,3.82.17,9.6-1.48,13.3-2.43-2.43-4-5.76-5.78-8.68q-3.17-5.26-6.35-10.51c-4.17-6.88-8.24-13.87-12.76-20.53a276.18,276.18,0,0,0,28.82-6.1Q472.08,537.6,471.24,548.7Z"/><g class="cls-2"><path class="cls-3" d="M787.83,367.06c-6.63-21-23.51-42.35-46.94-43.21a.83.83,0,0,0-.7,1.18,5.93,5.93,0,0,1-.5,1.21c-1.57,2.58-3.38,5-6.2,6.46-7.1,3.55-12-2.26-13.11-8.89a.57.57,0,0,0-.73-.41.92.92,0,0,0-.68-.91c-17.2-4.58-39.76,4.75-48.93,20.11a.45.45,0,0,0-.06.22.64.64,0,0,0-.31.7c2.39,8.66,13,16,21.85,16.49a157.16,157.16,0,0,1-5,26.35c-3.11,11.88-6.49,24.08-5.63,36.47a.49.49,0,0,0-.19.45c1,12.93,8.47,24.11,17.07,33.29,0,0,0,.06,0,.09a.55.55,0,0,0,.39.61.68.68,0,0,0,.23.26c6.46,4.12,17.07,4.39,24.51,4.28a1,1,0,0,0,1-1c5.58.92,13.48-6,17.26-9,5.39-4.27,11.33-8.61,13.21-15.57a.89.89,0,0,0,.09-.17c3.49-14.18,5.83-27.76,5.56-42.41-.14-7.34-.36-14.58.07-21.75l.06,0a29.15,29.15,0,0,0,26.77-3.17.93.93,0,0,0,.42-.65A.89.89,0,0,0,787.83,367.06Zm-69.12-42.62a.84.84,0,0,0,.45-.11A10.55,10.55,0,0,0,728.81,336a11.28,11.28,0,0,0,8-3,17,17,0,0,0,3.82-3.92c.46-.77.63-2.72,1.19-3.35.94.21,1.84.46,2.75.7-1.86,6.12-9.27,13.45-15.43,12.61-7.74-1.05-12.23-7.53-13.82-14.73Zm-38.62,28.9c-3.93-2.77-6.31-6.53-9.25-10.21q1.25-1.28,2.53-2.51c3,7.44,10.54,13.71,18.42,14.71,0,1-.07,2-.13,2.95C687.57,357.1,683.65,355.85,680.08,353.34Zm2.16,73.27c5.62,3.23,9.34,6.59,12,12.79,2.28,5.22,3.73,10.29,3.54,16C691.08,446.25,684,438,682.24,426.61Zm59.51,22.6c-4,3.28-12.06,10.74-18,10.86a1.06,1.06,0,0,0-.69-.42c.27-5.89,7-11.85,11.2-15.26a33.72,33.72,0,0,1,18.2-7.49C750.73,442.22,745.9,445.77,741.76,449.21Zm18.75-78.38a.61.61,0,0,0-.3,0c.08-1.22.2-2.43.32-3.64,7.08,3.47,17.65,2.77,23.57-2.25.66-.56-.31-1.57-1-1-6.42,6-14.85,3.2-22.48,2a71.44,71.44,0,0,1,3.53-15.6c.27-.77-1-1.31-1.31-.56-5.5,11.84-5.24,24.9-4.89,37.71a174.92,174.92,0,0,1-5.16,47.26c-7.85-.53-15.19,3.52-20.8,8.82-3.64,3.44-11,10.15-10.24,16-7.52-.45-15.48-.47-22.55-3.28,1.87-6.25-1.12-14-3.87-19.57s-7.07-10.43-13.31-11.23c0-.09,0-.18,0-.27a.67.67,0,0,0,.45-.68c.11-15.77,4.37-30.17,8.08-45.32,3-12.42,5.4-26,1.33-38.44a.41.41,0,0,0-.79.22,83.66,83.66,0,0,1,.71,12.81c-7.93-2.56-13.37-6.69-17.49-14.1,5.35-5.06,11.09-9.45,18-12.24,7.33-2.94,14.44-3.39,22-3.19a17.76,17.76,0,0,0,14.54,16.84c7.87,1.36,15.37-6.94,17.07-14.34,19.76,5.82,32.32,20.8,39.76,40.58A31.14,31.14,0,0,1,760.5,370.83Z"/></g><g class="cls-2"><path class="cls-3" d="M173.16,564.7a6.2,6.2,0,0,0-2.08-4.4c-.32-.29-.93.1-.64.5a6.1,6.1,0,0,1,1.19,3.9c-.07,1.41-.89,2.33-1.18,3.61a.67.67,0,0,0,1,.76C172.81,568.36,173.24,566.13,173.16,564.7Z"/><path class="cls-3" d="M280.7,631.06c-6.37-1.36-4.19-14.86-6.79-19.67a15,15,0,0,0-7.89-7c-4.16-1.51-14.09-.36-15.09,4.95a21.34,21.34,0,0,0-10.6-6.26c-13.67-3.45-28.75,4.77-42-.87l3.49-.67c.66-.13.66-1,.17-1.36-1.09-.72-4.76-2.86-4.31-4.79-.22,1,3.5-2.46,3-2.05a.78.78,0,0,0-.53-1.31c-.91-.07-10.09-2.5-8.58-5.17.17-.31,1.34-.21,1.7-.55,1.37-1.28,2.47-1.74,3.55-3.44a.79.79,0,0,0-.46-1.15c-1.85-.26-6.42-.06-5.63-2.77.52-1.78,1.46-1.5,3.46-1.82a.74.74,0,0,0,.32-1.22c-1.4-1.11-2.78-2.17-4.28-3.13-2.5-1.62-7.55-2.34-2.22-6.1a.71.71,0,0,0,0-1.2c-3.51-2.37-7.3-3.25-11.12-1.82,0-3.64-2-7.22-5.89-7.63a5.36,5.36,0,0,0-5.18,1.91,2.21,2.21,0,0,0-2.36-.79c-2.68.47-4.35,3.43-5.05,5.95a24,24,0,0,1-5.22-3.65.66.66,0,0,0-1.09.29,8.28,8.28,0,0,0,.35,6.22,13.3,13.3,0,0,1-7.15-1.71.31.31,0,0,0-.45.35c.79,3.57,3,6.43,6.44,7.43a26.47,26.47,0,0,0-10,8.17c-5,6.75-7.24,17.2-2.12,24.54,4.94,7.09,14.68,8.51,22,4.55A22.93,22.93,0,0,0,170.66,599c1.27,12.29-1.45,23.84-1.69,36.16A47.25,47.25,0,0,0,176.13,661a48,48,0,0,1-16-15.69L160,645c-.2-.31-.4-.61-.59-.93l-.06-.06c-.26-3.29-4.84-4.37-7.17-2.59a5.26,5.26,0,0,0-1.67,6.11.7.7,0,0,0,0,.49c3.41,11.79,14.11,21.06,24.35,26.9A65.91,65.91,0,0,0,210,683.59c14.07-.55,27.6-3.36,39.57-11.11,9.43-6.1,20.72-13.13,24.71-24.32a.85.85,0,0,0,0-.38,5,5,0,1,0-7.73-6.23.73.73,0,0,0-.25.26,50.5,50.5,0,0,1-11.84,14.58c5-8.67,5.06-20.27,3.8-29.92a34.7,34.7,0,0,0-4-12.46c3.94,2.1,3.37,7.86,5.14,11.51a14.42,14.42,0,0,0,4.33,5.16c5,3.76,11.49,3.78,17,1.39A.56.56,0,0,0,280.7,631.06Zm-61.79-25.39a101.17,101.17,0,0,1,12.4-.62C235,615,229.22,626.68,218,627s-18.31-11.06-14.5-21.3A62.54,62.54,0,0,0,218.91,605.66Zm-16.31-.11c-7.19,9.46,3.62,22.85,13.73,23.53,13,.88,21.3-12.06,17.28-23.93,1,.07,1.91.15,2.84.29,5.07,14.15-4.65,29.12-20.17,27.6s-23.65-13.69-17.55-28.46A27.68,27.68,0,0,0,202.6,605.55Zm-17.53-39.72c.7,1.75-.49,1.78-2,3.71a.72.72,0,0,0,.31,1.18,34.41,34.41,0,0,1,7.08,3.72c3.31,2.46,1.7.79,0,1.82-1.36.8-2.46.51-3.2,2a.81.81,0,0,0,0,.81,7.88,7.88,0,0,0,3.62,2.72c-.26-.12,2.34,1.06,2.12.79q2.21.17-.28,1.54a2.6,2.6,0,0,1-2.75,1.46.68.68,0,0,0-.4,1,13.09,13.09,0,0,0,8.26,6.51l-2.29,1.11a.77.77,0,0,0-.45,1.11c.83,1.22,3.71,3.55,4,4.54a2.5,2.5,0,0,0,.27.68l-3.16.55c-11.88-6.69-10.23-24.23-22-30.78a8.18,8.18,0,0,0,2.71-5.42C179.44,564.38,184.16,563.58,185.06,565.83Zm-38.19,1.68-.61-1q-.74-1.93.94-.45c2.19.17,4,1.28,6.39,1.16a.69.69,0,0,0,.58-1,8.94,8.94,0,0,1-.93-5,28.54,28.54,0,0,0,5.36,3.7.76.76,0,0,0,1.11-.46,8.29,8.29,0,0,1,1.2-3.21,3.3,3.3,0,0,1,4.2-2s0,0,0,0c-1.13,2.88-.35,7,1.73,9.66a34.48,34.48,0,0,0-14.72,2.72l0,0C150.11,570.65,148.05,569.52,146.87,567.51Zm120.92,74.93a.75.75,0,0,0,0-.25,3.72,3.72,0,0,1,3.68-.54c2.21.89,3.06,4,1,5.6a.87.87,0,0,0-.33.76c-4.65,10.2-14.73,16.6-23.78,22.49-11.39,7.42-23.91,10.1-37.32,10.78-22.79,1.16-49.88-11-59.16-33.45-.44-1.68-.38-3.52,1.19-4.56a2.81,2.81,0,0,1,2.53-.42c1,.37,1.35,1.23,1.85,2.09a.94.94,0,0,0,.91.47,6.19,6.19,0,0,0,.92,1.51c9.79,20,34.25,25.27,54.53,25.11C234.35,671.86,260.68,664.8,267.79,642.44Zm-77.84,23.94c-4-7.95-7.2-18.39,3.93-22.21,6.42-2.21,14.71-1.92,21.45-2,6.53-.09,14.86-.71,20.51,3.25,6.21,4.35,6.53,13.23,2.24,18.93a1,1,0,0,0,0,1.27,77.9,77.9,0,0,1-24.24,4.13,80.59,80.59,0,0,1-24-2.81A.55.55,0,0,0,189.95,666.38Zm64.49-46.57c3.64,11.53,3.76,29.79-4.55,39.16a1.08,1.08,0,0,0-.25,1,53.48,53.48,0,0,1-8.75,4.56,16.28,16.28,0,0,0-.09-17.62c-5.53-8.13-17-7.1-25.47-6.84-8.06.25-22.6-1-28.3,6.23-4.67,5.94-2.55,14.8,1.79,20.3a58.18,58.18,0,0,1-9-3.58.94.94,0,0,0-.17-.5c-7.41-10.63-9.27-22.46-7.75-35.2,1.18-9.9,3.84-20.52-.48-29.92a22.52,22.52,0,0,0,1.38-12.1.42.42,0,0,0-.82,0c-1.28,7.68-2.32,14.87-8.76,20-7,5.6-18.63,5.54-23.21-3.39-3.93-7.67-.37-17.56,5.28-23.24,6.11-6.14,14.71-8.17,23.06-7.65,1.18.07,1.28-1.59.33-2a15.68,15.68,0,0,1-2.19-6.53c-.09-2.87,1.87-5.11,4.79-4.51,2.55.52,4,3.22,3.88,5.72s-1.85,4.17-3.07,6.28a.75.75,0,0,0,.87,1.09c9.78,7.07,9.45,20.65,17.87,28.72a20.64,20.64,0,0,0,6.62,4.24c-4.15,5.8-4.3,13.82-.88,20.1,3.79,7,10.9,10.39,18.47,11.21a22.41,22.41,0,0,0,24-29.5C245.92,607.44,251.75,611.28,254.43,619.8Zm14.2,11.32c-4.75-1.61-7.71-5.3-9.07-10.05-1.15-4-1.9-8-6.39-9.15a.72.72,0,0,0-.15,0q-.51-.74-1.08-1.43c1.7-6.1,11.47-6.12,15.59-3.7a14.54,14.54,0,0,1,6.6,9.67c.73,3.71-.26,7.73,1.19,11.33.67,1.65,1.92,2.17,2.77,3.47l.21.31C277.63,632.94,269.09,631.28,268.63,631.12Z"/><path class="cls-3" d="M164.31,579.36a4.08,4.08,0,0,0-2.75-2.71,3.65,3.65,0,0,0-3.78,1.45,2.68,2.68,0,0,0,.07,3.54.4.4,0,0,0,.66-.18c.17-1,1.43-2.83,2.63-2.4a1.75,1.75,0,0,1,1,1.15c.2.67-.2,1.33,0,2a.93.93,0,0,0,1.12.64C164.71,582.48,164.67,580.48,164.31,579.36Z"/><path class="cls-3" d="M148,599.38a6.12,6.12,0,0,0-2.2-2.57c-.72-.57-1.68-1.39-2.66-1l-.15.08a.27.27,0,0,0-.38.07c-1.57,2,.1,4.06,1.72,5.34a2.69,2.69,0,0,0,2.92.57A2,2,0,0,0,148,599.38Z"/></g><g class="cls-2"><path class="cls-3" d="M230.62,753.56c-11-18-33.69-25.8-53.12-18.49a41.2,41.2,0,0,0-3-25.93A40.3,40.3,0,0,0,165.92,697c-2.21-2.11-6.83-6.85-10.14-5.87s-4.94,7.52-5.85,10.42a40.93,40.93,0,0,0-1.68,17.51c1.3,9.84,7,19.25,16,23.49-1.84,8.71-12,10.79-18.87,6.62-7.68-4.66-10.69-13.76-13-22-3.74-13.55-8.19-26.6-17.27-37.53-8.08-9.72-19.43-17-32-18.69C70,669.21,56.36,674,46,682.09c-18.15,14.18-27.43,39.05-17.84,61,.45,1,.95,2,1.45,3a.52.52,0,0,0,.2.44l.05,0c12.28,23.45,39.1,33.41,64,35.55,28.91,2.47,64.26-5,77.31-34.5a51.92,51.92,0,0,0,59,7.5A1.22,1.22,0,0,0,230.62,753.56Zm-57.7-7.89a1.35,1.35,0,0,0-2.07.32.54.54,0,0,0-.4.31c-14.12,27.17-44.51,35.58-72.84,33.88-23.49-1.41-50-9.8-63.25-30.3,17.42,10.92,40.64,8.64,56.32-5a6.43,6.43,0,0,1,.43,1.65c.09.8,0,1.33.61,1.93a.94.94,0,0,0,1.32,0c1.46-1.23.13-4.18-.69-5.47a7.83,7.83,0,0,0-4.69-3.48c-.88-.2-1.53,1.11-.64,1.55a8,8,0,0,1,2.47,1.86,1.27,1.27,0,0,0-.3.18c-16.86,13.8-38.37,14.52-56.67,3.71a51.28,51.28,0,0,1-3.66-8.28c-8.5-25,7.78-52.26,31-61.72,14.38-5.86,29.76-4.39,42.56,4.53,11.92,8.31,19.66,21.43,24.26,35.1,4.07,12.11,5.51,27.7,17.45,35,8.25,5,20.73,2.09,22.52-8.56a1.26,1.26,0,0,0-.8-1.41,1,1,0,0,0-.33-.33,30.67,30.67,0,0,1-14.19-19.27c-1.26-5.34-1.28-30.62,8.12-27.09,6.63,2.49,12.1,12.51,14.34,18.75a38.25,38.25,0,0,1,.9,23.25,1.22,1.22,0,0,0,1.75,1.37c18.06-8,40.73-1.18,51.5,15.57A50.29,50.29,0,0,1,172.93,745.67Z"/><path class="cls-3" d="M40.73,709.3c-3.66.75-5.06,6.07-2.18,8.52a.81.81,0,0,0,1.14-1.16c-1.28-1.46-.55-4.45,1.39-5,2.18-.6,3.77,2.51,2.73,4.24a1.18,1.18,0,0,0,2,1.21C48,713.68,44.82,708.46,40.73,709.3Z"/><path class="cls-3" d="M58.16,712.69a5.56,5.56,0,0,0-3.44-4.6c-4.37-1.5-8.63,4.44-5.8,8.16a1,1,0,0,0,1.68-1c-1.14-2.16,1.16-6.2,3.73-4.67a3.45,3.45,0,0,1,1.46,2.9c0,1.2-.73,1.93-1.17,3-.31.75.55,1.28,1.16,1.18C57.87,717.29,58.4,714.43,58.16,712.69Z"/><path class="cls-3" d="M74.7,655c-2.68-2.23-6.67-3.22-9.41-.51a4.8,4.8,0,0,0,.34,7.42c3.06,2.26,10.4.12,11.68,4.38a.93.93,0,0,0,1.68.26.57.57,0,0,0,.74-.55A14.69,14.69,0,0,0,74.7,655Zm-5.92,5.81c-2.52-.66-4-3.5-1.2-5.16,2-1.15,4.12-.25,5.79,1.1a15,15,0,0,1,4.38,6.39C75.56,661.17,71.51,661.54,68.78,660.83Z"/><path class="cls-3" d="M92.34,637.68c-13.23-2.27-14.16,18-10.38,25.91a.58.58,0,0,0,.91.14,1.18,1.18,0,0,0,2.18-.61c-.06-9.3,11.08-8.52,13.41-16.21C99.77,642.6,96.54,638.4,92.34,637.68Zm2,11.62c-4.89,4.48-11.06,5.41-11.58,12.82A25.83,25.83,0,0,1,82.46,648c.85-3,2.45-6,5.37-7.46C94,637.49,99.53,644.52,94.32,649.3Z"/></g><g class="cls-2"><path class="cls-3" d="M358.38,291.76a21.21,21.21,0,0,0-8.25,4.22c-3.57,3-6,10.08-11.59,9.14a1.19,1.19,0,0,0-.36,0,5,5,0,0,0-3.32-3.26h0A25.91,25.91,0,0,0,331,278.56c-7.14-9.32-22.59-14.64-33.37-9.15-10,5.1-16.06,18.92-15.22,30,.81,10.62,8.49,20.47,18.55,23.55,10.84,3.32,23.3-1.65,29.11-11.36a5.44,5.44,0,0,0,4.48.8c5.07,1.11,2.28,13.19,2.31,16.64a20.91,20.91,0,0,0,1.57,8.39,20.58,20.58,0,0,0,13.5,11.33c13.16,3.54,27-4.83,32.13-17.2,5.42-13.05,3.47-30.11-9.55-37.62A21.23,21.23,0,0,0,358.38,291.76ZM330.92,310c.17-.34.36-.68.52-1a25.93,25.93,0,0,0,2.84-5.43c1.62,1.25,2.92,3.42,1.58,5.43A3.91,3.91,0,0,1,330.92,310ZM299,319.4c-12.79-6-16.55-20.57-11.71-33.28,2.26-5.93,6.08-11.82,11.94-14.57,6.6-3.1,14.54-1.45,20.82,1.65a24.28,24.28,0,0,1,6.34,4.51,8,8,0,0,0-5.73,3.84c-2.07,3.44-.6,6.67.42,10.16,2.43,8.3-6,6.51-9.53,10.71a9.46,9.46,0,0,0-1.89,6c-.1,2.48,1.55,11.3-2.07,13A20.61,20.61,0,0,1,299,319.4Zm10.2,1.94a6.81,6.81,0,0,0,1.59-2.09c3.21-6.43-3.5-14.26,6-17.84,3.14-1.18,6.43-1.68,7-5.69.24-1.83-.53-3.66-1-5.36-1.43-4.69-1.47-11,5.37-10.77a23.22,23.22,0,0,1,1.14,28,1.31,1.31,0,0,0,0,1.47C324.68,316,317.15,320.84,309.21,321.34Zm70.4,13.53c-8.22,12.9-31.43,18.47-38.93,1.62-2.79-6.26-.3-12.52-.89-19-.24-2.67-1.18-5.2-3.39-6a5.15,5.15,0,0,0,1.32-1.38,5.3,5.3,0,0,0,.81-2.61c4.33.57,7-2.32,9.53-5.63,4.76-6.23,11.71-9.57,19.55-7.93C385.54,297.71,388.2,321.4,379.61,334.87Z"/><path class="cls-3" d="M347.22,312.95a1.07,1.07,0,0,0,0,.74c-3.86,8-4.16,21.2,4.41,25.44,9.49,4.71,20.64-.59,25.32-9.62,4.59-8.84,4.39-22-5.25-27.18C361.87,297,351.17,303.27,347.22,312.95Zm27.64,15.66c-4.06,7.66-13.42,12.39-21.7,8.74-8.88-3.91-5.93-15.07-4.28-23a1,1,0,0,0,.39-.48c3.39-8.26,12.26-13.94,20.86-9.71C379.12,308.57,379,320.71,374.86,328.61Z"/></g><path class="cls-4" d="M551.63,314.4c-6.29-1.14-12.81.57-18.37,3.57a56.41,56.41,0,0,0-9.68,6.89c-2.47,2.1-9.5,10.88-12.89,8.14a1.41,1.41,0,0,0-1.81,0,5,5,0,0,0-3.45-.06c-1.27.4-1.62,1.22-3,1s-1.82-1.34-3-2a6.23,6.23,0,0,0-6,0,.61.61,0,0,0-.47-.17c-6-7.39-12.66-14.63-19.12-21.57-5-5.38-11.06-10.31-18.49-11.44-16.92-2.58-26.17,15.07-26.81,29.68-.57,13.27,4,29.25,16.86,35.17,9.09,4.18,18.23,2.3,26.61-2-11,16.62-12.9,38.33-5.75,57a1.23,1.23,0,0,0,2.4-.33,37.33,37.33,0,0,1,6.06-16.55,49.45,49.45,0,0,0,13.81,16.51c.9.7,2.14-.46,1.85-1.45-6.46-22.35-2.8-44.82,7.61-65.14l.06.07a.78.78,0,0,0-.1.66c7.87,30.36,4.48,62.58-10.76,90-.61,1.09.66,2.59,1.78,1.81A217.54,217.54,0,0,0,513,425q2.6,13.07,4.23,26.29a1.37,1.37,0,0,0,2.31,1c12.24-12.84,13-34,10.87-50.76a99.5,99.5,0,0,0-17-44,73.3,73.3,0,0,0,14.4,10.38c6.46,3.55,14.12,7.36,21.67,6.32,13.75-1.89,21.16-15.9,21.29-28.87S565.64,316.93,551.63,314.4Zm-34.78,20.14c5.19-3.55,9.18-8.69,14.51-12.18,6.16-4,13.87-6.82,21.23-4.85a16.66,16.66,0,0,1,7.87,4.79l-.05.05a38.93,38.93,0,0,1-21.55,12.55,78,78,0,0,1-14.71,1.58c-2.05.07-9.15,1-12-.18l0,0A8.15,8.15,0,0,0,516.86,334.54Zm-53.3-29.86c10.9,6.88,17.52,19.07,27.16,27.63-7.51.92-17.57-6.74-23-10.81a85.9,85.9,0,0,1-18.84-19.8C453.26,300.62,458.26,301.34,463.56,304.69Zm-17,56.51c-12.3-5.59-16.15-21.18-15.37-33.7.67-10.78,6.67-21.55,15.42-25.06a1.11,1.11,0,0,0,.08.21,81.23,81.23,0,0,0,22.05,22.65c5.86,4.05,15.89,11.12,23.49,8.36a13,13,0,0,0-3.32,6.38,14.71,14.71,0,0,1-13.38.26.72.72,0,0,0-.72,1.24,14.08,14.08,0,0,0,13.73.33c-.07.48-.12,1-.16,1.44-3.54,2-7.19,2.9-11.25,3.89-.8.19-.54,1.29.18,1.36,3.82.38,7.75-1.11,11-3.29a14.41,14.41,0,0,0,.13,1.63C477,356.21,462.07,368.25,446.56,361.2Zm40.32,52.37A49,49,0,0,1,476,398.68a1.28,1.28,0,0,0-2.19,0,39.3,39.3,0,0,0-6.73,14.68c-5.44-18.55-1.68-38.17,9.28-54.13a103.66,103.66,0,0,0,12.91-9.71,6.16,6.16,0,0,0,6.22,3.33C484.41,370.65,482,393.25,486.88,413.57Zm9.93-65.47-4.54,1.52A5,5,0,0,1,491,347.3l0-.11a4.89,4.89,0,0,1-.12-1.22,10,10,0,0,1,.11-2.69l.08-.07a.61.61,0,0,0,.08-.81c.17-.8.39-1.59.6-2.37.05-.19.12-.37.18-.56l.06-.06a.53.53,0,0,0,.13-.54,37.86,37.86,0,0,1,1.8-4.14.71.71,0,0,0,.56-.63c4.68-2.12,4.47,3.45,8,3.47.53,0,.91-.38,1.34-.4,2.94-.14,6.06-1.57,7.17,2.17s.66,9-2.41,11.69-8.71,1.57-9.33-2.94A1.24,1.24,0,0,0,496.81,348.1ZM527.51,400c2.24,15.44,2.15,35.36-8,48.16q-1.74-13.08-4.43-26a1.3,1.3,0,0,0-2.17-.58A204.48,204.48,0,0,1,492,438.87c13.06-26.21,16.33-57,8-85.22a8.53,8.53,0,0,0,6,1.26,7.73,7.73,0,0,0,2.21-.74A99.38,99.38,0,0,1,527.51,400Zm21.79-28.64c-7.53,1.16-15.44-3.09-21.8-6.75a96.62,96.62,0,0,1-16.7-12.36,10.52,10.52,0,0,0,1.24-1.8,25.14,25.14,0,0,0,16.9,9.68c1,.11,1.18-1.52.23-1.74a31.64,31.64,0,0,1-16.43-9.4,15.49,15.49,0,0,0,1-4.46,32,32,0,0,0,15.15,4.36c.93,0,.89-1.35,0-1.44a39.28,39.28,0,0,1-15.09-4.49c0-.27,0-.55,0-.81a15.31,15.31,0,0,0-.68-3.44c.74.09,1.53.12,2.33.16a101.71,101.71,0,0,0,19.66-.61c10.29-1.47,20.35-5.55,27-14a29.13,29.13,0,0,1,4.5,9.85C570.29,348.31,566.2,368.73,549.3,371.33Z"/><g class="cls-2"><path class="cls-3" d="M631,627.58c-1.91-3.22-6.2-4.34-9.57-3.13-4,1.42-6.26,5.79-5.88,9.93a1.25,1.25,0,0,0,1.21,1.23c.26,0,.5,0,.75,0a.8.8,0,0,0,.24.25l.23.15c-10.57,11.87-18.31,26.87-20.16,42.89a.67.67,0,0,0,0,.26,2.16,2.16,0,0,0-2.64.59c-21.79,1.91-43.55-.12-65.17-3-3.84-.51-7.68-1-11.52-1.57a158.64,158.64,0,0,0-4.18-27.3c-2-8-4-17.46-8.81-24.36-3.15-4.52-8.34-8.25-14-7.58-4,.47-7.95,3.45-8.91,7.43a11.7,11.7,0,0,0-9.43,1.8,10.53,10.53,0,0,0-3.59,12.09,10.88,10.88,0,0,0-7.66,3.16c-2.94,3-3.76,7.9-1,11.12-4.33.33-8,2.82-7.12,8.1,1,6.13,6.95,10.79,12.69,12a7.16,7.16,0,0,0-3.09,5.32,5.48,5.48,0,0,0,3.68,5.36.91.91,0,0,0,0,.67c-.94,14,8.82,28.11,18.72,36.73a65.07,65.07,0,0,0,16.73,10.47c-13.21-.41-26.11,5.36-28,20.57-1.72,13.9,4.45,31.47,19.63,34.16,7.1,1.26,16.42-.59,22.19-5.15,4.76-3.76,6.71-9.74,7.29-15.65.93-9.42-.55-23.41-8.27-29.61a94.15,94.15,0,0,0,15.24,2.39,109.61,109.61,0,0,0,25.92-.89c-7.47,5.27-12.22,14.48-11.12,24,1.48,12.86,12.89,23.72,25.94,22.18,14.22-1.68,21.71-14.12,20.58-27.82-1-12.27-8.62-22.5-19.48-22.87a52.89,52.89,0,0,0,6.06-3.06,45.73,45.73,0,0,0,21.91-36.83,1.41,1.41,0,0,0-.37-1.1,9.57,9.57,0,0,0,1.63-6c2.29-8.46,4.84-16.8,9-24.56,4.28-8.08,9.89-14.87,16.09-21.47a6.72,6.72,0,0,0,2.58-1.21A7.57,7.57,0,0,0,631,627.58Zm-130.56-6c4.8,4.14,6.78,10.66,8.62,16.54a203.16,203.16,0,0,1,7.35,34.62,288.19,288.19,0,0,0-13-26c-3.86-7-7.7-15.81-14.41-20.56a17.43,17.43,0,0,0-3.94-2.08C487.56,617.74,495.06,616.87,500.47,621.54Zm-18,4.76a1.09,1.09,0,0,0,1.65.49c.29.11.58.21.88.34,5.77,2.67,9,8.71,12.12,14,5.48,9.4,10.29,19.1,15.18,28.8q-8.73-9.16-17.62-18.16c-5.08-5.14-10.54-10.47-17.35-13.12a21,21,0,0,0-5.83-1.38C470.08,629.81,475.92,624.89,482.49,626.3Zm-8.11,14.16c5.88,1.54,10.92,6,15.21,10.11,6.69,6.46,13.06,13.26,19.56,19.92-7.36-3.71-14.72-7.41-22.16-11s-15.51-7.27-23.8-8l-.83,0s0,0,0,0C458.1,643,467.66,638.7,474.37,640.46Zm-14.43,24.72c-3.29-3.31-5.75-10.64,1.24-11,5.85-.33,12.6,2.55,17.9,4.77,10.76,4.5,21.16,10,31.65,15.18-4.24-.58-8.47-1.16-12.72-1.69-9.76-1.22-19.37-2.32-29.13-1.07a2.63,2.63,0,0,0-.75-.12.57.57,0,0,0-.32-.57A36.28,36.28,0,0,1,459.94,665.18ZM508.74,734l.21,0a180.39,180.39,0,0,0-8.2,17.19c-2.09-5.78-4.44-11.49-6.83-17.12A36.56,36.56,0,0,1,508.74,734Zm-16.18.43c2.14,6.59,4.4,13.22,7,19.67l-.22.52q-10.12-4.45-20.15-9.18C481.69,739.58,486.66,736.06,492.56,734.4ZM477.43,753a23.17,23.17,0,0,1,1.24-6.35A200.74,200.74,0,0,0,498.1,757c-6.38,3.18-12.68,6.54-18.79,10.07A37.24,37.24,0,0,1,477.43,753Zm2.3,15.22c5.68-2.25,11.34-4.7,16.95-7.28-2.61,6.28-5.34,13.16-5.64,19.55a.51.51,0,0,0,.1.33C485.6,778.59,481.9,773.82,479.73,768.25Zm14.4,13.55a18.54,18.54,0,0,1-2.43-.72.53.53,0,0,0,.4-.26c3.59-6.39,5.19-14.36,7.79-21.33l1-.47c1.17,4.73,2.47,9.42,3.81,14.1.55,1.91.84,5.64,2.05,8A26.63,26.63,0,0,1,494.13,781.8Zm20.48-4.5a21.62,21.62,0,0,1-5.86,3.18,47,47,0,0,0-1.2-5.09c-.75-2.52-1.49-5-2.26-7.56q-1.36-4.45-2.83-8.84c6,2.62,12,5,18.08,7C519.8,770.36,518.13,774.52,514.61,777.3Zm5.53-28a51.24,51.24,0,0,1,.84,12.53c0,.59-.07,1.18-.13,1.78-5.33-2.12-10.59-4.33-15.83-6.59,5.07-2.47,10.08-5,15-7.64Zm-.48-2a1.22,1.22,0,0,0-.82.07c-5.59,2.46-11.19,5-16.74,7.73l-.18-.53c2.87-6.81,6.08-13.42,9.34-20.05C515.69,737.26,518.27,742,519.66,747.27Zm40.83-10.16c2.22,6.14,4.59,12.3,7.07,18.42-6.06-1.5-12.13-3-18.24-4.31A25.79,25.79,0,0,1,560.48,737.12Zm-12,21a21.07,21.07,0,0,1,.54-5.73c5.69,2,11.49,3.73,17.34,5.25q-7.41,5.34-14.81,10.69A22.55,22.55,0,0,1,548.46,758.16Zm3.9,11.55c4.7-2.64,9.33-5.52,13.86-8.57-1.77,5.37-3.52,10.75-5.14,16.17a.58.58,0,0,0,0,.06A21.89,21.89,0,0,1,552.37,769.71ZM568,779.09a17.58,17.58,0,0,1-5.74-1.2l0-.05c2.54-5.93,4.82-12,7-18.09,2.47,5.93,5,11.8,7.7,17.55A19.61,19.61,0,0,1,568,779.09Zm10.83-2.77c-2.15-5.74-4.43-11.49-6.82-17.21,5.29,1.28,10.6,2.44,15.9,3.59a1.12,1.12,0,0,0,.41,0A20.72,20.72,0,0,1,578.87,776.32Zm10-17.36c0,.55-.07,1.09-.13,1.63a1,1,0,0,0-.16-.07c-5.37-1.16-10.71-2.45-16-3.76,4.92-3.56,9.7-7.29,14.28-11.16A33.5,33.5,0,0,1,588.82,759Zm-3-15.42q-7.28,5.35-14.62,10.62c2.06-6.12,4-12.28,5.95-18.42a13.38,13.38,0,0,1,6.07,4A18.2,18.2,0,0,1,585.84,743.54Zm-11.12-8.32c-1.78,5.73-3.66,11.43-5.56,17.12-2.35-5.41-4.77-10.79-7.29-16.06l.71-.4a1.43,1.43,0,0,0,1.18.34C567.63,735.52,571.29,734.81,574.71,735.22Zm-.7-7.87c-13.32,6.69-29.66,7.67-44.25,6.43-15-1.28-30.23-6.09-41.89-16.09A57.57,57.57,0,0,1,475,702.06c-3.25-5.85-4.79-11.95-6.39-18.29,21.32,6.92,44.57,8.86,66.76,10.48,11.33.83,22.71,1.63,34.07,2,9.53.31,18.87-.28,27.76-3.83A42.63,42.63,0,0,1,574,727.35Zm24.19-37.89a1.33,1.33,0,0,0-.92.06c-10,4.32-20.84,4.39-31.52,3.89s-21.6-1.14-32.38-1.93a483.35,483.35,0,0,1-63.19-9.32.56.56,0,0,0-.44-.74A4.59,4.59,0,0,1,466,677c.14-2.3,2.07-2.61,3.31-4,20.6-.5,41.4,3.94,61.74,6.59,21.3,2.78,42.73,4.72,64.19,2.83a1.34,1.34,0,0,0,.9-.44,1.2,1.2,0,0,0,.26-.08c1.42-.69,2.24,1.54,2.4,2.58A9.56,9.56,0,0,1,598.2,689.47Zm2.65-7.92s0-.1-.07-.15a5.35,5.35,0,0,0-1.88-1.8.68.68,0,0,0,.5-.52c3.39-15.8,9.45-30,20.2-42.14a13.9,13.9,0,0,0,4,1.53C612.12,649.52,603.31,665.59,600.85,681.54Zm26.8-46.15c-2.26,1.54-5.61.68-8.12-.38a.93.93,0,0,0-.47-1.32,8.14,8.14,0,0,0-1.07-.33,7.25,7.25,0,0,1,3.45-6.23c2.4-1.32,5.93-.74,7.44,1.7A5,5,0,0,1,627.65,635.39Z"/></g><g class="cls-2"><path class="cls-3" d="M783.63,103.18c-2.83-3.9-7.52-4.86-12-5.1,12.59-15,14.69-42.32-2.15-55.11-9-6.8-22.1-4.24-30.86,1.6A34,34,0,0,0,724,65.31c-2.25-5.31-8-9-13.74-7.62a.67.67,0,0,0-.39.25,1.25,1.25,0,0,0-1.07-.4A9.45,9.45,0,0,0,707,58c-5.18-5.47-10.12-15.9-2.21-21.49,3.2-2.26,8.29-2.06,10.3,1.71s-.55,6.93-3.87,8.53c-.93.45-.4,1.82.5,1.86,4.24.19,6.9-4.72,6.6-8.59-.39-4.87-5-7.72-9.49-7.52-5.46.24-9.34,4.72-10.24,10-1.1,6.43,2.16,12.13,6.66,16.34a13.46,13.46,0,0,0-5.35,6.29c-5.3-6.73-17.08-11.1-23.59-3.41-2.22,2.63-2.68,6.76-.24,9.45,3,3.3,7.47,1.37,10-1.39.72-.78-.2-2.08-1.14-1.51s-2.71,2-3.69,2l-4.1-2.3.46-3.56c1.44-2.91,5.65-4,8.54-4.08,5.05-.06,9.48,2.6,13,6.1a.63.63,0,0,0,.23.15,13.06,13.06,0,0,0-.51,5.92,13.53,13.53,0,0,0,7.08,9.61c-19.37,1.14-35.7,21.52-27,41.15,4,9,13.61,15.52,23.46,15.07,10.48-.47,18.66-8,25.58-15.39.55,6,.27,14.85,7.67,15.5,7.75.68,10.07-8.4,10.62-14.44,3.8,2.78,7.7,4.28,10.45,1.8,2.48-2.25,1.66-7.14.82-9.91a20.83,20.83,0,0,0-.78-2.1c8,4.07,20.91,7.4,27-.39C786.18,110.28,785.88,106.28,783.63,103.18Zm-50.22,4.68c-1-1.14-2-2.28-3-3.45-1.64-2-3.2-4-4.72-6a1,1,0,0,0,.09-.32c.52-5.14,4.79-8,9.61-7.56a.64.64,0,0,0,.71-.38c2,2.15,4,4.38,5.88,6.72l.89,1.1C737.65,97.5,733.09,102.66,733.4,107.85Zm10.43-7.94a.78.78,0,0,0,.52-.18c2.48,3.11,4.92,6.28,7.15,9.56.17.25.38.58.62,1a9.54,9.54,0,0,0-6.05,1.57c-1.41.91-4,3.22-3.9,5.26-.72-.77-1.4-1.5-2-2.11q-2.9-2.86-5.64-5.89a.57.57,0,0,0,.26-.51C734.55,103.38,739,99.73,743.83,99.91ZM724.3,96.44c-2-2.78-3.9-5.62-5.79-8.48A7.3,7.3,0,0,1,721.74,83c2-1.38,3.7-1,5.95-1h0c2.4,2.1,4.71,4.28,6.93,6.56C730,87.43,724.79,91.69,724.3,96.44Zm-3.86-14.71a7.56,7.56,0,0,0-2.87,4.81l-2.24-3.4a13.6,13.6,0,0,0,7.23-5.46c.93.73,1.83,1.47,2.73,2.22A8.57,8.57,0,0,0,720.43,81.73Zm-19-10.43c-.5-5.8,3.44-9.43,8.17-11.67a1,1,0,0,0,.54-.57.77.77,0,0,0,.25.08c5.61.74,11.52,4.3,11.68,10.73.15,5.81-4.93,11.17-10.68,10.91A10.82,10.82,0,0,1,701.46,71.29Zm42.35,52.29c-.37,3-.55,6.39-2.27,9-2.63,3.93-8.39,4.07-10.16-.85-1.33-3.7-.69-8-1.4-11.85a1.22,1.22,0,0,0-2-.55c-6.34,6.74-13.4,14.41-22.85,16.16s-19.08-3.68-23.41-12.14-2.91-19.48,2.58-27.18c5.91-8.29,15.65-12,25.38-12.74a12,12,0,0,0,3.88.13c5.34,10.78,13.1,20.58,21.27,29.25a104.26,104.26,0,0,0,9.69,9.81A1.31,1.31,0,0,0,743.8,123.59Zm6.74,0c-2.36-.47-4.8-2.69-7-4.94a1,1,0,0,0,.64-1.13c-.34-1.83,3-3.9,4.27-4.42,1.68-.67,3.24-.26,4.9-.52C755.94,117.43,758.65,125.14,750.54,123.54Zm24.67-8.47c-6.81,1.12-14-1.1-19.81-4.54a1.1,1.1,0,0,0-.4-.14,91.56,91.56,0,0,0-5.84-8.1c-7.36-9.68-15.32-19.73-25.5-26.52a13,13,0,0,0,1.21-7.21c0-.15-.06-.3-.08-.45a36.59,36.59,0,0,1,14.31-21.18c8.71-6,22.42-8.76,30.72-.53,13.92,13.82,11.16,38.74-1.87,52a1.28,1.28,0,0,0,.88,2.16c4,0,8.87.05,12,3.13C786,108.85,780.48,114.2,775.21,115.06Z"/><path class="cls-3" d="M707.27,69.13a3.09,3.09,0,0,0-3.15,1.58c-1.08,2.16,2,4.35,3.26,2.16a.49.49,0,0,0-.76-.59c-.2.21-.6,0-.78-.19-.33-.43.2-.88.59-1,1.3-.47,2.06,1.14,3.25,1.1a.7.7,0,0,0,.69-.7C710.23,70.12,708.47,69.27,707.27,69.13Z"/><path class="cls-3" d="M710.65,65.2c-1.78,1.75-.73,5.3,1.84,5.35.69,0,.7-.89.15-1.12-.94-.4-1.5-2.7-.18-3a1.6,1.6,0,0,1,1.59,1c.25.64,0,1.72,1.05,1.68a1,1,0,0,0,.93-.72C716.87,65.55,712.72,63.16,710.65,65.2Z"/><path class="cls-3" d="M702.64,102.46c-3.31-3.33-10-3.45-12.74.68a.8.8,0,0,0,0,.77,8.56,8.56,0,0,0-.26,10.22,8.93,8.93,0,0,0,12.71,1.33A9.29,9.29,0,0,0,702.64,102.46Zm-1.82,11.06a6.68,6.68,0,0,1-9.6-.85c-1.86-2.45-1.54-5.82,0-8.34,2.72-2,6.09-3.16,9.12-.91S703.54,110.9,700.82,113.51Z"/><path class="cls-3" d="M756,55.27c-10.52-2.54-14.49,17.3-3.6,18.42,5.29.55,10.66-4.19,11.3-9.45A7.91,7.91,0,0,0,756,55.27Zm4.57,10.94c-1.58,3.14-6.12,6.48-9.65,4.48-5.67-3.21-2.3-12.16,2.94-14.07a1.13,1.13,0,0,0,1.29.88C760,56.68,762.55,62.3,760.57,66.22Z"/><path class="cls-3" d="M775.14,106.78c-.64-1.56-3.07-3.37-4.77-2.54a.47.47,0,0,0-.45,0,4.37,4.37,0,0,0-2.55,5.07,4.08,4.08,0,1,0,7.77-2.49ZM771.69,110c-2.47.62-3.2-2.39-2-4a.74.74,0,0,0,.38.13c1.24.08,2.61.11,3.14,1.53A1.87,1.87,0,0,1,771.69,110Z"/><path class="cls-3" d="M739.08,125.5c-.69-1.43-3.41-3.17-4.73-1.56a.84.84,0,0,0-.12.21,3.49,3.49,0,0,0-1.38,4.38,3.25,3.25,0,0,0,4.54,1.5A3.41,3.41,0,0,0,739.08,125.5Zm-2.5,2.71c-1.85,1-3.08-1.74-1.76-3,.91.13,1.75-.09,2.39.83A1.42,1.42,0,0,1,736.58,128.21Z"/></g><g class="cls-2"><path class="cls-3" d="M775.48,765.66a38.75,38.75,0,0,0,2.06-8.57c1.25-10-1-19.33-5.18-27.86,4.9,1.62,11.12-1.49,14.29-5.18a14.65,14.65,0,0,0,.64-18c-7.88-11.39-24.24-6.87-27,5.53-1.71-1.94-3.48-3.82-5.29-5.62,16.68-9.77,26.1-28.92,25.78-48.9a55.17,55.17,0,0,0-8.62-28.76c5.9.61,12.89-7.14,15-12.08a17.51,17.51,0,0,0-5-19.65c-12.35-10.23-28.95-.58-32.2,13.48a41,41,0,0,0-14.35-2.43l-.26,0c-.5-4.33-3-8.41-7.21-9.92a9.86,9.86,0,0,0-11,3.21c-2.66-6.73-8.77-13.8-16.1-8.07-5.44,4.26-4.41,11-.23,15.07a46.18,46.18,0,0,0-20.49,4.2s0,0,0-.07c-2.77-13.24-18.43-20.35-29-10.67a16.26,16.26,0,0,0-4.44,16.73c2,6.54,7.21,10,13.56,11.15a45.86,45.86,0,0,0-5.75,12.89c-5.93,21.85,3.7,44.18,21,57.67a63.8,63.8,0,0,0,11,6.89q-1.76,2.39-3.44,4.93c-5.83-10-20.67-9.94-25.21,1.27-4.05,10,4.83,21.77,15.42,18.64a48.2,48.2,0,0,0-2,22.71,39.51,39.51,0,0,0,4.74,13.09c-12.07-2.32-19.21,13-11.69,22.27,7.69,9.44,24.79,5.93,26.89-6.38a52.92,52.92,0,0,0,9.33,4.91c18,7.26,44.45,6.67,61.25-5.1,4,10.72,19,13.18,25.16,2.51C792,776.93,784.89,764.56,775.48,765.66ZM785,708.19a11.44,11.44,0,0,1-1.51,14.59c-3.73,3.64-7.63,3.31-12.37,3.41a1.17,1.17,0,0,0-.35.07A82.77,82.77,0,0,0,762,713.58C764.5,702.9,778.36,697.59,785,708.19ZM777.3,596.82a14.71,14.71,0,0,1,8.07,14.36c-.45,6-7.46,14.18-13.66,14.74a1.18,1.18,0,0,0-.85.5,49.37,49.37,0,0,0-3.19-4c2.7-.38,5.13-2.95,6.18-5.31a8,8,0,0,0-1.89-9.5,9.15,9.15,0,0,0-9.25-1.37c-3.26,1.4-4.56,4.48-4.81,7.77a41.35,41.35,0,0,0-6.27-3.28C755.13,600.08,766,591.25,777.3,596.82Zm-11.51,23.26a1.11,1.11,0,0,0-.19.1,44.8,44.8,0,0,0-6.17-5.19c.52-2.42,1.42-5.09,3.65-6.28a6.83,6.83,0,0,1,6.63.3,5.34,5.34,0,0,1,2,6.6C770.57,618.56,768.45,619.17,765.79,620.08ZM649.2,617.44A13.86,13.86,0,0,1,653,603.19c9.29-8.43,22.48-1.93,24.86,9.51a1.2,1.2,0,0,0,.2.46c-1.16.6-2.27,1.27-3.38,2-2.43-4.24-9.54-7.29-13.67-4.07-5.13,4-.29,10,3.61,12.57a46.22,46.22,0,0,0-3.42,4.33C655.79,626,651,623.45,649.2,617.44Zm23.59-1a46.92,46.92,0,0,0-7.16,6.19c-2.44-2.36-7.56-8.27-1.91-10.21C667.41,611.11,670.32,614.11,672.79,616.39Zm10.75,85.71c-17.15-10.2-29.29-29-28-49.61.74-11.56,5.58-22.92,14.2-30.65,9.33-8.36,21.14-11.08,33.18-11.93-3.69,2.65-3.32,8.49,1,11.18,4.8,3,11.59-.06,11.53-6a.64.64,0,0,0-1.29,0q-1.27,4.88-5.87,5-7.51-.34-2.44-9.41a1,1,0,0,0,0-1.94l-.2-.07a.8.8,0,0,0-.67-.49l-.6-.06c-6-3.21-7.65-12.85.51-14.73,6.39-1.47,9.3,5.22,10.73,10.34a1.12,1.12,0,0,0,2,.27,7.44,7.44,0,0,1,10.61-3.45c3.75,2.17,4.86,6.08,4.55,10.26-.12,1.59,2.24,1.54,2.42,0,0-.22,0-.44.05-.66l.19,0c22.95-.12,39.9,19.46,42.19,41.7,2.2,21.35-7.67,44.67-27.7,53.61C729.53,714.67,702.88,713.62,683.54,702.11ZM740.08,712c9.48,11,13.8,26.19,10.68,40.58-3.2,14.8-15.43,22.74-30,21.61S694,763.58,691.14,748.72c-2.43-12.8-.69-27.58,8.55-37.13a81.65,81.65,0,0,0,40.22.17A1.67,1.67,0,0,0,740.08,712Zm-79.27,2.35c3.51-9,15.08-9.07,19.7-1a1.42,1.42,0,0,0,1.07.75A81.34,81.34,0,0,0,674,729.65h-.08C665.6,730.11,657.26,723.47,660.81,714.37Zm20.94,76.21a11.52,11.52,0,0,1-13.73-1.7c-8.17-7.65-1.69-19.52,8.51-19.89a.71.71,0,0,0,.43-.17,47.28,47.28,0,0,0,11.75,12.63C687.08,785.15,685.45,788.46,681.75,790.57Zm70.74-5.95c-25.64,11.21-66.13,4.87-76.63-24.9-6.54-18.56,3.62-36.4,12.16-52.32a70.1,70.1,0,0,0,9.82,3.68c-11.32,7.24-11.69,26.74-9.49,38.41,3,15.9,16.05,26.18,31.65,27.65,15.41,1.46,29.14-6.62,33.24-22.13S753,723,743,710.94c.88-.25,1.76-.51,2.62-.79a48,48,0,0,0,6.7-2.77,1.55,1.55,0,0,0,.31.45c11.07,11.19,21,24.88,21.92,41.28C775.46,765.19,766.89,778.33,752.5,784.63Zm31.74-.7c-5.27,9-16.49,5.75-20.41-2.35A36.28,36.28,0,0,0,774.08,769C781.79,769.13,789.09,775.58,784.24,783.92Z"/><path class="cls-3" d="M749,685.81c-1.58,1.54-4.52,1.67-5.55-.62-.29-.64-1.2-.17-1.07.46a4,4,0,0,0,1.51,2.35c-2.5,5.89-6.55,11-13.54,10.81-5.92-.17-10.39-5-12-10.47a14.23,14.23,0,0,0-.26-4.94c4.54-1.46,6.66-8.26,7.05-12.5a1.4,1.4,0,0,0-1.38-1.4l-13.1-.1a1.44,1.44,0,0,0-1.4,1.42c-.49,4.84,1.9,9.78,6.46,11.64a.7.7,0,0,0,.29.05c1.13,6.62-2.35,14.3-9.12,16.14-7.54,2-14.27-4.3-15.59-11.45a2.68,2.68,0,0,0,2-2.3.87.87,0,0,0-1.08-.84c-1,.26-1.61,1.09-2.61,1.32a3.79,3.79,0,0,1-3.19-.7c-.51-.46-1.48.17-1,.79a4.75,4.75,0,0,0,3.82,2.08c.48,8.44,8.66,15.52,17.11,14.05a14.9,14.9,0,0,0,11.07-9.45,14.76,14.76,0,0,0,11.31,9.32c7.6,1.23,16.44-4.56,17.31-12.55a3.9,3.9,0,0,0,4.46-2.23C750.91,685.81,749.63,685.23,749,685.81Zm-31.85-4.49a.81.81,0,0,0-.33-.06.71.71,0,0,0-.2-.31c-2.71-2.33-4.5-5.19-4.59-8.71l10.16,0a15.53,15.53,0,0,1-1.89,5C719.45,678.74,718.1,679.88,717.19,681.32Z"/><path class="cls-3" d="M704,684.39a2.09,2.09,0,0,0-3.42-.45c-.84,1-.9,3.37.84,3.4a.73.73,0,0,0,.23-.05,1.49,1.49,0,0,0,.77.27C704,687.63,704.68,685.67,704,684.39Z"/><path class="cls-3" d="M700.56,689.12c-1.22-.73-2.56.5-2.57,1.77a1.52,1.52,0,0,0,.05.29c-.12.85.67,2,1.69,1.59C701,692.32,702,690,700.56,689.12Z"/><path class="cls-3" d="M708.86,689.36a1.58,1.58,0,0,0-2.11-.41,2.06,2.06,0,0,0-.6.56,3.71,3.71,0,0,0-1,.83,1.44,1.44,0,0,0,.23,2.15,2.32,2.32,0,0,0,3.74-1A2.51,2.51,0,0,0,708.86,689.36Z"/><path class="cls-3" d="M733.94,683.22a3.21,3.21,0,0,0-1.84-.24c0-.12,0-.24-.06-.36-.12-.78-1.22-.52-1.28.18,0,.27-.05.53-.08.8a2.18,2.18,0,0,0-.88,2.2.89.89,0,0,0,1.16.59.86.86,0,0,0,.29.13,2.67,2.67,0,0,0,3.2-2.06A1.13,1.13,0,0,0,733.94,683.22Z"/><path class="cls-3" d="M727.69,688.95a2.36,2.36,0,0,0-1.79.9.84.84,0,0,0-.84.72c-.26,2.18,3.12,2.56,4.07,1A1.68,1.68,0,0,0,727.69,688.95Z"/><path class="cls-3" d="M736.35,690.37a1.42,1.42,0,0,0-1.7-.82,2,2,0,0,0-1.3,2.78,1,1,0,0,0,.68.48,1.54,1.54,0,0,0,.19.26,1.46,1.46,0,0,0,2.48-.93A3,3,0,0,0,736.35,690.37Z"/><path class="cls-3" d="M702.52,660.83a6.75,6.75,0,0,0-5.78-3.38c-4.59.13-7.51,5.78-5.14,9.69.56.93,2.19.33,1.79-.77-.88-2.46.61-6.18,3.59-6.08a4,4,0,0,1,3.29,2.44c.55,1.21.08,2.43.64,3.6a1.12,1.12,0,0,0,1.53.41C704.32,665.46,703.53,662.49,702.52,660.83Z"/><path class="cls-3" d="M741.29,660.12c-4.16-1.28-8,2.62-7.42,6.76.17,1.25,2.09.9,2.11-.29.06-2.41,2.67-5,5.05-3.53a3.73,3.73,0,0,1,1.64,2.41c.2,1-.21,1.85,0,2.84a1.23,1.23,0,0,0,1.81.75C747.7,666.57,744.33,661.05,741.29,660.12Z"/></g><g class="cls-2"><path class="cls-3" d="M420.63,73.48c13.88-8,23.77-27.36,18.12-43.2a18.66,18.66,0,0,0-14.83-12.53c-5.5-.77-12.76,1.55-13.49,7.92a.58.58,0,0,0,0,.21c-2.53-6.84-7.61-12.24-15.6-13.93C382,9.22,370.42,17.37,365.4,29.13c-5.87,13.76-2.47,29.19,4.12,42l-3.21,1.22a1.35,1.35,0,0,0-.71.62,22.52,22.52,0,0,0-14-8.4c-2-5.31,1.5-11.88,7-13a38.52,38.52,0,0,0,1.25,3.68.65.65,0,0,0,1.26-.35,46.13,46.13,0,0,0-1-4.61.91.91,0,0,0-.87-.67c-7,.59-11.61,8.26-9.35,14.77a18.53,18.53,0,0,0-5.83.57c1.36-5.11.12-11.34-4.69-14.11a5.44,5.44,0,0,0-6.39.33c-1.62,1.39-2.3,3.73-.86,5.42a.73.73,0,0,0,1.24-.52c0-2.29,1.44-4.39,4-3.69,1.82.5,3.31,2.43,4.11,4.05a13,13,0,0,1,.83,9.09A21.09,21.09,0,0,0,329,82.94c-1.22,11.09,7.7,21.32,18.53,22.26A18.62,18.62,0,0,0,360.87,101c10.78,10.36,26.24,17.81,41.22,17a33.09,33.09,0,0,0,9.55-2,.51.51,0,0,0,.3-.11c8.41-3.17,15.57-9.73,17.57-19S427.23,79.33,420.63,73.48ZM411.7,25.84c2.2-8,13.47-6.36,18.45-3,5.83,3.94,7.9,11.36,7.5,18.16-.75,12.64-8.09,24.84-19.13,30.78a33.18,33.18,0,0,0-5-3.09,35.08,35.08,0,0,0-13.94-3.6C410.79,57.18,415.23,39,410.47,26A.68.68,0,0,0,411.7,25.84Zm-45.24,8c3.4-11.41,13-20.8,25.28-19.82,25.11,2,22.18,41.83,3.12,51-8,.39-16.18,2.76-23.77,5.51C366.36,59,362.75,46.31,366.47,33.85Zm-6.3,64.57a.73.73,0,0,0-1,.8,16.16,16.16,0,0,1-12.76,3.37c-8.48-1.48-15.48-9.31-15.1-18.2.39-9.06,7.65-17.18,16.7-17.61,9.74-.46,21.09,8.15,18.42,19a.62.62,0,0,0,.11.57A19.51,19.51,0,0,1,360.17,98.41Zm32.95,16.42c.5-.4-.14-1.12-.65-.85l-.43.22a.57.57,0,0,0-.28.43c-10.83-2.08-21.08-7.82-29.65-14.69a21.94,21.94,0,0,0,6.8-14.11.94.94,0,0,0-.76-1.07A12.92,12.92,0,0,0,366.91,75l.12,0c3.52-1.36,7.18-2.73,10.93-3.92,5,12.18,4.41,24.84-4.74,35-.7.77.39,1.89,1.14,1.16,9.13-8.95,12.53-25.41,5.24-36.63a69.64,69.64,0,0,1,12.31-2.62,1,1,0,0,0,1.08.32c.21-.06.4-.14.61-.2l0,0a33.88,33.88,0,0,1,8.56,23.82,35.29,35.29,0,0,1-2.95,13.16C397.91,108,395.47,113,393.12,114.83Zm18.61-1.66a32.53,32.53,0,0,1-13.26,2.26c-1.23-.05-2.46-.17-3.68-.33,2.08-1.54,3.88-4.89,4.82-6.55a36.51,36.51,0,0,0-4-40.88,36.75,36.75,0,0,1,12.18,1.54,29.87,29.87,0,0,1,4.07,1.61.73.73,0,0,0,0,.4c1.59,7.26,4.12,13.55,4.1,21.2A54.44,54.44,0,0,1,411.73,113.18ZM427,96.27c-1.57,7.54-6.83,12.94-13.32,16.06a51.21,51.21,0,0,0,4.27-19c.16-6.8-.62-15.37-4.11-21.44a31.85,31.85,0,0,1,3,1.93,1.38,1.38,0,0,0,1.17.91C424.41,79.91,428.77,87.68,427,96.27Z"/><path class="cls-3" d="M339.81,79.92c-2.68,1.24-3.34,6.13-.1,7.09.93.28,1.24-1.08.39-1.43-1.63-.68-.6-3.54.75-3.94A2.85,2.85,0,0,1,343.71,83a8.62,8.62,0,0,1,1.06,3.35.59.59,0,0,0,1.07.14C347.54,83.15,343.28,78.32,339.81,79.92Z"/><path class="cls-3" d="M358.49,80a4.77,4.77,0,0,0-4.43-2.58c-3.14.34-5.12,4.93-2.14,6.77a.48.48,0,0,0,.57-.75c-1.58-1.45.42-4.54,2.3-4.22a3.6,3.6,0,0,1,2.53,2.49c.38,1.08,0,2.35.46,3.32a.71.71,0,0,0,1.1.14C360.15,84.11,359.19,81.23,358.49,80Z"/></g><path class="cls-4" d="M406.86,703.31a11.85,11.85,0,0,0,3.81-12.89,12.18,12.18,0,0,0-11.81-7.71,10.63,10.63,0,0,0,0-12.47,10.79,10.79,0,0,0-12.61-3.13c1.94-3.92,1.22-9.16-2.41-11.91a9.75,9.75,0,0,0-10.13-.6,7.84,7.84,0,0,0-4.73-8.44c3.91-3.47,5.8-10.14,1.68-14.25-4.35-4.34-11.45-2.18-15.84.89a23.45,23.45,0,0,0-8.42,10.82,29.1,29.1,0,0,0-6.35-14.3c-3.92-4.46-11.05-7.28-15.35-1.72-3.56,4.6-2.13,10.76,1.23,15a23.29,23.29,0,0,0,2.75,2.87,2.46,2.46,0,0,0-1.59.48,7.07,7.07,0,0,0-1.62,3.87,9.82,9.82,0,0,0,.08,3.26c-3.49-2.7-8.19-3.89-11.54-.19a8.43,8.43,0,0,0-2,6.76c0,.2.07.4.12.61-3.5-1-7.43-.35-9.58,2.81a9.44,9.44,0,0,0-1.11,7.07c-4.68-.07-9.39,2-10.82,6.95a11.32,11.32,0,0,0,1.49,8.38c-4.77,0-9.75,1.26-11.08,6.55-1.18,4.69,2.37,9.5,6.67,9.82-4.78.49-9.08,3.34-9.6,8.92-.44,4.74,3.41,9,7.74,8.91-4.79,2.07-7.94,7.91-5.92,13.13a12,12,0,0,0,10.5,6.94c-3.53,3.81-4.2,10.15-.65,14.42,2.77,3.33,8.72,4.7,13,3a9.66,9.66,0,0,0,3.53,12.7c4.95,3,10.3,1.41,13.84-2.31a10.8,10.8,0,0,0,7.06,9.7c5,1.69,10.91-1.32,13.25-6,1.51,4.71,6,8.36,11.19,7.78,5.46-.6,9.24-5.73,9.44-11,2.07,5.37,8.56,8.78,14.05,6.31,4.45-2,6.56-7.13,5.91-11.78a11,11,0,0,0,11.76-1c5.17-4.23,4.79-12.12,1-17.15a11,11,0,0,0,14.13-5.66c1.76-3.9.73-9.7-2.19-13.38a11.49,11.49,0,0,0,7.83-7.36C415.69,712.49,412.12,705.41,406.86,703.31Zm1.25-12.52c2,4.4,0,9.28-3.58,11.94a8.17,8.17,0,0,0-3.58.45c0-.32-.07-.63-.11-1a56.72,56.72,0,0,0-5-16.4C400.51,684.26,406,686,408.11,690.79ZM397,671.69c2.58,3.33,2.08,8.12-.42,11.29a11,11,0,0,0-1.86.58h0a63.27,63.27,0,0,0-9.39-13.27C389,667.91,394.15,668,397,671.69Zm-14.44-14.58c3.44,2.66,3.56,8,.88,11.25A68.56,68.56,0,0,0,372,659.12C374.59,656,379.06,654.38,382.59,657.11Zm-12.19-.29a.87.87,0,0,0-.16,1.06l-.06.09a67.22,67.22,0,0,0-14.77-6.62,28.71,28.71,0,0,0,11.18-3.47,1.13,1.13,0,0,0,.69.29C371.2,648.39,373,654.08,370.39,656.83Zm-3.65-24.4c5,1.9,4.27,7.69,1.46,10.84-1.84,2.07-4.52,3.14-7.08,3.9a52.06,52.06,0,0,1-13,1.8,25.3,25.3,0,0,1,6.37-4.83c2.24-1.16,4.74-1.45,6.95-2.55.83-.42.33-1.53-.43-1.61-5.09-.53-11,4.21-14,8a.8.8,0,0,0,0,1h-.23q0-.69,0-1.38C349.66,639.88,357.76,629,366.74,632.42ZM346,652.57h.17a1.1,1.1,0,0,0,.85.68c11.93,2.45,19,13.74,21.81,25.05,3.17,12.8.18,27.54-15.2,28.3-5.69.28-12.1-.89-16.89-4.18-6.75-4.63-7.81-12.76-6.93-20.4,1.36-11.74,7.36-21.35,15.55-29.27A1.28,1.28,0,0,0,346,652.57Zm-20.1-21.17c1.64-4.39,6.65-4.67,10-2.14a17.23,17.23,0,0,1,5,6.43,32.57,32.57,0,0,1,3,11.91,25.06,25.06,0,0,0-3.82-4c-1.66-1.4-3.79-3.15-6-3.5-.79-.13-1.61.85-.87,1.52,1.55,1.39,3.6,2.21,5.27,3.48a31.5,31.5,0,0,1,4.73,4.67C334.71,647.32,322.37,640.9,325.91,631.39Zm2.3,17c.35-1,1.44-1.25,2.51-1.35a29.91,29.91,0,0,0,10.18,4.64,76.35,76.35,0,0,0-11.56,3.94A8.89,8.89,0,0,1,327.8,651,8.06,8.06,0,0,1,328.21,648.4Zm-11.91,6c3.14-2.9,7.85-.68,10.69,1.95.06.09.12.18.19.27a75.11,75.11,0,0,0-10.3,5.88h0c-1-1.15-2-1.88-2.18-3.54A5.64,5.64,0,0,1,316.3,654.4Zm-11.52,9.78c2.21-2.89,5.69-2.63,8.72-1.41a3.56,3.56,0,0,0,1.48,1.07,70.32,70.32,0,0,0-8.39,7.21,14.46,14.46,0,0,0-2.11-.61A5.43,5.43,0,0,1,304.78,664.18ZM293.42,676.9c1.54-3.44,5.24-4.85,8.88-4.93a4.39,4.39,0,0,0,1.8,1.68,63.48,63.48,0,0,0-8.35,11.76,5.64,5.64,0,0,1-1.95-2.13A7.29,7.29,0,0,1,293.42,676.9Zm-8.75,20.69A5.81,5.81,0,0,1,285,690c2-2.15,5.33-2.82,8.39-3a6.79,6.79,0,0,0,1.1.93c-.48,1-.94,1.95-1.36,2.95a54.72,54.72,0,0,0-2.85,8.73A6.82,6.82,0,0,1,284.67,697.59Zm-3.48,11.25c1.37-3.51,4.81-5.34,8.36-5.77a59.45,59.45,0,0,0-.76,13.64,1.15,1.15,0,0,0-.4.1C283.27,719.09,279.35,713.55,281.19,708.84Zm1.19,23.56c-2.56-5.32,1.63-10.94,6.71-12.22a56.18,56.18,0,0,0,4.53,16.53C289.22,737.33,284.7,737.21,282.39,732.4Zm17,23A9.09,9.09,0,0,1,292,753c-3.75-3.81-2.59-10.34,1-13.85a6.35,6.35,0,0,0,1.41-.77,47.41,47.41,0,0,0,9.47,13c.42.4.85.79,1.28,1.17C303.4,754,301.85,755.17,299.43,755.44Zm9.73,13.26a7.84,7.84,0,0,1-1.91-13.91.68.68,0,0,0,.22-.26,51.9,51.9,0,0,0,13.7,7.51C319.26,766.91,314.49,770.46,309.16,768.7Zm17.9,5.85c-3.37-1.71-5.15-5.72-4.91-9.48a14.66,14.66,0,0,0,1.14-2.29,66.81,66.81,0,0,0,16.29,3.15C338.78,771.74,333.25,777.69,327.06,774.55Zm-17.21-21.7c-15.06-11.12-20.78-31.69-17.45-49.87a.5.5,0,0,0,.17-.86c.34-1.7.75-3.38,1.25-5a54.22,54.22,0,0,1,3.31-8.33,5.34,5.34,0,0,0,1.8-.25,1,1,0,0,0,0-1.85l-.6-.17c9.08-16.37,25.95-27.33,43.63-32.88-9.18,8.12-14.64,20.9-14.62,33.11,0,16.11,14,23.75,28.68,22,14-1.63,17.94-15.14,15.91-27.61-1.6-9.77-6.35-20-14.22-25.93,17.67,6.48,32.64,20.64,38.36,39.11,6.17,19.91-.37,42.92-15.91,56.58C362,766.9,329.11,767.07,309.85,752.85Zm42.26,23.75c-5.72,1.37-10.66-4.38-10.46-9.8a.79.79,0,0,0-.07-.37c0-.14,0-.27,0-.41a68.11,68.11,0,0,0,16.89-1.39,1.26,1.26,0,0,0,0,.55C359.78,770,357,775.42,352.11,776.6Zm22-4.63c-5.3,2.45-11.27-2-12.1-7.44-.1-.66-.95-.67-1.3-.24a1.57,1.57,0,0,0-.08-.15,52.75,52.75,0,0,0,14.46-5.87c.46-.28.9-.56,1.35-.85a1.25,1.25,0,0,0,.29.93C380,762.45,379.09,769.65,374.08,772Zm17.34-12.46c-3.1,2.84-7.89,2.6-11,.19a9.82,9.82,0,0,0-2-3,1.28,1.28,0,0,0-.41-.29A52.73,52.73,0,0,0,390.33,744C394.38,747.95,396.1,755.23,391.42,759.51Zm14.55-23a9,9,0,0,1-12.56,5.65.81.81,0,0,0-1.13.35c-.19-.17-.38-.36-.59-.52a59.57,59.57,0,0,0,8-18.43c1.68,1.75,3.72,2.89,5,5.06A10.4,10.4,0,0,1,406,736.51Zm3.64-16.32a15.46,15.46,0,0,1-5.16,3.61A8.1,8.1,0,0,0,401,722a.51.51,0,0,0-.39-.08l-.32-.07a.75.75,0,0,0-.2,0,57.17,57.17,0,0,0,1.15-16.1.77.77,0,0,0,.57.09,11.19,11.19,0,0,0,1.09-.3c4.38.78,8.65,2.9,8.9,8.24A9.71,9.71,0,0,1,409.61,720.18Z"/><g class="cls-2"><path class="cls-3" d="M293.52,190.26h0Z"/><path class="cls-3" d="M293.49,190.19h0Z"/><path class="cls-3" d="M373.1,211.35a67,67,0,0,0-27.41-26.44,12.69,12.69,0,0,0,8.42-1.93c3.25-2.25,5.41-6.6,3.86-10.52-4.39-11.09-23.88-5.68-32.3-3.37-2.14-15.93-8.59-31.45-16.42-45.29s-17.81-28.22-29.32-39.39c-4.28-4.15-9.85-7.68-16-6.06-4.57,1.21-8.23,5-7.9,10,.24,3.6,2.56,6.76,4.43,9.65q3.71,5.72,7.62,11.31c5.26,7.56,10.72,15,16.49,22.17,1.17,1.46,3.13-.61,2-2.05-8.82-11.49-18.4-23.23-25.5-35.95-2.73-4.9-2.57-10.6,3.62-12.19,3.52-.9,6.88.42,9.75,2.43,5.46,3.83,9.82,10,14,15.12,17.19,21.4,29.1,45,35.3,71.85a.91.91,0,0,0,.27.46,1.38,1.38,0,0,0,1.74,1c7.42-2,15.69-4.53,23.4-2.6,4.87,1.22,8.67,6.24,4.15,10.46-4,3.75-10.23,2.22-15,1.23a1,1,0,0,0-1,1.76,1.63,1.63,0,0,0,1,1.84,64.51,64.51,0,0,1,34.33,32.32,22.8,22.8,0,0,1,1.76,4.9,13.43,13.43,0,0,1,.33,3.58q.31,3.79-3.49,3.66c-3.9,1.25-5.43-.37-8.54-2.53a41.09,41.09,0,0,0-4.15-2.72c-4.34-2.3-9.83-3.17-13.88.27s-3.35,8.25-.73,12.33c1.6,2.5,5.55,6.15,4.66,9.56-1.78,6.78-10.28.18-13.13-1.88-11.84-8.55-18.89-21.93-25.1-35l.14-.24a1,1,0,0,0-.95-1.46l-.66-1.39c-.4-.84-1.83-.25-1.5.64.25.67.51,1.35.77,2a34.17,34.17,0,0,0-3,6.51c-.85,2.15-2.63,6.12-5.43,6.42-3.82.41-4.38-3.85-4.82-6.22a48.33,48.33,0,0,1,2.23-24.78,1.28,1.28,0,0,0-1.52-1.66v0s-.06-.08-.08-.12A2.49,2.49,0,0,0,297,187.9a.88.88,0,0,0-1.37-1.07c-1.4,1.2-16.18-10.7-18.12-12q-8.34-5.78-16.69-11.56c-11.74-8.1-24.18-15.53-32.08-27.9a60.55,60.55,0,0,1-4.13-7.6c-1.17-2.59-3.74-7.61-3.17-10.7,1.27-6.89,7.78-6.25,12.28-3.33,3.08,2,5.83,4.81,8.53,7.31a239.88,239.88,0,0,1,27.11,29.8c-.18.43-.36.87-.52,1.31-.39,1,1.3,1.77,1.78.76a41.29,41.29,0,0,1,21-20.36c1.54-.67.42-3.44-1.16-2.79a38.44,38.44,0,0,0-19.76,18.15A243.64,243.64,0,0,0,253,127.53c-5.7-5.85-12.06-13.23-19.29-17.19-4.37-2.39-10.77-2.89-13.9,1.86-3.36,5.1-.06,12.23,2.15,17.09,7.46,16.43,21.37,25.63,35.61,35.45,8.35,5.76,16.7,11.54,25.09,17.24,1.73,1.18,6,5.16,9.61,6.64a1.89,1.89,0,0,0-.87,1.62,2.13,2.13,0,0,0,1.09,1.85,2.51,2.51,0,0,0,1.26.28,50.91,50.91,0,0,0-2.41,16.28c.09,4.37.15,11.43,3.57,14.67,2.48,2.36,5.92,1.89,8.52-.12,3.64-2.8,4.2-7.48,5.83-11.54,4.56,11.17,10.61,22,19.27,30.34,4,3.83,20.7,17.59,22.71,5.33,1.17-7.11-7-10.84-6.25-17.33.81-7.3,9.33-5.17,13.55-2.61,3.28,2,6.09,5,9.93,5.83,4.39,1,8.08-1.51,9-5.93C378.67,221.77,375.7,216,373.1,211.35Z"/><path class="cls-3" d="M267.62,154c-8-8.87-16.41-17.4-24.63-26.08-1.79-1.89-11.53-14.26-13.11-4.82-.52,3.1,2,6.61,3.41,9.1a67.5,67.5,0,0,0,7.81,10.88,61.71,61.71,0,0,0,22.42,16.09.76.76,0,0,0,1.46-.31,2.29,2.29,0,0,1,1.8-2.22,1.07,1.07,0,0,0,1-.76,1,1,0,0,0,0-.41A1.24,1.24,0,0,0,267.62,154Zm-4.06,3.51a70.26,70.26,0,0,1-29.12-28.84q-.58-1.08-1.1-2.2.38-5.08,2.12-2.57c1.45.55,3.14,3.3,4.24,4.46l8.47,8.91c5.68,6,11.27,12.06,17.08,17.91A4.17,4.17,0,0,0,263.56,157.49Z"/><path class="cls-3" d="M300.69,124.17a2.2,2.2,0,0,0-.63-.17,1.21,1.21,0,0,0-.11-1.08,222.93,222.93,0,0,0-17.7-25.6c-2.65-3.35-10-15.2-15.84-10.94-6.12,4.47,5.84,15.58,8.29,18.74,3.58,4.63,7.11,9.29,10.76,13.86,2.48,3.1,5,6,8.83,7a.88.88,0,0,0,1,.9l3-.52c.91-.16,1.87-.1,2.52-.83A.85.85,0,0,0,300.69,124.17Zm-20.4-16-6.92-9c-1-1.37-2.11-2.72-3.14-4.1q-3.79-2.35-.65-4.45,1.29-3.2,3.35-.25c5.16,4.49,9.45,11.25,13.44,16.76s7.69,11.32,11.34,17.13a1.47,1.47,0,0,0,.14.18l-2.14.57a.8.8,0,0,0-.47-.42C288.75,122.12,284.41,113.54,280.29,108.17Z"/><path class="cls-3" d="M314.68,159.12c-.56-.45-1.78-.26-1.66.7.33,2.55,1,5.08-1.58,6.82-3.13,2.15-7-1.24-7-4.57,0-.8-1.29-1-1.42-.2a6.56,6.56,0,0,0,.05,2.33l-.51-.12a19,19,0,0,0-.69-8.5,1.25,1.25,0,0,0-1.82-.75c-2.6,1.63-5.15,3.3-7.69,5a.9.9,0,0,0,.39,1.65,1,1,0,0,0,.28.87c2,1.89,5.14,2.42,7.71,3a1.61,1.61,0,0,0,1.55-.5c1.94,1.28,2,5.07.49,6.66-2.55,2.75-6.38.33-8.54-1.57a1.06,1.06,0,0,0-1.64,1.29c1.88,4.42,8.8,5.81,12,2.16a6.57,6.57,0,0,0,1.54-4.66,6,6,0,0,0,5.3.67C314.87,168.24,318.21,161.93,314.68,159.12ZM300,162.07a23.06,23.06,0,0,0-5.22-1.44q2.56-1.37,5.1-2.78A15.39,15.39,0,0,1,300,162.07Z"/><path class="cls-3" d="M287.39,157.53c-1.11-2.57-5.47-4.36-7.7-2.24-1.62,1.54-1.78,4.66.63,5.45,1.06.35,1.82-1.39.77-1.86s-.18-1.84.53-2.12c1.64-.64,3.39,1.58,4.83,2A.84.84,0,0,0,287.39,157.53Z"/><path class="cls-3" d="M304.34,142.68a4.71,4.71,0,0,0-5.06-.83c-2.49,1.31-3.44,5.82-.44,7.14a1,1,0,0,0,1-1.75c-1.19-.72-.35-2.87.78-3.23a2.69,2.69,0,0,1,2.6,1c.73.82.85,2.13,1.68,2.8a.93.93,0,0,0,1.45-.19C307.31,146,305.56,143.69,304.34,142.68Z"/><path class="cls-3" d="M339.44,207.59a6.55,6.55,0,0,0-3-3,1.62,1.62,0,0,0-2.07.38,3.28,3.28,0,0,0-.86,1.67,3.47,3.47,0,0,0,1.34,3.56,1.59,1.59,0,0,0,.58.22,3,3,0,0,0,2.1.39,3,3,0,0,0,1.58-.86A1.89,1.89,0,0,0,339.44,207.59Z"/></g><g class="cls-2"><path class="cls-3" d="M578.59,148.89c-2-4.15-6.23-7.06-9.79-9.72a83.53,83.53,0,0,0-14.09-8.48c-9.48-4.5-20.23-7.82-30.76-7.94a1.47,1.47,0,0,0-1.48-.11c-5.59,2.48-10.31,6.46-16.13,8.7a67.09,67.09,0,0,1-18.59,4.24,71.91,71.91,0,0,1-36.51-7,1.05,1.05,0,0,0-1.34,1.54,18.33,18.33,0,0,0-2.49-.55.85.85,0,0,0-.93,1.17,1.79,1.79,0,0,0-1.73-.09,188,188,0,0,0-26.41,14.86q-5.5,3.73-10.73,7.84c-2,1.55-4.32,3.08-4.79,5.76-1,5.67,5.87,13.75,9.09,17.85A57.71,57.71,0,0,0,429,191.94c-.76,1.84,1.94,3.39,2.89,1.53,4.6-9,11.39-15.91,19.31-21.86a191.22,191.22,0,0,0-14.8,48A232.08,232.08,0,0,0,433.29,245c-.26,3.85-1.35,9-.41,12.67.42,1.66,1,2.28,2.58,2.63a1.73,1.73,0,0,0,.54,0,141.25,141.25,0,0,0,59.24,14.29,102.9,102.9,0,0,0,28.18-3.39c8.56-2.3,19.26-5.9,25.73-12.29a1.2,1.2,0,0,0,.15-1.66,1.34,1.34,0,0,0,.66-1.21c-.23-13.57-3.7-27.79-6.44-41-2.85-13.76-6-27.71-10.79-40.94a47.47,47.47,0,0,1,10.4,4.22c3.53,2,6.26,4.69,9.25,7.25a1,1,0,0,0,1.1,1.13l.22,0,.28.23a1.59,1.59,0,0,0,2.48-.69c6.84-1.58,12.58-6.14,16.61-12C577.45,167.75,582.25,156.59,578.59,148.89Zm-54.06-22.52v0q4.06.61,8,1.43a8.85,8.85,0,0,1,1,3A7.3,7.3,0,0,1,532,136.1a6.92,6.92,0,0,1-7.3,1.89,7.09,7.09,0,0,0-3.55-3.2,1.1,1.1,0,0,0-.18,0A25.63,25.63,0,0,0,524.53,126.38Zm-4.71,10.75.27.27a1,1,0,0,0,.08.15,8.84,8.84,0,0,0,1.16,1.17,6.46,6.46,0,0,1,1.5,3.1,6.88,6.88,0,0,1-1.6,6c-3.13,3.15-8.71,1.68-10.86-1.87-.09-.18-.17-.36-.27-.53a38.25,38.25,0,0,0,9.47-8.66A1.21,1.21,0,0,0,519.82,137.13ZM488.53,139a69.81,69.81,0,0,0,18.73-4.24A62.58,62.58,0,0,0,519.41,129c-3.34,5.43-6.61,10.27-12.36,14.05a35.14,35.14,0,0,1-21.55,5.79,37.72,37.72,0,0,1-22.56-9.49c-2.21-1.94-4.15-3.85-6.22-5.47A64.24,64.24,0,0,0,488.53,139Zm5.93,12.83a43.58,43.58,0,0,0,13.15-4.89c1.09,4.57,1.59,9.36-3.08,12.32s-11.8-.79-10.06-6.92A.82.82,0,0,0,494.46,151.82ZM477.08,151a39.81,39.81,0,0,0,12.33,1.44s0,.06,0,.09c.27,3.85-2.17,7.79-6.3,7.81s-8.41-4.35-6-8.5A.87.87,0,0,0,477.08,151Zm-3.68-1.2,0,.09c-1.25,5-7.57,8.39-12.19,5.5-3.38-2.12-4.5-6.68-3.4-10.44a9.62,9.62,0,0,0,3.71-2.3,1.11,1.11,0,0,0,.16-.23,33.83,33.83,0,0,0,5.77,4.5A39.85,39.85,0,0,0,473.4,149.76Zm-24.83-17.29a.63.63,0,0,0,.33-.51c4.24,1.94,7.69,5.55,11.23,9l-.5.12a.67.67,0,0,0-1.11-.33,9.83,9.83,0,0,0-.87.89c-3.23,1-6.67,2.08-9.45-.57C445.86,138.83,445.52,134.17,448.58,132.47Zm126.85,27.3a36.44,36.44,0,0,1-4.23,10.67,29.57,29.57,0,0,1-15.85,13.26c-5.42-7.52-16.06-11.87-24.82-12.4-1.14-.07-1.4,1.65-.41,2.05a1.33,1.33,0,0,0,0,.68c3.28,13.66,7.15,27.13,10,40.9q2.05,9.82,3.68,19.72c1.19,7.21,1.68,14.68,3.28,21.8a1.4,1.4,0,0,0,.2.46c-4.13,1.91-7.86,4.64-12,6.54a83.49,83.49,0,0,1-14.41,5,100.57,100.57,0,0,1-27.37,2.81c-19.53-.58-37.58-6.81-56.12-12.2l.11-.24a1.18,1.18,0,0,0-1.59-1.62c.8-.37.36-8.87.44-10.27q.3-5.31.86-10.61a226.14,226.14,0,0,1,3.71-23.45c3.07-14.48,7.68-28.61,12.72-42.49.23-.62-.41-1.1-.95-1a.84.84,0,0,0-1-.18c-9.36,4.13-16.57,11.78-21.56,20.68a88.83,88.83,0,0,1-13.73-12.75c-3.33-3.94-12.14-14-8.67-19.27,1.7-2.6,6.72-5.2,9.27-7q4.66-3.27,9.51-6.26a194.76,194.76,0,0,1,17.82-9.66,8.45,8.45,0,0,0,1.15,7.22c2.12,3,6.31,4,10.1,3.36-1.33,4.44.05,9.72,4.18,12.34,4.86,3.09,11.13,1.21,14.47-3.07,0,4,3.64,7.69,7.72,8.28,6.22.9,10.95-4.83,10.18-10.85l.63-.09c-2.25,7,4.55,13,11.25,10.71,5.25-1.77,8.1-7.41,7.56-12.72a9,9,0,0,0,11.47,0c2.43-2.16,3.35-5.94,2.7-9.27a9.11,9.11,0,0,0,8.41-2.54,12,12,0,0,0,2.44-9.59c12.08,2.94,23.33,7.75,33.4,16.1C574.94,148.89,576.93,153,575.43,159.77Z"/><path class="cls-3" d="M519.39,198.26c-7.27-11.28-21.84-5.92-25.34,4.89a16.41,16.41,0,0,0-10.8-8.4c-6.53-1.36-13.33,2.56-16.17,8.57-7.41,15.69,13.4,33.07,26.71,35.84,1.21.25,2.16-1.55.9-2.16-10-4.88-21.78-12-24.84-23.84a11.85,11.85,0,0,1,8.64-14.69c7.49-1.68,11.3,4.62,13.6,10.54a1.54,1.54,0,0,0,3-.41v0a1,1,0,0,0,.69-.82c1.12-5.89,5.06-12.13,11.67-12.34,8.23-.26,12,8,8.88,14.93-2.18,4.89-5.61,9.43-9,13.54-3.48,4.28-8,7.65-11.38,11.92a1.55,1.55,0,0,0,1.85,2.43C505,234.34,511,226,515.44,219.19,519.43,213.11,523.91,205.28,519.39,198.26Z"/></g><path class="cls-4" d="M115,111.39c2.85-8.29,1.8-19.45-6.5-22.89.09-.16.18-.3.26-.46,4.59-8.8.23-22.34-9-26.38.34-.47.66-.94,1-1.45,4.78-7.94,2.68-19.12-5.75-23.48a1.74,1.74,0,0,0-1.27-.16l.09-.7c.81-6.26,2.32-12.89,1.56-19.22C94.21,6.71,85.26,2.06,76.58,7c-9.49,5.36-11.5,16.85-12.15,27.21-9.23.47-16,8.63-14.86,18.22,0,.13,0,.26.06.39C39.39,56.3,32,67.36,34.13,78.23c-9.43,2.68-15.66,12.32-15.21,22.22,0,.26,0,.5.07.75-9.93.56-15.23,15.52-13.74,23.89,2.55,14.28,15.83,22.19,28.22,26.65a126.6,126.6,0,0,0,51.63,7.07c14-1,30.05-3.86,38.56-16.5C130.81,131.68,128.17,115.27,115,111.39Zm-47.24-72C68.07,31.19,68.28,22,73,15c4.91-7.25,16.84-9.85,18.84,1.14.59,3.25.19,6.65-.18,9.89-.51,4.45-.52,10.15-1.91,14.38-1.94,5.91-6.48,6.52-11.79,5.47a23.7,23.7,0,0,1-5.73-2c-.84-.41-4.29-2-5.74-2.89A1.74,1.74,0,0,0,67.78,39.36ZM64.3,36.47c0,1-.09,1.95-.12,2.89a1.83,1.83,0,0,0,.13.78c0,3.81,6.07,6.61,8.93,7.75,4.33,1.72,10.21,2.76,14.6.67,3.56-1.69,4.77-5.09,5.42-8.68,7.39,4.35,8.21,14.07,2.85,20.5C90.6,67,81.63,68.4,73.6,67.16c-7.3-1.13-16.14-4-19.38-11.45C50.46,47.09,56.28,38.92,64.3,36.47Zm-14,19.13c3,9.37,13.51,13.75,22.61,15.21,8.58,1.38,18.15-.21,24.47-6.32,3.65,2.72,6.83,5.21,8.56,9.75a14.43,14.43,0,0,1-2.61,15.16c-8.16,9-21.85,7.27-32.59,5.93C60.47,94,45.27,92.3,39.47,82.25,33.11,71.23,41.43,61.28,50.26,55.59ZM34.78,80.66c.1.31.21.61.33.92,5.25,13.49,23.36,16,35.59,17.5,11.7,1.45,27.48,2.62,35.75-7.48,4.12,3.66,7.06,7.65,6.52,13.86-.59,6.87-5.69,12.57-11.4,15.81-12.63,7.15-30.19,5.33-43.93,3.26-10.8-1.63-23.54-4.45-30.81-13.51C18.56,100.69,23.67,86.07,34.78,80.66Zm74.87,68.86c-14,7-32.48,6.75-47.66,5-15-1.72-33.66-5.57-45.13-16.29-5.52-5.16-9.54-13-7.94-20.74,1.4-6.79,6-9.51,10.49-13.44,2,8.9,9.57,15.27,17.66,18.87,12.59,5.6,27.43,6.91,41,6.87,12.3,0,25.93-2.21,34-12.69a17.36,17.36,0,0,0,1.43-2.22c7.32,2,11.48,9.53,10.39,17C122.69,139.87,116.56,146.05,109.65,149.52Z"/><path class="cls-4" d="M210.16,365.92a1.83,1.83,0,0,0,.85-1.14c5.09-19.13,9.44-38.48,14.42-57.65q3.61-13.88,7.35-27.72c2.54-9.42,6.05-19.17,7-28.93a8.2,8.2,0,0,0,1.93-14.26,1.23,1.23,0,0,0-.64-.25,16,16,0,0,0-5.6-10,24.06,24.06,0,0,0-7.28-4.42c-2.51-1-4.26-1.25-6.32-3.27-1.75-1.71-2.17-1.94-1.45-4.21a12,12,0,0,1,2-3.41c4.31-5.7,9.71-9.94,12.58-16.74a22.72,22.72,0,0,0-.21-19.05,22.39,22.39,0,0,0-31.1-9.6c-11.36,6.23-15.52,20.88-10.22,32.66,1.57,3.48,4.32,6.44,5.62,10,3,8.36-6.72,9.51-12.4,9.53-4.37,0-9.86.64-12.87,3.76a5.46,5.46,0,0,0-6.49,3.32c-.79,1.86-.72,5.08.85,6.63a8.24,8.24,0,0,0,.84,1.74C162,252.3,157.69,273,152.35,293l-8,30.13q-2.15,8-4.27,16.07c-.85,3.22-3.26,7.78-1.75,11a1.76,1.76,0,0,0,.94.93c1.74,13,15.65,21.69,27.19,24.85,13.86,3.79,33.82,4.73,43.57-8.42A1.62,1.62,0,0,0,210.16,365.92Zm-11-147.55c5.2-3.64,4.65-9.45,2-14.51-2.08-3.92-4.69-7.3-5.67-11.75a23.08,23.08,0,0,1,1.11-13.58c3.63-8.83,13.6-14.26,22.84-12a18.72,18.72,0,0,1,13.54,21.87c-2.08,9.42-9.76,13.91-14.53,21.48-2.89,4.59-2.86,10,2.29,12.88,3.79,2.11,7.91,2.45,11.44,5.24s6,6.67,5.11,11.46a1.74,1.74,0,0,0,.15,1.15,69.92,69.92,0,0,1-33.39-.11A85.69,85.69,0,0,1,188.37,235a46.21,46.21,0,0,1-9.69-5.77c-1.29-1-2.57-3.11-4.24-3.55C177.85,217.12,192.53,223,199.14,218.36Zm-28.59,12.24c-.51-1.84-1.81-3-.95-5.12a5.54,5.54,0,0,1,3.13-2.76,8.66,8.66,0,0,0-1.08,4.09,1.18,1.18,0,0,0,2.1.86c.88.8,1.74,2.23,2.56,3a29.51,29.51,0,0,0,4.67,3.63,60.75,60.75,0,0,0,7.73,4.09A84.39,84.39,0,0,0,205.16,244a69.42,69.42,0,0,0,34.17-.62,1.33,1.33,0,0,0,.71-2.13,1.84,1.84,0,0,0,.81-1.21c.07-.32.12-.64.16-1a4,4,0,0,1,.55,5.58q-.32,4.07-4.76,4a38,38,0,0,1-5,.54,89.91,89.91,0,0,1-9.76.24,94.7,94.7,0,0,1-37.86-9.19c-3.77-1.8-10.73-4.56-13.81-8.74A1.09,1.09,0,0,0,170.56,230.61Zm.18,4.32c2.87,2.85,7.27,4.84,10.32,6.41a96.31,96.31,0,0,0,29,9.47c8.52,1.35,19.19,2.49,27.78.29-3.23,7-5.13,14.82-7.06,22.39a1.53,1.53,0,0,0-.24-.2c-9.2-6-21.06-9.23-31.76-11.11-11.2-2-23.24-2.42-34.38.23C166.84,253.29,169.11,244.14,170.73,234.93Zm57.9,40.79c-8.53,7-19.71,9.3-30.51,7.35C185.51,280.8,175.2,273,166,264.38c10.58-.58,21-.83,31.5.94C208.63,267.2,218.26,271.56,228.63,275.72Zm-38.82,98.59c-6.66,1-13.73.11-20.26-1.39-13.2-3-22.44-10.53-27.35-22.67l0-.06a1.59,1.59,0,0,0,.23-1.57l-.24-.46a1.59,1.59,0,0,0-.63-.65,3.36,3.36,0,0,0,.38-1.76l1.07-4,.34-1.26c1,3.51,3.17,7.32,6.44,8.36.69.22,1.66-.62,1-1.3-1.27-1.36-2.84-2.27-4-3.77a14.58,14.58,0,0,1-2.66-5.93.7.7,0,0,0-.06-.15l.8-3,.56-2.12a18.87,18.87,0,0,0,4.85,6.17c.73.58,1.85-.43,1.21-1.19a43.17,43.17,0,0,1-5.41-7.44l2.47-9.33A26,26,0,0,0,157,331.4a.84.84,0,0,0,1-1.32,41.37,41.37,0,0,1-8.76-11.59l1.55-5.86a16.07,16.07,0,0,0,5.26,5.51c.75.45,1.2-.7.71-1.22a65.38,65.38,0,0,1-5.5-6.05l2.46-9.31a18.39,18.39,0,0,0,7.48,10c.83.5,1.43-.81.81-1.4-3.33-3.17-5.79-6-7.44-10.39a.63.63,0,0,0-.29-.35l1.52-5.77a11.36,11.36,0,0,0,5.94,4.73.79.79,0,0,0,.6-1.45,16,16,0,0,1-6.09-5l.12-.46q1-3.86,2.1-7.73a26.41,26.41,0,0,0,10.37,9c.9.42,1.77-1,.91-1.56a51.88,51.88,0,0,1-10.82-9.1q1.09-3.91,2.19-7.82c1.75,2.39,3.51,4.76,5.38,7.06a.82.82,0,0,0,1.31-1c-2-2.79-4-5.47-6.12-8.15q1-3.61,2-7.23c15.7,18.6,44.8,30.5,65.59,14.21q-3.59,13.2-7.05,26.44c-5.09,19.46-10.43,39-14.61,58.65a1.65,1.65,0,0,0,.06,1C202,369.53,197.07,373.24,189.82,374.31Z"/><g class="cls-2"><path class="cls-3" d="M555.54,8.09c-10.65,3.21-16.37,17.36-16.36,28a33.33,33.33,0,0,1-10.1-5.84c-5-4.2-9.15-9.61-15.1-12.54-10.5-5.19-22.64,0-29.57,8.75-15.7,19.79-2.14,56,25.12,51.74,10.1-1.56,18.82-7.42,28.17-11.26-2.58,10-1.31,25.22,8.37,30.14a14.25,14.25,0,0,0,1.94.81.31.31,0,0,0,.17.2c8.56,4.29,17.8-1.25,22.48-8.83a42.4,42.4,0,0,0,4.67-11.75c7.82,13.93,22.53,21.37,38.25,16.12,13.87-4.63,23.18-18.33,24.62-32.78,1.48-14.78-4.83-33.31-18.13-41-13-7.55-29.49-1.63-39.6,8.28a39.88,39.88,0,0,0-5-15C571.36,6.22,561.94,1.95,555.54,8.09ZM514.78,72.93c-7.35,2.46-15,2.63-21.66-1.93-7.62-5.24-11.71-14.51-11.77-23.7-.11-16.11,16.15-35.65,32.88-25.17,6.43,4,10.83,10.61,17.38,14.53a37.52,37.52,0,0,0,21.15,5.2h0c-.27,5.5,3,14.69-2,18.79C537.66,60,526.86,68.88,514.78,72.93Zm33.75,21.88c-4.11-1.35-6.3-5.9-7.52-9.76-2-6.22-1.88-12.72-.9-19.09a39,39,0,0,1,11.69-2.51,1.35,1.35,0,0,0,1.3-1.09c2.34-1.71,3.13-4.38,3.42-7.32.43-4.32.51-9.91-1.25-13.92a1.09,1.09,0,0,0-.74-.64,1.69,1.69,0,0,0-1.6-2.4A36.14,36.14,0,0,1,542.11,37a29.13,29.13,0,0,1,4.17-16.62c3.87-6.28,11.44-13,18.9-8.22,6.41,4.09,7.51,12.4,7.87,19.4a126,126,0,0,1-.7,20.53,129.56,129.56,0,0,1-4.07,20.72c-1.83,6.47-3.81,14.21-8.88,18.92C556.6,94.29,552.3,96.05,548.53,94.82ZM582.2,31c9.42-8.47,23.86-15,36-8.14s17.71,23.66,16.72,37c-1,13.54-9.71,26.68-22.79,30.81a29.27,29.27,0,0,1-19.78-.75c-7-2.88-11.74-8.76-16.05-14.8a.87.87,0,0,0-.26-.24c.29-1.24.56-2.48.82-3.71q.46-2.15.9-4.31c8.05,12.7,28.93,9.39,31.45-6.37,2.45-15.33-15.78-26.95-28.12-18.14a82.08,82.08,0,0,0-.18-10.91A1.5,1.5,0,0,0,582.2,31Zm-3.57,33.29a.89.89,0,0,0-.36-.28c.83-4.31,1.56-8.64,2.07-13,.21-1.79.38-3.64.53-5.52a1.28,1.28,0,0,0,.47-.12c5.25-2.45,10.48-4,16.1-1.57a15.42,15.42,0,0,1,8.91,15.12,14.54,14.54,0,0,1-11.17,12.67C588.57,73.08,582.54,69.43,578.63,64.27Zm-7.33-53c3.21,3.36,4.78,8.11,5.84,12.55,2.34,9.79,2,20,.71,29.9-1.82,13.9-5.6,45.49-24.35,44.54,7.93-1.46,13.41-11.89,15.77-19a132.55,132.55,0,0,0,6.64-47.63c-.42-9.09-3.66-22.48-13.85-24.07A11.53,11.53,0,0,1,571.3,11.3Z"/><path class="cls-3" d="M488.52,34.78c-.41.89.76,1.74,1.3.85,4.28-6.9,11.73-8.88,19.15-6.76,1.15.33,2.1-1.41.94-2C502.21,22.85,492.12,27.09,488.52,34.78Z"/></g></g></svg>