<svg xmlns="http://www.w3.org/2000/svg" viewBox="0 0 282.98 266.05"><defs><style>.cls-1{fill:#f1f7fb;}.cls-2{fill:#c2dcf3;}.cls-3{fill:#f3b0a5;}.cls-4{fill:#f7ceaf;}.cls-5{fill:#fff4ee;}.cls-6{fill:#faeade;}.cls-7{fill:#f1c3a1;}.cls-8{fill:#8469a8;}.cls-9{fill:none;}</style></defs><title>logo_honeyKid</title><g id="Слой_2" data-name="Слой 2"><g id="Слой_1-2" data-name="Слой 1"><path class="cls-1" d="M275.68,114a47.34,47.34,0,0,1,4.73,24.89,48.75,48.75,0,0,1-4.89,17.53,49.59,49.59,0,0,1-8.1,11.78,45.61,45.61,0,0,1-10.77,8.58,47.6,47.6,0,0,1-22.22,6.53,43.24,43.24,0,0,1-14.83-1.65c-5.1-1.2-16.47-11.53-17.51-11.77s6,7.28,13,12.47c-15.47,11.91-33,18.16-52.12,20-29.69,2.87-54.61-6.11-69.22-16.76,8.32-7.48,16.06-16.76,12.59-13.68-13.45,11.88-18,14.08-25.09,15.35a66.49,66.49,0,0,1-47.17-8.68,61.89,61.89,0,0,1-15.26-12.81A67.23,67.23,0,0,1,4,136.62a65,65,0,0,1-.1-28.6A66.39,66.39,0,0,1,18.4,78.65a7,7,0,0,0,.51-.82l.3.19a5.1,5.1,0,0,1,.26.75C20.8,85,23.93,90.19,28,95s9.49,8.14,15.19,10.89a68.75,68.75,0,0,0,16.4,5.77c-2.73,1.44-5.43,2.36-7.72,4l.1.36a5.88,5.88,0,0,0,1.27-.08,42,42,0,0,0,4.15-1.32,78.39,78.39,0,0,1,17.81-4.48,125.83,125.83,0,0,1,22.17-1.45,125,125,0,0,1,24,2.51c2.94.64,5.85,1.4,8.92,2.14-.19.84-.44,1.75-.59,2.68-1,6.05-2,12.1-2.93,18.16a6.26,6.26,0,0,1-1.63,3.39c-3,3.24-5.91,6.51-8.91,9.72a9.77,9.77,0,0,0-3,7.78,4.45,4.45,0,0,0,1.83,3.33A2.54,2.54,0,0,1,116,160a10.21,10.21,0,0,0,2.51,6.31,34,34,0,0,0,3.4,3.6,4.25,4.25,0,0,0,2.27.77,2.44,2.44,0,0,0,2.57-1.65,13.34,13.34,0,0,0,2.47,1.49,3.36,3.36,0,0,0,4.53-2.47c.44-1.61.82-3.23,1.24-4.85.11-.43.29-.84.44-1.26l.39-.11c.46.95,1,1.88,1.37,2.85a8.12,8.12,0,0,0,2.61,3.91,2.66,2.66,0,0,0,4-.55,5.66,5.66,0,0,0,1.11-4.19c-.2-2-.42-4-.51-6a4.13,4.13,0,0,1,.54-1.91c2.09-4.12,2.95-8.34,1.32-12.84a.91.91,0,0,1,.22-.81c2.75-2.11,4.14-5.1,5.29-8.21,1.39-3.76,2.63-7.57,3.94-11.35,0-.13.11-.25.22-.48a66.82,66.82,0,0,1,16.34,11.47c.16.11.41.18.34-.37-.37-.53-.72-1.07-1.11-1.59a41.15,41.15,0,0,0-12.27-10.55c-2.07-1.2-3.34-2.41-2.71-5a23.51,23.51,0,0,0,.22-3.6,3.16,3.16,0,0,1,.39-1.06c.15-.32.49-.59.53-.91.23-1.79,1.34-2.05,2.94-2.14a131.65,131.65,0,0,1,18,.09,4,4,0,0,1,2.38,1.16c4.68,5,10.57,6.34,17.09,5.73a50.49,50.49,0,0,0,5.34-1,8.51,8.51,0,0,1,4.4.32,85.73,85.73,0,0,1,20.35,9.83c1.22.79,3.4,2.35,3.9,2.24s-.66-1.14-1.15-1.52a63.14,63.14,0,0,0-5.28-3.95c-3.32-2.11-6.74-4.07-10.11-6.1l-.68-.43c2.36-.34,4.56-.59,6.73-1a31.65,31.65,0,0,0,11.4-4.24c2.53-1.61,3.35-1.2,3.87,1.76a19.81,19.81,0,0,0,.74,3.1,2.46,2.46,0,0,0,2.86,1.69,5.35,5.35,0,0,0,4.44-3,.87.87,0,0,1,1.13-.59c2.74.4,4.44-1,4.84-3.74a4.68,4.68,0,0,1,.85-1.57c.13-.2.43-.33.5-.54.76-2.41,2.63-4.51,2.12-7.3-.13-.7.15-1.1.88-1.32,1.62-.5,3.24-1,4.8-1.69a1.39,1.39,0,0,1,1.61.27A49.09,49.09,0,0,1,275.68,114Z"/><path class="cls-2" d="M275.68,114a49.09,49.09,0,0,0-14.1-17.36,1.39,1.39,0,0,0-1.61-.27c-1.56.65-3.18,1.19-4.8,1.69-.73.23-1,.62-.87,1.32.51,2.79-1.36,4.89-2.12,7.3-.07.21-.38.34-.5.54a4.68,4.68,0,0,0-.85,1.57c-.39,2.74-2.1,4.14-4.84,3.74a.87.87,0,0,0-1.13.59,5.35,5.35,0,0,1-4.44,3,2.46,2.46,0,0,1-2.86-1.69,19.81,19.81,0,0,1-.74-3.1c-.52-3-1.34-3.37-3.87-1.76a31.65,31.65,0,0,1-11.4,4.24c-2.16.4-4.36.65-6.73,1l.68.43c3.38,2,6.8,4,10.11,6.1a63.16,63.16,0,0,1,5.28,3.95c.48.38,1.77,1.38,1.15,1.52s-2.68-1.45-3.9-2.24c-1.88-1.23-3.8-2.38-5.76-3.46,18.45,16.17,32.89,41.3,7,49.82-12.57,4.15-26.59-2.9-29.6-4.67-.8.26-1.69,29.35-65.9,23.21-21.54-2.06-23.54-22.78-23.08-23.65,0,0-25.19,15.91-57.39,9.1-16.93-3.58-32.12-16.23-44.8-24.79a68.59,68.59,0,0,0,10.18,15.62,61.89,61.89,0,0,0,15.26,12.81,66.49,66.49,0,0,0,47.17,8.68,56.52,56.52,0,0,0,18.28-7.22c-2.69,2.62-5,4.84-5.78,5.54,14.61,10.65,39.53,19.63,69.22,16.76,19.15-1.85,36.65-8.1,52.12-20a30.59,30.59,0,0,1-4.78-5.69,23.84,23.84,0,0,0,9.27,5,43.24,43.24,0,0,0,14.83,1.65,47.6,47.6,0,0,0,22.22-6.53,45.61,45.61,0,0,0,10.77-8.58,49.59,49.59,0,0,0,8.1-11.78,48.75,48.75,0,0,0,4.89-17.53A47.34,47.34,0,0,0,275.68,114Z"/><path class="cls-2" d="M159.26,121.17a41.15,41.15,0,0,1,12.27,10.55c.39.51.74,1.06,1.11,1.59,0,0,.11-6.42-1.66-10.12s-4.26-5.55-3.88-7.66c.25-1.38,3-4.33,14.63-5-.25-.24-.51-.49-.76-.76a4,4,0,0,0-2.38-1.16,131.66,131.66,0,0,0-18-.09c-1.6.09-2.71.35-2.94,2.14,0,.32-.38.59-.53.91a3.16,3.16,0,0,0-.39,1.06,23.51,23.51,0,0,1-.22,3.6C155.92,118.76,157.19,120,159.26,121.17Z"/><path class="cls-1" d="M261.33,51c5.38,8.56,5.83,17.76,1.66,27.07-.14.31-.32.6-.45.86-.77-.74-1.48-1.33-2.07-2a14.24,14.24,0,0,1-1.55-2.13,29.11,29.11,0,0,1-1.35-2.65,3,3,0,0,0-3.37-1.66A6.44,6.44,0,0,0,249,73.77a49.59,49.59,0,0,1-6.39,8.07c-.6.67-1,.59-1.53,0-1.32-1.33-2.64-2.68-4.05-3.9s-3.31-1.18-5.06-1.29c-2.8-.18-4.18-.86-6.72-1.85-.84-.32-1-1.1-1.13-1.91.52-6.63-.43-16.05-5.4-22.3-3.78-4.38-8.37-9-17.19-9.19-21.22-.53-29.69,13.67-36,15.44a29.62,29.62,0,0,1-17.73-.43,66,66,0,0,0-7.9-2,13.9,13.9,0,0,0-3,.2c-.35,0-.94-.11-1-.33a22.34,22.34,0,0,0-4.13-6,5.6,5.6,0,0,1-.39-.58c1.87-1.45,1.86-3.42,1.43-5.44A28.52,28.52,0,0,0,127.37,30a10.85,10.85,0,0,0-4.64-3.47,4.14,4.14,0,0,0-5.55,1.94c-.2.33-.38.66-.66,1.15a7,7,0,0,1-.8-.93c-1.69-2.8-3.34-5.61-5-8.4-.36-.59-.09-.9.31-1.26a64.85,64.85,0,0,1,14.07-9.69A63.66,63.66,0,0,1,151.18,2.5c17.4-.78,32.59,4.69,45.65,16.13A63.84,63.84,0,0,1,211.48,37.4c.62,1.19,1.06,1.37,2.31.8a38,38,0,0,1,18.33-3.47C244.41,35.52,254.64,40.39,261.33,51Z"/><path class="cls-2" d="M235.51,77.13A4.37,4.37,0,0,1,237,78c1.41,1.23,2.73,2.57,4.05,3.9.56.56.93.65,1.53,0A49.59,49.59,0,0,0,249,73.77a6.44,6.44,0,0,1,5.21-3.27,3,3,0,0,1,3.37,1.66,29.11,29.11,0,0,0,1.35,2.65,14.24,14.24,0,0,0,1.55,2.13c.6.68,1.3,1.27,2.07,2,.14-.26.32-.55.45-.86,4.16-9.32,3.71-18.51-1.66-27.07a33.06,33.06,0,0,0-12.86-12c2.21,4.72,3.61,10.24,2.51,15.91C249.1,64.59,241.2,72.52,235.51,77.13Z"/><path class="cls-3" d="M166.12,181.11c-.09,5.09-6.48,9.63-11.95,9.63-4.72,0-8.15-2.87-8.15-10.74,0-6.2.74-18.34.74-18.34,0-2.53-1-3.85-2.33-4.18a4.79,4.79,0,0,1,.53-1.59c1.93-3.8,2.81-7.69,1.65-11.8a15.54,15.54,0,0,1,2-.13c7.31,0,15,5.09,15,16.2V175C163.62,180.37,164.83,180.74,166.12,181.11Z"/><path class="cls-3" d="M140.66,181.85c-.19,5.28-1.85,9-9.17,9-7.78,0-8.06-3.8-8.15-9.16-.08-4.35-.13-8-.16-11.18a6.52,6.52,0,0,0,1,.18,2.44,2.44,0,0,0,2.57-1.65,13.35,13.35,0,0,0,2.47,1.49,3.36,3.36,0,0,0,4.53-2.47c.44-1.61.82-3.23,1.24-4.85.11-.43.29-.84.44-1.26l.39-.11c.46.95,1,1.88,1.37,2.85a8.12,8.12,0,0,0,2.61,3.91,4.27,4.27,0,0,0,.47.3C140.45,172.44,140.66,175.94,140.66,181.85Z"/><path class="cls-3" d="M71.76,186.86a11.23,11.23,0,0,1-1.54,1.58,11.64,11.64,0,0,1-6.56,2.23c-.62.05-1.28.08-2,.08a10.14,10.14,0,0,1-5.52-1.1,5.46,5.46,0,0,1-2.32-2.91c-.74-2-.82-4.57-.86-7.57-.1-4.35-.1-8.06-.1-11.49a38.5,38.5,0,0,1-7.68.93c.15,5.81.18,11.38.14,15.51,0,.95,0,1.82,0,2.61v.13c-.84.92-2.69,3.89-10.1,3.89-8.34.19-8.61-4.63-8.7-11.57,0-1,0-2,0-2.91s0-2,0-3c-.17-29.72.35-31.26-.7-39.28,0,0,6.3-2.41,10.09-2.41,5.1,0,9.26,2.22,9.08,8.34-.1,3.52,0,9.26.09,15.74a55.62,55.62,0,0,0,7.87-1c0-6.76,0-10.47-.09-13.52-.09-2.88-.28-9.54,9.54-9.54,5.1,0,9.26,2.22,9.07,8.34C71.1,149.44,72.13,176.29,71.76,186.86Z"/><path class="cls-3" d="M119.34,167.24c-.28-.31-.55-.63-.82-.95A10.21,10.21,0,0,1,116,160a2.54,2.54,0,0,0-.95-1.64,4.45,4.45,0,0,1-1.83-3.33,8.82,8.82,0,0,1,.69-4.37c-4-4.81-10-7-16.61-7-11.11,0-21.76,7.78-21.76,24.82,0,9.62,3,15.27,7,18.56a17.11,17.11,0,0,0,2.61,1.78A24.64,24.64,0,0,0,97,191.58c.4,0,.84,0,1.3,0a27.73,27.73,0,0,0,4.09-.48c7.34-1.42,16.93-6.43,16.93-22.55C119.36,168.08,119.35,167.66,119.34,167.24Zm-17.95,1.37a72.44,72.44,0,0,1-.28,7.87,15.32,15.32,0,0,1-.47,2.51c-.52,1.79-1.39,2.85-2.84,2.86h-.11a2.58,2.58,0,0,1-2.06-1c-1.54-2-1.65-6.56-1.65-12.2,0-7.51,0-13.24,3.7-13.52C101.58,154.81,101.39,161.11,101.39,168.61Z"/><path class="cls-3" d="M207.52,185.83c-4,4-10.74,6.3-17.23,5.65-7.6-.74-20.93-4.44-20.93-22.78,0-17.6,12-25.19,21.21-25.1,14.26.09,19.17,8.89,20.28,14.17,1.63,7.8-1.11,12.27-5.3,14.72-.34.2-.68.39-1,.56-5,2.44-11.63,2.38-15.53,1.77,0,8.15,14.07,5.46,17.5.83a4.15,4.15,0,0,1,.72.07,3.29,3.29,0,0,1,2.71,2.48C210.6,180.45,209.65,183.7,207.52,185.83Z"/><path class="cls-3" d="M258.18,202.69c0,1.66-.83,3.61-3,6a18.42,18.42,0,0,0-6.2-4.16,19.92,19.92,0,0,1-17.32,9.72c-6.67,0-17-3.43-17-11.85s9.26-10.65,17.59-10.65a50.89,50.89,0,0,1,5.47.28c1-1.09,2-4.3,2.54-6.95a17.1,17.1,0,0,0,.32-2.41h0a18,18,0,0,1-1.6,2.6c-5.75,7.72-16.06,7.56-20.89-1.44a19.2,19.2,0,0,1-1.43-3.43,29.14,29.14,0,0,1-1.22-8.76V155.55c0-4.35.09-6-.47-8,1-.74,16.12-9.82,17.32,7.68,0,2.5,0,18.9.19,20.74.47,4.08,5.47,5,6.48-1.85l-.09-14.54c0-8.06-.37-14.36,8.43-14.36,9.45,0,8.24,7.32,8.24,14.26l.09,16.76c0,.38,0,.76,0,1.13,0,.93,0,1.83-.06,2.7a56.57,56.57,0,0,1-2.9,16.09C255,197.6,258.18,199.45,258.18,202.69Z"/><path class="cls-4" d="M44.87,147.28a1.61,1.61,0,0,1-1.59-1.35c-.92-5.52-2.07-9.36-4.71-10.2a8.41,8.41,0,0,0-2.49-.31,27.6,27.6,0,0,0-9.28,2,1.67,1.67,0,0,1-.82.21,1.6,1.6,0,0,1-.73-.17,1.62,1.62,0,0,1-.88-1.25c-.07-.63-.15-1.29-.24-2a1.61,1.61,0,0,1,1-1.71c.27-.1,6.62-2.52,10.67-2.52,3.57,0,6.43,1,8.29,2.92a9.35,9.35,0,0,1,2.4,7.08c0,.41,0,2.69,0,4.2,0,.71,0,1.3,0,1.53A1.61,1.61,0,0,1,45,147.28Z"/><path class="cls-4" d="M44.9,139.9c.18-6.11-4-8.34-9.08-8.34-3.8,0-10.09,2.41-10.09,2.41.09.72.18,1.39.25,2,1-.62,8.81-3.16,13.08-1.81,3.71,1.17,4.94,6.19,5.82,11.47C44.87,144.91,44.88,140.53,44.9,139.9Z"/><path class="cls-4" d="M49.64,157.81a21.1,21.1,0,0,1-5.07-.61,1.61,1.61,0,0,1,.31-3.16,61.68,61.68,0,0,0,6.37-.74c0-1.36,0-2.58,0-3.7A1.61,1.61,0,0,1,54,148.47c.33.34,2,2.27,1.43,7.34a1.61,1.61,0,0,1-1.15,1.38,16.64,16.64,0,0,1-4.65.62Z"/><path class="cls-4" d="M53.84,155.65c.47-4.57-1-6-1-6h0c0,1.47,0,3.12,0,5a55.62,55.62,0,0,1-7.87,1A18.43,18.43,0,0,0,53.84,155.65Z"/><path class="cls-4" d="M71.34,148.22a1.61,1.61,0,0,1-1.6-1.46c-.69-7.52-1.38-11.45-8.52-11.45a9.33,9.33,0,0,0-7,3.38,1.61,1.61,0,0,1-2.79-1.38C52,134,54.48,130,62.31,130c3.57,0,6.43,1,8.29,2.92A9.34,9.34,0,0,1,73,140c0,1.58-.06,3.76,0,6.65a1.61,1.61,0,0,1-1.53,1.62Z"/><path class="cls-4" d="M62.31,131.57c-6.75,0-8.77,3.15-9.35,6.05a11,11,0,0,1,8.26-3.93c8.75,0,9.47,5.78,10.12,12.91,0-2.67,0-5,0-6.71C71.57,133.79,67.41,131.57,62.31,131.57Z"/><path class="cls-4" d="M116,162a1.61,1.61,0,0,1-1.51-1.05c-.17-.47-.36-.93-.54-1.37a6.07,6.07,0,0,1-2.36-4.37c-3.25-4.69-7.89-7-14.18-7a35.53,35.53,0,0,0-14.76,3.23,1.61,1.61,0,0,1-1.84-2.57,22.5,22.5,0,0,1,16.47-6.79c7.53,0,13.7,2.6,17.85,7.53a1.61,1.61,0,0,1,.25,1.68,7.11,7.11,0,0,0-.6,2.85,27.87,27.87,0,0,1,1.9,3.58,3.9,3.9,0,0,1,.91,2.18c0,.06,0,.11,0,.16l0,.17A1.61,1.61,0,0,1,116,162Z"/><path class="cls-4" d="M116,160.38c0-.13,0-.26,0-.39a2.54,2.54,0,0,0-.95-1.64,4.45,4.45,0,0,1-1.83-3.33,8.82,8.82,0,0,1,.69-4.37c-4-4.81-10-7-16.61-7A20.93,20.93,0,0,0,82,150a37.07,37.07,0,0,1,15.44-3.38C108.19,146.61,113.29,152.9,116,160.38Z"/><path class="cls-4" d="M98.07,184.57c-3.44,0-4.62-3.24-4.76-4.95a1.61,1.61,0,0,1,.89-1.58,1.63,1.63,0,0,1,.73-.17,1.62,1.62,0,0,1,1.51,1.05,3.4,3.4,0,0,0,.47.9,1,1,0,0,0,.83.42h.07c.23,0,.8,0,1.29-1.7.13-.5.42-3.22.53-4.25,0-.37.07-.67.09-.86a1.61,1.61,0,0,1,1.54-1.43h.06a1.61,1.61,0,0,1,1.58,1.31c.3,1.6,1.56,9.64-3.11,11A6.21,6.21,0,0,1,98.07,184.57Z"/><path class="cls-4" d="M100.64,179c-.52,1.79-1.39,2.85-2.84,2.86h-.11a2.58,2.58,0,0,1-2.06-1,4.94,4.94,0,0,1-.71-1.33h0s.37,4.45,4.43,3.28c3.5-1,2-9.14,2-9.14C101.21,174.56,100.85,178.27,100.64,179Z"/><path class="cls-4" d="M163.61,161.23a1.61,1.61,0,0,1-1.55-1.19c-.73-2.71-1.55-5.77-4.51-7.89-.6-.43-1.19-.8-1.75-1.17a18.76,18.76,0,0,1-5.51-4.85,5.18,5.18,0,0,0-1.08-.66,1.61,1.61,0,0,1,.73-3h.13c7.35.61,14.89,6.15,15.15,17.15a1.61,1.61,0,0,1-1.38,1.63Z"/><path class="cls-4" d="M149.93,144a4.84,4.84,0,0,1,1.63,1.12c2.37,3.13,4.4,3.89,6.91,5.68,3.41,2.43,4.36,5.89,5.13,8.78C163.37,149.55,156.7,144.59,149.93,144Z"/><path class="cls-4" d="M210.86,159.38a1.61,1.61,0,0,1-1.37-.76c-.07-.11-5.86-9.14-16.21-10.42a30,30,0,0,0-3.67-.23c-8.15,0-12.81,3.56-12.85,3.6a1.61,1.61,0,0,1-2.18-2.35A22,22,0,0,1,190.4,142h.19c13.72.09,20.28,8,21.84,15.44a1.61,1.61,0,0,1-1.58,1.94Z"/><path class="cls-4" d="M190.57,143.61a20.25,20.25,0,0,0-14.81,6.7h0s6.42-5.1,17.72-3.7,17.38,11.16,17.38,11.16C209.74,152.49,204.83,143.7,190.57,143.61Z"/><path class="cls-4" d="M197.38,183.17c-7.29,0-9.09-4.84-9.16-5a1.62,1.62,0,0,1,2.88-1.41c1,1.5,3.26,1.72,4.54,1.72,3.68,0,8.06-1.72,9.56-3.74a1.61,1.61,0,0,1,1.29-.65h.19a1.66,1.66,0,0,1,1.24.69,1.62,1.62,0,0,1,.26,1.37c-.77,2.68-2.54,6.32-9,7-.62.06-1.23.09-1.82.09Z"/><path class="cls-4" d="M199,181.47c5.61-.57,7-3.61,7.6-5.82h-.14c-3,4-13.82,6.54-16.76,1.93h0S191.39,182.24,199,181.47Z"/><path class="cls-4" d="M188.75,172a2.21,2.21,0,0,1-.74-.12c-1.12-.4-1.41-1.06-1.38-6.21a1.61,1.61,0,0,1,1.56-1.6h0a1.61,1.61,0,0,1,1.61,1.51l0,.75a6,6,0,0,0,.56-.69,14.73,14.73,0,0,0,1.59-2.83,1.61,1.61,0,0,1,1.48-1,1.59,1.59,0,0,1,.31,0,1.61,1.61,0,0,1,1.31,1.54,10,10,0,0,1-2.5,6.61A6.43,6.43,0,0,1,188.75,172Z"/><path class="cls-4" d="M191.78,166.57c-1,1.48-2.87,2.78-3.06,2.41a5.17,5.17,0,0,1-.38-1.62l-.11-1.66s0,4.57.31,4.69c.64.23,2.45-.87,2.82-1.34a8.43,8.43,0,0,0,2.16-5.58h0A16.21,16.21,0,0,1,191.78,166.57Z"/><path class="cls-4" d="M232.24,158.55a1.61,1.61,0,0,1-1.57-1.26c-.53-2.35-2.11-7.91-5.42-8.89a10.83,10.83,0,0,0-3.07-.43,14.38,14.38,0,0,0-6.38,1.6,1.61,1.61,0,0,1-2.31-1.07c0-.16-.08-.32-.12-.48a1.61,1.61,0,0,1,.6-1.74s4.88-3.32,10-3.32c3.38,0,9.16,1.58,9.88,12.19,0,0,0,.07,0,.11v1.66a1.61,1.61,0,0,1-1.43,1.6Z"/><path class="cls-4" d="M225.71,146.86c3.95,1.16,5.77,6.69,6.53,10.08,0-.75,0-1.33,0-1.66-1.2-17.5-16.3-8.43-17.32-7.68.05.19.1.37.14.56A14.92,14.92,0,0,1,225.71,146.86Z"/><path class="cls-4" d="M255.54,156.72a1.61,1.61,0,0,1-1.53-1.1c-.12-.37-.24-.76-.36-1.16-.93-3.11-1.78-5.17-4.92-5.52a17.56,17.56,0,0,0-2-.11c-4.09,0-5.85,1.61-5.86,1.62a1.61,1.61,0,0,1-2.59-1.79c1.39-3.36,4.31-5,8.93-5,9.86,0,9.89,7.73,9.9,11.44a1.61,1.61,0,0,1-1.35,1.6Z"/><path class="cls-4" d="M255.54,155.11c0-5.31-.86-9.84-8.29-9.84-4.31,0-6.42,1.51-7.45,4,.06-.05,2.75-2.65,9.11-1.94C254,147.9,254.59,152.25,255.54,155.11Z"/><path class="cls-4" d="M235.86,182.14c-3.7,0-4.91-3.94-5-6a1.61,1.61,0,0,1,1.47-1.7h.14a1.61,1.61,0,0,1,1.6,1.43c.13,1.14.74,1.76,1.25,1.76s1.61-.94,2-3.54l0-5.38a1.61,1.61,0,0,1,1.4-1.61h.21a1.61,1.61,0,0,1,1.56,1.2c1,3.74,1.59,12.37-3,13.67a5.74,5.74,0,0,1-1.56.23Z"/><path class="cls-4" d="M237,180.37c3.21-.91,2.77-8.4,1.9-11.71l0,5.51c-1,6.85-6,5.93-6.48,1.85C232.43,176,232.77,181.56,237,180.37Z"/><path class="cls-4" d="M228.58,208.08a3.75,3.75,0,0,1-2.8-1.1,4.09,4.09,0,0,1-1.07-2.86,1.61,1.61,0,0,1,.92-1.4l.12-.06a1.61,1.61,0,0,1,2.22,1,.74.74,0,0,0,.67.42c1.47,0,4.31-2.73,5.39-4.51a1.61,1.61,0,0,1,2.81,1.57C235.76,203.2,232.8,208.08,228.58,208.08Z"/><path class="cls-4" d="M228.63,205.65a2.33,2.33,0,0,1-2.2-1.53l-.12.06a2.17,2.17,0,0,0,2.26,2.29c3.39,0,6-4.51,6.82-6.1C234.43,202,231.14,205.65,228.63,205.65Z"/><path class="cls-4" d="M258.11,203.54a1.64,1.64,0,0,1-1.45-.8c-.22-.27-3.1-3.55-17.44-5.93A56.89,56.89,0,0,0,230,196c-8.68,0-12.28,2.58-12.32,2.6l-.25.15a1.78,1.78,0,0,1-.8.19,1.71,1.71,0,0,1-1.24-.51,1.29,1.29,0,0,1,0-1.82c3.81-4,11.27-4.84,16.85-4.84l1.36,0,4.21.23.16,0c.4.06,9.26,1.37,14.65,4.18,2,1,6.5,2.54,7.08,5.68a1.43,1.43,0,0,1-1.19,1.6A1.83,1.83,0,0,1,258.11,203.54Z"/><path class="cls-4" d="M239.51,194.3c15.76,3,18.47,7.28,18.6,7.63-.45-2.77-3.28-4.44-5.49-5.72-5.46-2.62-14.91-4.17-14.91-4.17l-4.15-.26-1.32,0c-6,0-12.45,1.15-15.62,4.92C216.63,196.68,222.94,191.17,239.51,194.3Z"/><path class="cls-4" d="M131.21,54.64c.79,1.56.66,2.07-.66,3.3a12.59,12.59,0,0,0-2.23,2.53A17.08,17.08,0,0,0,126,71.53c.46,3.82,1.3,7.61,2.1,11.38.55,2.61,1.36,5.18.71,7.87-.41,1.68-1,3.32-1.53,5-2,6.15-6.19,9.76-12.62,10.71a5.29,5.29,0,0,1-1.31,0c-1.72-.16-3.42-.42-5.14-.56a129.15,129.15,0,0,0-29.4.83l-3.53.52a6,6,0,0,1,2.16-5.19c2.52-2.15,5.6-2.63,8.74-2.87,6.26-.49,12.28.78,18.27,2.38.58.15,1.18.27,1.77.4l.2-.36-2-2.15c.53-.36,1-.67,1.46-1a16.73,16.73,0,0,0,4.87-5c.77-1.28,1.56-2.56,2.39-3.8a2,2,0,0,0,0-2.44,2.18,2.18,0,0,0-2.4-1c-.92.22-1.07,1-1.18,1.79a3.25,3.25,0,0,0,0,1.15A5.2,5.2,0,0,1,108,94.48c-.64.61-1.26,1.26-1.92,1.84a5.32,5.32,0,0,1-3.82,1.35c-1.37,0-3.35-1.42-3.57-2.63s-.88-1.2-1.7-1.1c-1.11.15-2.2.43-3.31.6a3.08,3.08,0,0,1-3.5-3.6A18,18,0,0,1,91,87.61c.12-.34.53-.92.78-1.43a.19.19,0,0,0-.18-.27,3.8,3.8,0,0,0-2.78,1.35c-2,2.46-2.78,5.23-1.28,8.39-1.34.14-3.52.31-4.59.41a4.62,4.62,0,0,0,1-2.7c-.14-1.15-.66-1.47-1.83-1.44a3.07,3.07,0,0,0-2.35,1.64c-3.81,5.16-6.6,6.22-11,7.86-1.51.92-4.3.5-6.3-.44-2.37-1.11-4.69-2.34-7-3.64A14.21,14.21,0,0,1,48.86,89a14.85,14.85,0,0,1-.69-7.65c.23-1.07.52-2.05,1.77-2.4a2.2,2.2,0,0,0,1-.79,5.93,5.93,0,0,0,.89-6.48,2.84,2.84,0,0,1-.35-1.19,4.6,4.6,0,0,0-1.06-3.26A30.19,30.19,0,0,0,43.51,61a7.53,7.53,0,0,0-6-1c-1.14.26-2.27.57-3.42.77-.3.05-.9-.19-1-.39a63.62,63.62,0,0,1-1.5-6.62c-.38-2.63-2.33-4-4.84-3.19-.26.09-.53.14-1.06.28.1-1.62.18-3.09.33-4.54,0-.16.52-.4.78-.39,7.1.51,12.47-2.78,16.51-8.15,2.35-3.12,3.61-7,4.68-10.78a9.5,9.5,0,0,0,.18-1.4l-.27-.09c-.19.31-.41.61-.58.94-1.29,2.45-2.54,4.92-3.86,7.35-3,5.53-7.52,8.95-13.85,9.77a9,9,0,0,1-9.46-6.72,4.76,4.76,0,0,1,3.64-5.44,2.11,2.11,0,0,1,2.4,1,2.45,2.45,0,0,1,.27,1.83c-.26.7-1,.39-1.59.2-.05,0-.13,0-.23.09a1.11,1.11,0,0,0,1.15,1.1,2.09,2.09,0,0,0,2.1-1.61A3.7,3.7,0,0,0,26.06,30s5.54,9.49,10.16-5.89a23.1,23.1,0,0,1,4-7c2.4-3.16,5-6.07,8.6-8C60.1,3.19,72,.94,84.61,3.72a33,33,0,0,1,16,8.06c3.37,3.16,5.51,7.07,7.48,11.14,1.59,3.28,3.33,6.5,5.11,9.69.6,1.06,1.49,2.17,2.91,2s1.92-1.55,2.23-2.82a2.68,2.68,0,0,1,2-2.22c1.14-.27,1.87.42,2.56,1.17a21.22,21.22,0,0,1,5.18,11.36,2.08,2.08,0,0,1-1.8,2.39c-2.52.26-3.76,3.18-1.18,4.89a4.36,4.36,0,0,0,1,.47A8.88,8.88,0,0,1,131.21,54.64Zm-4.38-14.13a1.63,1.63,0,0,0-.44-2.19,3.46,3.46,0,0,0-1.7-1c-1.8-.18-2.77-1-2.78-2.84,0,0-.06,0-.09-.05a2.46,2.46,0,0,0-1,3.78,20.66,20.66,0,0,0,3.59,3A1.78,1.78,0,0,0,126.83,40.52ZM103,67.51c3.25-4.31,2.66-8.91,2.3-12.1a.23.23,0,0,0-.45,0c-.19.93-.42,2-.5,2.35a48.51,48.51,0,0,1-1.53,5.68C101.88,66.07,100,68,97.74,70a7.54,7.54,0,0,0-1.57,2A1.33,1.33,0,0,0,96,73.1c.13.34.43.84.92.79C100,73.6,102.21,68.57,103,67.51ZM99.36,90.26c.75.13,2.12-1,2.06-1.59a1.3,1.3,0,0,0-1.37-1.2c-.9-.05-1.66.76-1.65,2.06C98.59,89.69,98.94,90.19,99.36,90.26Zm-11.8-23.4c2.6,0,5.37-5.4,5-6.45-.57-1.65-3.11,2.32-4.17,2.34a2.56,2.56,0,0,0-2.34,2.55A1.48,1.48,0,0,0,87.56,66.86ZM71.72,88.74a1.17,1.17,0,0,0-.3-1.76,1.22,1.22,0,0,0-1.85.31c-.48.61-3.19,5.69-.26,3.71A4.53,4.53,0,0,0,71.72,88.74ZM43.15,28.39l-.4-.23c-3.1,4.2-6.55,8-11.42,10.19l.12.48A6.78,6.78,0,0,0,33,38.7c4.67-1.43,7.69-4.72,9.9-8.89A4.81,4.81,0,0,0,43.15,28.39Z"/><path class="cls-4" d="M66.84,109.28l.09-.35a8.49,8.49,0,0,0-.89-.71,46.19,46.19,0,0,0-5.22-3.07c-6.14-2.68-11.24-6.85-16.39-11a19.24,19.24,0,0,1-1.57-1.41c-1.18-1.18-2.39-2.17-4.13-1,0,0-.13,0-.36-.06a3.61,3.61,0,0,1,0-1.45A8.17,8.17,0,0,1,39.9,88c2.82-2.79,3.86-6.29,4.17-10.09.08-1,.11-2,1.49-2.09a9,9,0,0,0,1,.82c1.39.84,2.41.51,3.09-.95a2.24,2.24,0,0,0-1.32-3.28c-1.69-.6-3.49-.9-5.23-1.33-.46-.11-.91-.25-1.4-.39.79-1.48,1.91-1.73,6.52-1.54A9.51,9.51,0,0,0,45.09,66c-2-1.1-3.9-.69-5.84.08a31,31,0,0,1-3.49,1.27A3,3,0,0,1,33,67l8-4.21-.07-.36a7.29,7.29,0,0,0-2-.13c-1.55.35-3.07.81-4.58,1.31a7.54,7.54,0,0,1-5.4.19,2.64,2.64,0,0,1-2-3,12.93,12.93,0,0,1,.75-2.75c.4-1.21,1-2.37,1.29-3.6.28-1-.35-1.6-1.36-1.38-2.41.51-6,4.61-6.16,7.08a5.32,5.32,0,0,0,.16,1.68c.38,1.4.87,2.77,1.23,4.18.16.63.38.78,1,.68a23.74,23.74,0,0,1,2.53-.13l.06.35c-.4.27-.8.55-1.21.8a8,8,0,0,0-3.92,5.9,15.58,15.58,0,0,0,1.48,8.59A46.72,46.72,0,0,0,29.52,93a20.84,20.84,0,0,0,4.11,4,69.65,69.65,0,0,0,17.8,9c3.7,1.22,7.44,2.33,11.21,3.29A17.53,17.53,0,0,0,66.84,109.28Z"/><path class="cls-4" d="M152.65,68.33l.37-.09a4.88,4.88,0,0,1,.53,1.18c.26,1.68.84,3.42.6,5a16.7,16.7,0,0,0,.86,7.16c.46,1.64.83,3.3,1.13,5,.53,3,1,6,1.48,8.92,1.32,7.52,9.25,10.59,15.56,7.48,2-1,2.66-2.88,2.42-5s-.84-4.2-.89-6.31a36.6,36.6,0,0,1,6.64-21.9c.89-1.3-.56-6-.25-6.22.59-.57,2.64,2.23,2.72,4.88.07,2.09-1.31,3.89-2.32,5.71a31.88,31.88,0,0,0-3.9,13.59,30.1,30.1,0,0,0,3,16.22c3.41,6.55,8.92,8.7,15.11,8.57a28.75,28.75,0,0,0,13.59-4.19,105.5,105.5,0,0,0,16.31-11.9,43.57,43.57,0,0,0,5.66-5.72c1.08-1.34,1.59-3.14,2.36-4.72.17-.35.38-.67.57-1l.39.09a5.89,5.89,0,0,1,0,1.27,22.4,22.4,0,0,1-4.26,9.28,1.44,1.44,0,0,0-.17,1.63c1,2.71,2.86,4.79,4.62,7,1.2,1.49,2.33,3,3.39,4.62a7.16,7.16,0,0,1,.87,4.1c0,1.42.71,1.88,2.05,1.5a3.15,3.15,0,0,0,1.84-4.51c-.35-.67-.68-1.35-1-2l.32-.28c.51.33,1,.65,1.54,1,.83.6,1.59,1.31,2.47,1.82a1.67,1.67,0,0,0,2.45-.69,1.62,1.62,0,0,0-.44-2.49c-.65-.49-1.38-.87-2.06-1.32s-1.13-.88-.7-1.54c.16-.25,1-.2,1.49-.05,1,.32,1.88.85,2.84,1.18.31.11,1,0,1.07-.21a1.73,1.73,0,0,0-.11-1.26c-.15-.32-.6-.48-.87-.76-.69-.7-1.39-1.41-2-2.17-.18-.22-.38-.73-.15-1s.8-.07,1.06.1c.76.51,1.4,1.21,2.18,1.69.4.25,1.19.47,1.45.26a1.41,1.41,0,0,0,.3-2,9.82,9.82,0,0,0-1.15-1.09c-.54-.53-1.35-.87-1.58-1.55a.34.34,0,0,1,.34-.49,5.28,5.28,0,0,1,2.14.77.29.29,0,0,0,.39-.34,7.06,7.06,0,0,0-.46-1.4,26.31,26.31,0,0,0-9.73-10.88,17.49,17.49,0,0,1-3.36-2.68c-2.31-2.3-4.8-3.79-8.2-3.64a14.38,14.38,0,0,1-4.45-.89c-2.38-.69-4.68-1.68-7.09-2.25-4.25-1-8.36-.07-12.22,1.69-3.44,1.57-6.76,3.42-10.06,5.28a15.37,15.37,0,0,0-3.5,2.14c-.76.78-.1,1.65.87,2.06.69.29,2.68,1.31.21,1.14-.29,0-3.5-.69-3.48-1.59a6.05,6.05,0,0,1,3.1-5.17,89.6,89.6,0,0,1,9.1-5A29.6,29.6,0,0,1,219,73.32c.16,0,2.68-3.82.4-12.91-2.33-9.34-7.86-19-22.16-17.71-15,1.35-22.66,11.67-29.64,14.87-4.17,1.91-7.78,2.22-12.3,3.11a13.85,13.85,0,0,1-10.58-1.88,9.13,9.13,0,0,0-8.71-.45,13.11,13.11,0,0,0-8,9.86,17.52,17.52,0,0,0,1.46,11.21,32.5,32.5,0,0,1,3.23,14.72,14.64,14.64,0,0,0,2,7.8,5.9,5.9,0,0,1,.35,5.09c-.13.44-.24.89-.38,1.33-1.06,3.46-2.35,6.86-3.15,10.38-1.1,4.84-1.86,9.75-2.71,14.64a9.06,9.06,0,0,1-2.33,4.92l-2.2,2.31a28,28,0,0,0-4.88,7.31,4.85,4.85,0,0,0,.62,5.66,4,4,0,0,1,.77,3c-.12,1.94-.29,3.89-.24,5.84a8.12,8.12,0,0,0,1.88,5.21c.42.49,1.24.63,1.87.92a6.1,6.1,0,0,0,.65-1.77c.08-2-.08-4,0-6.06a14.13,14.13,0,0,1,.84-3.58,1.48,1.48,0,0,1,1.16-.72c.28,0,.67.55.83.93a5.49,5.49,0,0,1,.35,1.65c.16,2,.23,4,.44,6a9.45,9.45,0,0,0,.67,2.76c.35.81,1.1.79,1.54,0a7.51,7.51,0,0,0,.67-1.78c.47-1.74.81-3.53,1.38-5.24.79-2.37,2.65-2.67,4.22-.74a15.09,15.09,0,0,1,1.25,2c.68,1.16,1.28,2.37,2,3.5.23.35.78.48,1.18.7.21-.42.58-.84.59-1.27a15.86,15.86,0,0,0-.21-2.85c-.14-.91-.44-1.79-.59-2.69a8.13,8.13,0,0,1,1.49-5.73,11.58,11.58,0,0,0,1.43-7.8,8.92,8.92,0,0,0-4.24-6.58c-.62-.4-1.94-1-2-1.75,0-.27.94-.06,1.2,0a28.59,28.59,0,0,1,3.79,1.36,1.67,1.67,0,0,0,1.86-.26,22.4,22.4,0,0,0,2.35-2.37c2-2.48,2.88-5.51,4-8.43a45.23,45.23,0,0,0,3-13.33c0-.86.12-1.58-.94-2.06-.48-.22-.79-1.21-.85-1.88s.61-1.2,1.36-1.4c1.75-.47,1.77-.77,1.68-3.26,0-.93-.09-1.85-.16-2.78-.22-2.94-.36-5.89-.72-8.81A183.24,183.24,0,0,0,150.65,72c-.13-.51-.18-1-.26-1.57l.34-.1,1.75,3.42.18,0Z"/><path class="cls-4" d="M262.24,83.29a.54.54,0,0,0-.91,0,1.57,1.57,0,0,1-.25.33,17.3,17.3,0,0,1-2.52,2.22,1.55,1.55,0,0,1-2.2-.36c-.51-.8.15-1.39.69-1.91a9.38,9.38,0,0,1,1-.77c.48-.36,1-.68,1.45-1.08.71-.63.46-1.37.08-2a1.12,1.12,0,0,0-1.68-.33,7.41,7.41,0,0,0-1.58,1.52A18.86,18.86,0,0,1,254.77,83a2,2,0,0,1-1.7.4A2.29,2.29,0,0,1,252,82c-.29-.9.28-1.62,1.35-2a3.78,3.78,0,0,0,2.41-4.39c-.54-2.13-2-2.77-3.55-1.52a10.84,10.84,0,0,0-1.7,1.89c-2,2.71-3.37,5.92-6.41,7.91,1.25,1,2.45,1.82,3.5,2.8a26.44,26.44,0,0,1,5.83,8,1.92,1.92,0,0,0,2.31,1.21,5,5,0,0,0,1.43-.4c2.29-1.19,4.58-2.39,6.83-3.67a4.35,4.35,0,0,0,1.55-1.24,2.09,2.09,0,0,0,.32-1.77.23.23,0,0,0-.25-.12c-1,.23-2.58,2.31-2.75,2-.26-.53.59-1.56,1.11-2s1-.84.48-1.61-1-1.79-1.5-2.67C262.73,84.05,262.5,83.7,262.24,83.29Z"/><path class="cls-4" d="M233.46,106.42c-1.5-1.67-2.78-3.13-4.13-4.53a1.21,1.21,0,0,0-1-.17c-1.08.33-2.13.78-3.2,1.14a30.15,30.15,0,0,0-10.65,6.22,15,15,0,0,0-1.57,1.72.91.91,0,0,0-.17.76c.07.15.47.24.71.22a54,54,0,0,0,14.92-3.13C230.07,108,231.71,107.2,233.46,106.42Z"/><path class="cls-5" d="M25.08,35.29a6.45,6.45,0,0,1-.41-.85A1.27,1.27,0,0,0,25.08,35.29Z"/><polygon class="cls-5" points="219.01 73.32 219.01 73.32 219.01 73.32 219.01 73.32"/><path class="cls-5" d="M36.26,35.26a22.68,22.68,0,0,1-3.62,2.43A15.18,15.18,0,0,0,36.26,35.26Z"/><path class="cls-5" d="M219.76,71.78,219,73.32A3.73,3.73,0,0,0,219.76,71.78Z"/><path class="cls-6" d="M32.64,37.69a22.68,22.68,0,0,0,3.62-2.43c8.57-7.43,11.7-19.93,29-21.35S81.46,43.74,96,48.29s15.31,1.59,23.14,6.62c5.08,3.26,6.48,9.28,6.83,13.11a16.75,16.75,0,0,1,2.38-7.55,12.58,12.58,0,0,1,2.23-2.53c1.32-1.23,1.45-1.74.66-3.3a8.88,8.88,0,0,0-5-4.83,4.36,4.36,0,0,1-1-.47c-2.58-1.7-1.34-4.63,1.18-4.89a2.08,2.08,0,0,0,1.8-2.39A21.23,21.23,0,0,0,123,30.71c-.69-.75-1.41-1.44-2.56-1.17a2.68,2.68,0,0,0-2,2.22c-.31,1.27-.73,2.6-2.23,2.82s-2.32-.9-2.91-2c-1.78-3.19-3.52-6.4-5.11-9.69-2-4.07-4.11-8-7.48-11.14a33,33,0,0,0-16-8.06C72,.94,60.1,3.19,48.8,9.16c-3.57,1.89-6.2,4.8-8.6,8a23.1,23.1,0,0,0-4,7c-3,10.1-6.47,9.48-8.47,7.86a3.28,3.28,0,0,1,.16,1.93,2.09,2.09,0,0,1-2.1,1.61,1.19,1.19,0,0,1-.74-.25C25.94,36.81,28.25,39.67,32.64,37.69Zm89.18-3.28s.09,0,.09.05c0,1.84,1,2.66,2.78,2.84a3.46,3.46,0,0,1,1.7,1,1.63,1.63,0,0,1,.44,2.19,1.78,1.78,0,0,1-2.44.64,20.66,20.66,0,0,1-3.59-3A2.46,2.46,0,0,1,121.82,34.41Z"/><path class="cls-6" d="M135.75,61.64c6.82-2.18,15.44,5.29,17.71,5.22s19.22-2.79,24.05-5.7,8.6-11.09,18.58-11.73C213.52,48.31,219,73.3,219,73.32h0l.75-1.54c.6-1.88,1.11-5.54-.35-11.37-2.33-9.34-7.86-19-22.16-17.71-15,1.35-22.66,11.67-29.64,14.87-4.17,1.91-7.78,2.22-12.3,3.11a13.85,13.85,0,0,1-10.58-1.88,9.13,9.13,0,0,0-8.71-.45,13.11,13.11,0,0,0-8,9.86,17.1,17.1,0,0,0,.8,9.63S127.61,64.24,135.75,61.64Z"/><path class="cls-6" d="M135.45,65.31c-1.08.69-1.34,2.22-.5,2.64a3.16,3.16,0,0,0,3.17-.55c1-.8,1.37-2.29,1.06-2.74S136.21,64.82,135.45,65.31Z"/><path class="cls-6" d="M194.89,88.08c1.31.09,1.36-.15,1-.44l-3-.08A11.87,11.87,0,0,0,194.89,88.08Z"/><path class="cls-6" d="M219.59,75.77c-4.25-1-8.36-.07-12.22,1.69-3.44,1.57-6.76,3.42-10.06,5.28a15.37,15.37,0,0,0-3.5,2.14c-.76.78-.1,1.65.87,2.06a5.72,5.72,0,0,1,1.23.7h0s5.65-4.12,16.77-6.39c4.88-1,12.66,1.46,14.82,1.07,2.41-.43,2-2.21,1.55-3.63-.8-.18-1.61-.44-2.39-.66C224.29,77.33,222,76.34,219.59,75.77Z"/><path class="cls-6" d="M243.58,85.79c-.29-.19-.59-.38-.89-.56a17.49,17.49,0,0,1-3.36-2.68,17.43,17.43,0,0,0-1.61-1.43A10,10,0,0,0,233.14,79a3.25,3.25,0,0,0,.76,2.46c1.12.92,1.84.42,2.64.56a1.93,1.93,0,0,1,.82.26,31,31,0,0,1,3.74,6.36c1.5,3.36,1.75,6.2,4,7.3,3.66,1.77,5.16-.34,5.85-2.39A27.23,27.23,0,0,0,243.58,85.79Z"/><path class="cls-6" d="M252.18,74.07a10.84,10.84,0,0,0-1.7,1.89c-1.78,2.4-3.05,5.19-5.43,7.18a10.4,10.4,0,0,1-1,.73l.82.64.78-.76c2-1.91,3.67-3.53,4-3.79.85-.71,4-1.39,5.25-3.8a5.77,5.77,0,0,0,.35-1.72C254.64,73.24,253.42,73,252.18,74.07Z"/><path class="cls-6" d="M138.55,104.44c-2.42-8.83-5.19-10.8-5.86-12.91.05.86.08,1.72.06,2.6a14.64,14.64,0,0,0,2,7.8,5.9,5.9,0,0,1,.35,5.09c-.13.44-.24.89-.38,1.33-1.06,3.46-2.35,6.86-3.15,10.38-1.1,4.84-1.86,9.75-2.71,14.64a9.06,9.06,0,0,1-2.33,4.92l-2.2,2.31a28,28,0,0,0-4.88,7.31,4.85,4.85,0,0,0,.62,5.66,3.19,3.19,0,0,1,.65,1.28,13.73,13.73,0,0,0,3.54-2.16c2.27-1.85.47-5.2,1.8-8.23s6.47-6.86,6.82-8.24-2.11-1.37-.66-8.76S140.69,112.25,138.55,104.44Z"/><path class="cls-3" d="M111.41,55.21c-3.45,0-7.67,3.32-7.81,11.19s4.12,14.82,9.85,13.57c4.12-.9,6.63-4,7.62-10.61S116.24,55.15,111.41,55.21Zm1,9.52c-.84-.09-1.41-.66-1.75-1.94s.65-2.93,1.61-3c.69-.07,1.6.49,1.8,2.05S113.57,64.85,112.4,64.73Z"/><path class="cls-3" d="M104.47,101.59c-6-1.59-12-2.86-18.27-2.38-3.14.24-6.22.72-8.74,2.87a6,6,0,0,0-2.16,5.19l3.53-.52a127.55,127.55,0,0,1,27.85-.94c.9-.81,2-2.63-.44-3.83C105.64,101.86,105,101.74,104.47,101.59Z"/><path class="cls-7" d="M115.93,156.14l1.54-6.91C115.43,151.57,114.68,154.77,115.93,156.14Z"/><path class="cls-7" d="M118.21,155c0,1.56-.46,5,0,6.64C118.77,160.94,119.91,156.9,118.21,155Z"/><g id="_Группа_" data-name="&lt;Группа&gt;"><path class="cls-8" d="M95.63,180.81a2.58,2.58,0,0,0,2.06,1h.11c1-1,1.94-1.94,2.84-2.86a15.32,15.32,0,0,0,.47-2.51C99.05,178.19,97.25,179.62,95.63,180.81Zm117.69-.18c0,.12,0,.24,0,.37l.2.16C213.43,181,213.37,180.81,213.32,180.64Z"/><path class="cls-8" d="M282.67,129.86a50.64,50.64,0,0,0-14.74-30.77c-1.52-1.53-3.16-2.93-4.82-4.46l.83-.65a35,35,0,0,0,2.78-2.22,4.39,4.39,0,0,0,.14-6,34.78,34.78,0,0,1-2.3-3.44,1.94,1.94,0,0,1,0-2.16c3.35-6.66,4.57-13.65,2.71-21-2.74-10.8-9.37-18.52-19.44-23.11-11-5-22.19-5-33.43-.72-.88.33-1.21.16-1.64-.61a64.74,64.74,0,0,0-14-17.67c-13.84-12.16-29.9-18-48.37-17A65.77,65.77,0,0,0,124.83,6.8a67.88,67.88,0,0,0-13.45,8.7l-2.34,2c-.29-.42-.51-.73-.72-1a27.1,27.1,0,0,0-5.8-6.61A43.64,43.64,0,0,0,86,1.84a50,50,0,0,0-24.54.06c-10.7,2.52-19.56,7.66-25,17.7a11.09,11.09,0,0,1-7.32,5.8c.26.15.32.2.38.21a1.19,1.19,0,0,0,.32,0A9.39,9.39,0,0,0,36.56,22c1.18-1.64,2.4-3.24,3.63-4.86,2.4-3.16,5-6.07,8.6-8C60.1,3.18,72,.94,84.61,3.72a33,33,0,0,1,16,8.06c3.37,3.16,5.51,7.07,7.48,11.14,1.59,3.28,3.33,6.5,5.11,9.69.6,1.06,1.49,2.17,2.91,2s1.92-1.55,2.23-2.82a2.68,2.68,0,0,1,2-2.22c1.14-.27,1.87.42,2.56,1.17a21.22,21.22,0,0,1,5.18,11.36,2.08,2.08,0,0,1-1.8,2.39c-2.52.26-3.76,3.18-1.18,4.89a4.37,4.37,0,0,0,1,.47,8.88,8.88,0,0,1,5,4.83c.79,1.56.66,2.07-.66,3.3a12.58,12.58,0,0,0-2.23,2.53A17.08,17.08,0,0,0,126,71.53c.46,3.82,1.3,7.61,2.1,11.38.55,2.61,1.36,5.18.71,7.87-.41,1.68-1,3.32-1.53,5-2,6.15-6.19,9.76-12.62,10.71a5.29,5.29,0,0,1-1.31,0c-1.72-.16-3.42-.42-5.14-.56a129.14,129.14,0,0,0-29.4.83l-3.53.52a6,6,0,0,1,2.16-5.19c2.52-2.15,5.6-2.63,8.74-2.87,6.26-.49,12.28.78,18.27,2.37.58.15,1.18.27,1.77.4l.2-.36-2-2.15c.53-.36,1-.67,1.46-1a16.73,16.73,0,0,0,4.87-5c.77-1.28,1.56-2.56,2.39-3.8a2,2,0,0,0,0-2.44,2.18,2.18,0,0,0-2.4-1c-.92.22-1.07,1-1.18,1.79a3.25,3.25,0,0,0,0,1.15A5.2,5.2,0,0,1,108,94.48c-.64.61-1.26,1.26-1.92,1.84a5.32,5.32,0,0,1-3.82,1.35c-1.37,0-3.35-1.42-3.57-2.63s-.88-1.2-1.7-1.1c-1.11.15-2.2.43-3.31.6a3.08,3.08,0,0,1-3.5-3.6A18,18,0,0,1,91,87.61c.12-.34.53-.92.78-1.43a.19.19,0,0,0-.18-.27,3.8,3.8,0,0,0-2.78,1.35c-2,2.46-2.78,5.23-1.28,8.39-1.34.14-3.52.31-4.59.41a4.62,4.62,0,0,0,1-2.7c-.14-1.15-.66-1.47-1.83-1.44a3.07,3.07,0,0,0-2.35,1.64c-3.81,5.16-6.6,6.22-11,7.86-1.51.92-4.3.5-6.3-.44-2.37-1.11-4.69-2.34-7-3.64A14.21,14.21,0,0,1,48.86,89a14.85,14.85,0,0,1-.69-7.65c.23-1.07.52-2.05,1.77-2.4a2.2,2.2,0,0,0,1-.79,5.93,5.93,0,0,0,.89-6.48,2.84,2.84,0,0,1-.35-1.19,4.6,4.6,0,0,0-1.06-3.26A30.19,30.19,0,0,0,43.51,61a7.53,7.53,0,0,0-6-1c-1.14.26-2.27.57-3.42.77-.3.05-.9-.19-1-.39a63.63,63.63,0,0,1-1.5-6.62c-.37-2.63-2.33-4-4.84-3.19-.26.09-.53.14-1.06.28.1-1.62.18-3.09.33-4.54,0-.16.52-.4.78-.39,7.1.51,12.47-2.78,16.51-8.15,2.35-3.12,3.61-7,4.68-10.78a9.5,9.5,0,0,0,.18-1.4l-.27-.09c-.19.31-.41.61-.58.94-1.29,2.45-2.54,4.92-3.86,7.35-3,5.53-7.52,8.95-13.85,9.77a9,9,0,0,1-9.46-6.72,4.76,4.76,0,0,1,3.64-5.44,2.11,2.11,0,0,1,2.4,1,2.45,2.45,0,0,1,.27,1.83c-.26.7-1,.39-1.59.2-.05,0-.12,0-.23.09a1.11,1.11,0,0,0,1.15,1.1,2.09,2.09,0,0,0,2.1-1.61,3.64,3.64,0,0,0-2.71-4.2,5.19,5.19,0,0,0-1.06-.11,6.23,6.23,0,0,0-6,5.75c-.19,4,1.69,6.94,4.93,9.07a1.35,1.35,0,0,1,.68,1.64,21.12,21.12,0,0,0-.46,4.42,6.35,6.35,0,0,1-1.39,4.41,10.92,10.92,0,0,0-2.19,10,9.5,9.5,0,0,1,.12,3.36c-.18,1.62-.68,3.2-.81,4.82a4.09,4.09,0,0,1-1,2.55C2.69,93-2.9,113.12,1.41,135.83a64.36,64.36,0,0,0,10.78,25.26,72.34,72.34,0,0,0,9.72,11.25c.43.4.86.8,1.31,1.19q0,2.68,0,5.68c.09,6.23.2,14.76,11.47,14.76h.49c8.29,0,11.2-3.48,12.3-4.78l.15-.17.8-.89v-.34c.86.27,1.74.51,2.62.74,1.38,3.11,4.22,5.45,10.11,5.45h.49c5.77,0,8.94-1.69,10.7-3.15a62.78,62.78,0,0,0,8.46-1h0c4.07,3.26,9.52,5,16.18,5a31.41,31.41,0,0,0,6.17-.6,98.14,98.14,0,0,0,11.76,5,108,108,0,0,0,22.38,5.24,13.13,13.13,0,0,1,1.63-.23h.69a13.21,13.21,0,0,1,5.09.94l2.09.11A113.48,113.48,0,0,0,175.3,203a100.18,100.18,0,0,0,39.88-17.66,19,19,0,0,0,1.81,2.81,17.14,17.14,0,0,0,2.55,2.62c-5.25,2.28-8.1,6.27-8.1,11.67,0,11,12.43,15.07,20.26,15.07A22.89,22.89,0,0,0,250,208.66a16.62,16.62,0,0,1,2.91,2.33l2.42,2.42,2.27-2.56c2.54-2.87,3.77-5.54,3.77-8.15,0-3.89-2.57-6.32-5-7.94a59.31,59.31,0,0,0,2.37-16.48,52.18,52.18,0,0,0,8.75-6.78,48.59,48.59,0,0,0,9.63-12.91A49.45,49.45,0,0,0,282.67,129.86ZM264.44,87.08c.48.76,0,1.16-.48,1.61s-1.36,1.49-1.11,2c.16.34,1.72-1.74,2.75-2a.22.22,0,0,1,.24.12,2.08,2.08,0,0,1-.32,1.77A4.34,4.34,0,0,1,264,91.87c-2.24,1.27-4.53,2.48-6.83,3.66a4.83,4.83,0,0,1-1.43.4,1.92,1.92,0,0,1-2.31-1.21,26.5,26.5,0,0,0-5.84-8c-1-1-2.24-1.81-3.5-2.81,3-2,4.4-5.2,6.41-7.91a10.75,10.75,0,0,1,1.7-1.89c1.5-1.25,3-.61,3.55,1.52A3.78,3.78,0,0,1,253.32,80c-1.07.42-1.64,1.14-1.35,2a2.27,2.27,0,0,0,1.1,1.39,2,2,0,0,0,1.7-.4,19.1,19.1,0,0,0,1.56-2.13,7.7,7.7,0,0,1,1.58-1.52,1.12,1.12,0,0,1,1.68.33c.38.66.63,1.41-.08,2-.45.4-1,.72-1.44,1.08a9,9,0,0,0-1,.77c-.53.52-1.2,1.11-.69,1.91a1.55,1.55,0,0,0,2.2.36,18.13,18.13,0,0,0,2.52-2.22,2,2,0,0,0,.25-.33.54.54,0,0,1,.91,0c.26.41.49.76.7,1.13C263.45,85.29,263.9,86.22,264.44,87.08ZM131.67,48.27a5.59,5.59,0,0,1-.39-.58c1.87-1.45,1.86-3.42,1.43-5.44A28.52,28.52,0,0,0,127.37,30a10.85,10.85,0,0,0-4.64-3.47,4.14,4.14,0,0,0-5.55,1.94c-.2.33-.38.66-.66,1.15a7,7,0,0,1-.8-.93c-1.69-2.8-3.34-5.61-5-8.4-.36-.59-.09-.9.31-1.26a64.85,64.85,0,0,1,14.07-9.69A63.66,63.66,0,0,1,151.19,2.5c17.4-.78,32.59,4.69,45.65,16.13A63.84,63.84,0,0,1,211.48,37.4c.62,1.19,1.06,1.37,2.31.8a38,38,0,0,1,18.33-3.47c12.29.78,22.53,5.65,29.21,16.28,5.38,8.56,5.83,17.76,1.66,27.07-.14.31-.32.6-.45.86-.77-.74-1.48-1.33-2.07-2a14.24,14.24,0,0,1-1.55-2.13,29.1,29.1,0,0,1-1.35-2.65,3,3,0,0,0-3.37-1.66A6.44,6.44,0,0,0,249,73.76a49.59,49.59,0,0,1-6.39,8.07c-.6.67-1,.59-1.53,0-1.32-1.33-2.64-2.68-4.05-3.9s-3.31-1.18-5.06-1.29c-2.8-.18-4.18-.86-6.72-1.85-.84-.32-1-1.1-1.13-1.91.52-6.63-.43-16.05-5.4-22.3-3.78-4.38-8.37-9-17.19-9.19-21.22-.53-29.69,13.67-36,15.44a29.62,29.62,0,0,1-17.73-.43,65.94,65.94,0,0,0-7.9-2,13.9,13.9,0,0,0-3,.2c-.35,0-.94-.11-1-.33A22.34,22.34,0,0,0,131.67,48.27Zm-3.61,19.94a13.12,13.12,0,0,1,8-9.86,9.14,9.14,0,0,1,8.71.45,13.82,13.82,0,0,0,10.57,1.87c4.52-.89,8.13-1.2,12.3-3.11,7-3.19,14.63-13.51,29.64-14.86,14.3-1.29,19.82,8.37,22.16,17.7,2.27,9.09-.25,12.93-.4,12.91a29.65,29.65,0,0,0-15.41,2.94,89.34,89.34,0,0,0-9.09,5.05,6,6,0,0,0-3.1,5.17c0,.9,3.2,1.57,3.48,1.59,2.47.17.47-.85-.22-1.14-1-.41-1.63-1.28-.87-2.07a15.67,15.67,0,0,1,3.49-2.14c3.3-1.86,6.62-3.71,10.06-5.28,3.86-1.76,8-2.71,12.22-1.69,2.4.57,4.7,1.56,7.09,2.25a14.31,14.31,0,0,0,4.45.89,9.46,9.46,0,0,1,6.06,1.82,15.83,15.83,0,0,1,2.14,1.82,17.54,17.54,0,0,0,3.36,2.68,26.3,26.3,0,0,1,9.73,10.88,7.45,7.45,0,0,1,.46,1.4.29.29,0,0,1-.39.34,5.27,5.27,0,0,0-2.14-.77.35.35,0,0,0-.35.49c.22.68,1,1,1.57,1.56a9.51,9.51,0,0,1,1.15,1.09,1.41,1.41,0,0,1-.3,2c-.26.2-1.05,0-1.45-.26-.77-.48-1.41-1.18-2.18-1.69-.26-.18-.81-.36-1.06-.1s0,.75.15,1c.62.76,1.32,1.47,2,2.17.27.28.72.44.87.76a1.73,1.73,0,0,1,.11,1.26c-.07.19-.75.32-1.07.2-1-.33-1.87-.86-2.84-1.18-.47-.15-1.32-.19-1.49.05-.43.66.15,1.17.7,1.54s1.41.83,2.06,1.32a1.62,1.62,0,0,1,.44,2.49,1.67,1.67,0,0,1-2.45.69c-.87-.51-1.64-1.22-2.47-1.82-.49-.36-1-.67-1.54-1l-.32.28c.34.67.67,1.35,1,2a3.15,3.15,0,0,1-1.84,4.51c-1.35.39-2-.08-2.05-1.5a7.18,7.18,0,0,0-.87-4.1q-1.59-2.39-3.39-4.63c-1.76-2.18-3.65-4.26-4.62-7a1.44,1.44,0,0,1,.17-1.63,22.44,22.44,0,0,0,4.27-9.28,6.28,6.28,0,0,0,0-1.27L234.2,85c-.19.34-.4.66-.57,1-.78,1.59-1.28,3.39-2.36,4.72a43.5,43.5,0,0,1-5.66,5.73,105.42,105.42,0,0,1-16.31,11.9,28.78,28.78,0,0,1-13.59,4.19c-6.19.13-11.69-2-15.11-8.57a30.09,30.09,0,0,1-3-16.22,31.87,31.87,0,0,1,3.9-13.59c1-1.82,2.39-3.62,2.32-5.71-.09-2.65-2.13-5.45-2.72-4.88-.31.23,1.14,4.91.25,6.22a36.66,36.66,0,0,0-6.64,21.9c.05,2.11.66,4.2.89,6.31s-.38,4-2.41,5c-6.31,3.11-14.23,0-15.56-7.48-.52-3-.94-6-1.48-8.92-.3-1.67-.67-3.34-1.13-5a16.73,16.73,0,0,1-.86-7.16c.24-1.61-.34-3.36-.6-5a5,5,0,0,0-.53-1.18l-.37.09v5.36l-.18,0-1.75-3.42-.34.11c.09.52.13,1.05.26,1.56a183.37,183.37,0,0,1,4.08,22.38c.37,2.92.5,5.87.73,8.81.07.93.12,1.85.16,2.78.09,2.48.07,2.78-1.68,3.26-.75.2-1.43.61-1.36,1.4s.36,1.66.85,1.88c1.05.49,1,1.2.94,2.07a45.35,45.35,0,0,1-3.05,13.32c-1.09,2.92-2,5.95-4,8.43a23.19,23.19,0,0,1-2.35,2.37,1.68,1.68,0,0,1-1.86.26,28.4,28.4,0,0,0-3.79-1.36c-.26-.09-1.22-.3-1.2,0,0,.74,1.35,1.35,2,1.75a9.52,9.52,0,0,1,2.62,2.43,8.49,8.49,0,0,1,1.38,2.94,9.12,9.12,0,0,1,.24,1.21,11.58,11.58,0,0,1-1.44,7.8,8.9,8.9,0,0,0-1.58,4.72,5.73,5.73,0,0,0,.09,1c.15.9.45,1.78.59,2.69a16,16,0,0,1,.21,2.85c0,.43-.38.85-.59,1.27-.4-.23-1-.36-1.18-.7-.1-.16-.2-.32-.3-.48-.61-1-1.14-2-1.72-3a15.34,15.34,0,0,0-1.25-2c-1.57-1.93-3.43-1.63-4.22.74-.57,1.7-.91,3.49-1.39,5.24a7.53,7.53,0,0,1-.66,1.78c-.45.77-1.19.79-1.55,0a9.54,9.54,0,0,1-.67-2.76c-.2-2-.28-4-.44-6a5.4,5.4,0,0,0-.35-1.65c-.16-.38-.55-.94-.83-.93a1.48,1.48,0,0,0-1.16.72,14,14,0,0,0-.84,3.57c-.13,2,0,4,0,6.06a6.11,6.11,0,0,1-.65,1.77c-.38-.18-.84-.3-1.22-.48a1.8,1.8,0,0,1-.65-.44,8.12,8.12,0,0,1-1.88-5.21c0-1.94.12-3.9.24-5.84a4,4,0,0,0-.77-3l-.11-.14a4.85,4.85,0,0,1-.51-5.52l.07-.14a31.81,31.81,0,0,1,3-5,22.83,22.83,0,0,1,1.83-2.17l2.2-2.31a9,9,0,0,0,2.33-4.91c.85-4.89,1.61-9.81,2.71-14.64.8-3.51,2.09-6.92,3.15-10.38.14-.44.24-.89.37-1.33a5.89,5.89,0,0,0-.35-5.1,14.67,14.67,0,0,1-2-7.8,32.49,32.49,0,0,0-3.23-14.72A17.49,17.49,0,0,1,128.07,68.21Zm105.4,38.21c-1.76.78-3.4,1.6-5.1,2.24a54.29,54.29,0,0,1-14.93,3.13c-.24,0-.65-.07-.71-.22a.91.91,0,0,1,.17-.76,14.55,14.55,0,0,1,1.57-1.72,30.06,30.06,0,0,1,10.64-6.22c1.07-.37,2.12-.81,3.2-1.14a1.21,1.21,0,0,1,1,.16C230.68,103.29,232,104.75,233.47,106.42Zm-67.34,74.69c-.09,5.09-6.48,9.63-11.95,9.63-4.72,0-8.15-2.87-8.15-10.74,0-6.2.74-18.34.74-18.34,0-2.53-1-3.85-2.33-4.18a4.79,4.79,0,0,1,.53-1.59c1.93-3.8,2.81-7.69,1.65-11.8a15.54,15.54,0,0,1,2-.13c7.31,0,15,5.09,15,16.2V175C163.62,180.37,164.83,180.74,166.12,181.11Zm-25.47.74c-.19,5.28-1.85,9-9.17,9-7.78,0-8.06-3.8-8.15-9.16-.08-4.35-.13-8-.16-11.18a6.52,6.52,0,0,0,1,.18,2.44,2.44,0,0,0,2.57-1.65,13.35,13.35,0,0,0,2.47,1.49,3.36,3.36,0,0,0,4.53-2.47c.44-1.61.82-3.23,1.24-4.85.11-.43.29-.84.44-1.26l.39-.11c.46.95,1,1.88,1.37,2.85a8.12,8.12,0,0,0,2.61,3.91,4.27,4.27,0,0,0,.47.3C140.45,172.44,140.66,175.94,140.66,181.85Zm-22-21a3.09,3.09,0,0,1-.4.85,11.65,11.65,0,0,1-.18-3.18c.06-1.31.18-2.64.18-3.46C119.55,156.49,119.13,159.33,118.61,160.81ZM21.26,73.62a7.94,7.94,0,0,1,3.92-5.9c.41-.26.81-.53,1.21-.81,0-.11,0-.23-.06-.35a23.44,23.44,0,0,0-2.53.13c-.64.1-.86-.05-1-.68-.35-1.41-.85-2.78-1.23-4.18a5.25,5.25,0,0,1-.16-1.68c.15-2.46,3.74-6.56,6.15-7.07,1-.22,1.64.34,1.36,1.38-.32,1.23-.88,2.39-1.29,3.6a12.9,12.9,0,0,0-.74,2.75,2.64,2.64,0,0,0,2,3,6,6,0,0,0,1.11.32,8.6,8.6,0,0,0,4.29-.51,46.18,46.18,0,0,1,4.58-1.31,7.17,7.17,0,0,1,2,.12l.07.36L33,67a3,3,0,0,0,2.78.35,30.88,30.88,0,0,0,3.49-1.28c1.94-.77,3.88-1.18,5.84-.08a9.51,9.51,0,0,1,3.14,3.17c-4.6-.19-5.72.06-6.52,1.53.49.14.94.27,1.4.39,1.75.44,3.55.73,5.23,1.34a2.24,2.24,0,0,1,1.32,3.28c-.68,1.46-1.7,1.78-3.09.95a8.07,8.07,0,0,1-1-.82c-1.39.1-1.41,1-1.49,2.09-.31,3.8-1.35,7.3-4.17,10.09a8.19,8.19,0,0,0-1.5,2.29,3.63,3.63,0,0,0,0,1.45c.23,0,.32.09.36.06,1.73-1.22,2.94-.23,4.13,1a19.44,19.44,0,0,0,1.57,1.41c5.15,4.13,10.26,8.3,16.39,11A47.47,47.47,0,0,1,66,108.23a9.53,9.53,0,0,1,.89.71l-.09.35a17.69,17.69,0,0,1-4.18-.05c-3.78-1-7.52-2.07-11.22-3.29a69.54,69.54,0,0,1-17.8-9,20.79,20.79,0,0,1-4.11-4,46.6,46.6,0,0,1-6.78-10.77A15.55,15.55,0,0,1,21.26,73.62ZM48.53,185.25c0-3.35,0-8.16-.06-13.61l1.18-.14c0,2.36,0,4.91.09,7.7a35.86,35.86,0,0,0,.51,6.57C49.67,185.62,49.09,185.44,48.53,185.25Zm23.23,1.6a11.23,11.23,0,0,1-1.54,1.58,11.64,11.64,0,0,1-6.56,2.23c-.62.05-1.28.08-2,.08a10.14,10.14,0,0,1-5.52-1.1,5.46,5.46,0,0,1-2.32-2.91c-.74-2-.82-4.57-.86-7.57-.1-4.35-.1-8.06-.1-11.49a38.5,38.5,0,0,1-7.68.93c.15,5.81.18,11.38.14,15.51,0,.95,0,1.82,0,2.61v.13c-.84.92-2.69,3.89-10.1,3.89-8.34.19-8.61-4.63-8.7-11.57,0-1,0-2,0-2.91s0-2,0-3c-.17-29.72.35-31.26-.7-39.28,0,0,6.3-2.41,10.09-2.41,5.1,0,9.26,2.22,9.08,8.34-.1,3.52,0,9.26.09,15.74a55.62,55.62,0,0,0,7.87-1c0-6.76,0-10.47-.09-13.52-.09-2.88-.28-9.54,9.54-9.54,5.1,0,9.26,2.22,9.07,8.34C71.1,149.44,72.13,176.29,71.76,186.86ZM74.6,140a10.91,10.91,0,0,0-2.85-8.24c-2.16-2.23-5.43-3.41-9.44-3.41-4.34,0-7.66,1.15-9.87,3.44-3.09,3.19-3,7.4-2.89,9.42.07,2.58.09,5.66.09,10.73-.5.07-1,.14-1.48.19-.07-5-.12-9.32,0-12.13a10.89,10.89,0,0,0-2.85-8.24c-2.16-2.23-5.43-3.41-9.44-3.41-4.27,0-10.54,2.35-11.24,2.62l-2.37.91.33,2.52c.68,5.22.67,7.61.65,17.7,0,4.5,0,10.26,0,18.31a61.51,61.51,0,0,1-4.36-4.57A67.23,67.23,0,0,1,4,136.62a65,65,0,0,1-.1-28.6A66.39,66.39,0,0,1,18.41,78.65a7,7,0,0,0,.51-.82l.3.19a5.1,5.1,0,0,1,.26.75C20.8,85,23.93,90.19,28,95s9.49,8.14,15.19,10.89a68.75,68.75,0,0,0,16.4,5.77c-2.73,1.44-5.43,2.36-7.72,4l.1.36a5.87,5.87,0,0,0,1.27-.08,42,42,0,0,0,4.15-1.32,78.4,78.4,0,0,1,17.81-4.48,125.83,125.83,0,0,1,22.17-1.45,125,125,0,0,1,24,2.51c2.94.64,5.85,1.4,8.92,2.14-.19.84-.44,1.75-.59,2.68-1,6.05-2,12.1-2.93,18.16a6.26,6.26,0,0,1-1.63,3.39c-3,3.24-5.91,6.51-8.91,9.72l-.52.58c-.18-.2-.36-.39-.55-.59-4.41-4.42-10.59-6.76-17.85-6.76-9.18,0-18.42,4.73-22.63,15C74.58,149.07,74.51,143.4,74.6,140Zm42.86,9.23c0,.19-.09.37-.13.56-.33,1.51-.66,3-1,4.49-.13.61-.27,1.23-.41,1.86a3.61,3.61,0,0,1-.41-3.31,9,9,0,0,1,1.66-3.26ZM74.9,188.17l0,0L75,187c0-1.32.07-2.89.08-4.63a21.23,21.23,0,0,0,3.58,5.39Q76.76,188,74.9,188.17Zm27.53,2.89a27.73,27.73,0,0,1-4.09.48c-.47,0-.9,0-1.3,0a24.64,24.64,0,0,1-11.88-2.72,17.11,17.11,0,0,1-2.61-1.78c-4-3.29-7-8.94-7-18.56,0-17,10.65-24.82,21.76-24.82,6.61,0,12.57,2.15,16.61,7a8.82,8.82,0,0,0-.69,4.37,4.45,4.45,0,0,0,1.83,3.33A2.54,2.54,0,0,1,116,160a10.21,10.21,0,0,0,2.51,6.31c.27.32.54.64.82.95,0,.41,0,.84,0,1.27C119.36,184.64,109.76,189.64,102.43,191.06ZM163,202.4c-22.18,2.14-41.69-2.32-56.23-9.16a22,22,0,0,0,13.36-12c0,.15,0,.3,0,.45.09,4.91.21,12.34,11.37,12.34,8.57,0,11.16-4.66,12-8.41,2,7.39,7.89,8.32,10.7,8.32,6.53,0,14.14-5,15.07-11.62,3.77,7,10.89,11.39,20.73,12.35.82.08,1.66.12,2.51.12.49,0,1,0,1.45,0A104.82,104.82,0,0,1,163,202.4Zm3.87-26.7a25.31,25.31,0,0,0,.64,2.45l-.41-.11A11.23,11.23,0,0,1,166.86,175.7Zm40.67,10.13c-4,4-10.74,6.3-17.23,5.65-7.6-.74-20.93-4.44-20.93-22.78,0-17.6,12-25.19,21.21-25.1,14.26.09,19.17,8.89,20.28,14.17,1.63,7.8-1.11,12.27-5.3,14.72-.34.2-.68.39-1,.56-5,2.44-11.63,2.38-15.53,1.77,0,8.15,14.07,5.46,17.5.83a4.15,4.15,0,0,1,.72.07,3.29,3.29,0,0,1,2.71,2.48C210.6,180.45,209.65,183.7,207.52,185.83Zm2.38-12.54a15.13,15.13,0,0,0,1.43-1.52c.3-.37.57-.76.84-1.15v1a37.17,37.17,0,0,0,.23,4.13A6.42,6.42,0,0,0,209.9,173.29Zm2.39,11.18a11.76,11.76,0,0,0,1-3.47c0-.12,0-.24,0-.37.05.18.1.35.16.53.2.67.42,1.32.68,1.95C213.54,183.58,212.92,184,212.29,184.48Zm45.88,18.22c0,1.66-.83,3.61-3,6a18.42,18.42,0,0,0-6.2-4.16,19.92,19.92,0,0,1-17.32,9.72c-6.67,0-17-3.43-17-11.85s9.26-10.65,17.59-10.65a50.89,50.89,0,0,1,5.47.28c1-1.09,2-4.3,2.54-6.95a17.1,17.1,0,0,0,.32-2.41h0a18,18,0,0,1-1.6,2.6c-5.75,7.72-16.06,7.56-20.89-1.44a19.2,19.2,0,0,1-1.43-3.43,29.14,29.14,0,0,1-1.22-8.76V155.55c0-4.35.09-6-.47-8,1-.74,16.12-9.82,17.32,7.68,0,2.5,0,18.9.19,20.74.47,4.08,5.47,5,6.48-1.85l-.09-14.54c0-8.06-.37-14.36,8.43-14.36,9.45,0,8.24,7.32,8.24,14.26l.09,16.76c0,.38,0,.76,0,1.13,0,.93,0,1.83-.06,2.7a56.57,56.57,0,0,1-2.9,16.09C255,197.6,258.18,199.45,258.18,202.69Zm22.24-63.77a48.75,48.75,0,0,1-4.89,17.53,49.59,49.59,0,0,1-8.1,11.78,43.6,43.6,0,0,1-8.62,7.24l-.09-15.94c0-.69,0-1.39,0-2.07.08-4.53.16-9.23-3-12.44-2-2-4.74-3-8.49-3s-6.45.95-8.4,2.91c-3.27,3.27-3.26,8.35-3.24,13.73v1l.09,14.28c0,.19-.07.36-.11.53-.06-2.43-.12-8.35-.12-19.18v-.22c-.85-12.36-8.32-13.7-11.49-13.7-5.69,0-10.88,3.59-10.93,3.63l-1.82,1.32.62,2.16a12.23,12.23,0,0,1,.34,3.52c-3.2-6.18-10-11.53-21.56-11.6h-.2c-10.13,0-20.78,7.35-23.56,21.13v-1.33c0-13.35-9.45-19.43-18.22-19.43h-.51A20.06,20.06,0,0,0,151.8,134c1.39-3.76,2.63-7.57,3.94-11.35,0-.13.11-.25.22-.48a66.82,66.82,0,0,1,16.34,11.47c.16.11.41.18.34-.37-.37-.53-.72-1.07-1.11-1.59a41.15,41.15,0,0,0-12.27-10.55c-2.07-1.2-3.34-2.41-2.71-5a23.51,23.51,0,0,0,.22-3.6,3.16,3.16,0,0,1,.39-1.06c.15-.32.49-.59.53-.91.23-1.79,1.34-2.05,2.94-2.14a131.66,131.66,0,0,1,18,.09,4,4,0,0,1,2.38,1.16c4.68,5,10.57,6.34,17.09,5.73a50.44,50.44,0,0,0,5.34-1,8.51,8.51,0,0,1,4.4.32,85.73,85.73,0,0,1,20.35,9.83c1.22.79,3.4,2.35,3.9,2.24s-.66-1.14-1.15-1.52a63.13,63.13,0,0,0-5.28-3.95c-3.32-2.11-6.74-4.07-10.11-6.1l-.68-.43c2.36-.34,4.56-.59,6.73-1a31.65,31.65,0,0,0,11.4-4.24c2.53-1.61,3.35-1.2,3.87,1.76a19.81,19.81,0,0,0,.74,3.1,2.46,2.46,0,0,0,2.86,1.69,5.35,5.35,0,0,0,4.44-3,.87.87,0,0,1,1.13-.59c2.74.4,4.44-1,4.84-3.74a4.68,4.68,0,0,1,.85-1.57c.12-.2.43-.33.5-.54.76-2.41,2.63-4.51,2.12-7.3-.13-.7.15-1.1.87-1.32,1.62-.5,3.24-1,4.8-1.69a1.39,1.39,0,0,1,1.61.27A49.09,49.09,0,0,1,275.68,114,47.34,47.34,0,0,1,280.41,138.92Z"/><path class="cls-8" d="M97.68,155.09c-3.7.28-3.7,6-3.7,13.52,0,5.64.11,10.23,1.65,12.2a2.58,2.58,0,0,0,2.06,1h.11c1.45,0,2.32-1.07,2.84-2.86a15.32,15.32,0,0,0,.47-2.51,72.44,72.44,0,0,0,.28-7.87C101.39,161.11,101.58,154.81,97.68,155.09Zm.48,12.54v1a57.69,57.69,0,0,1-.48,9,54.69,54.69,0,0,1-.49-9c0-3.14,0-7.63.55-9.6A51.79,51.79,0,0,1,98.17,167.63Z"/><path class="cls-8" d="M226.32,203.43a2.26,2.26,0,0,0,2.32,2.22c2.87,0,6.76-4.82,7-5.83C234.19,200.1,226.32,200.1,226.32,203.43Z"/><path class="cls-8" d="M191.78,166.57c-1,1.48-2.87,2.78-3.06,2.41-.93-1.76-.74-11.58,2.5-12.23C196.59,156.2,194.28,163.15,191.78,166.57Z"/><path class="cls-8" d="M263.27,86.66c.3.6-1.25,2.2-2.13,2.21s-1.38-.76-.87-1.31S262.92,85.94,263.27,86.66Z"/><path class="cls-8" d="M126.39,38.32a1.63,1.63,0,0,1,.44,2.19,1.78,1.78,0,0,1-2.44.64,20.66,20.66,0,0,1-3.59-3,2.46,2.46,0,0,1,1-3.78s.09,0,.09.05c0,1.84,1,2.66,2.78,2.84A3.46,3.46,0,0,1,126.39,38.32Z"/><path class="cls-8" d="M105.31,55.41c.36,3.19.95,7.8-2.3,12.1-.8,1.06-3,6.09-6.05,6.38-.49,0-.79-.45-.92-.79A1.33,1.33,0,0,1,96.18,72a7.54,7.54,0,0,1,1.57-2c2.22-2,4.13-3.92,5.08-6.58a48.51,48.51,0,0,0,1.53-5.68c.08-.35.31-1.42.5-2.35A.23.23,0,0,1,105.31,55.41Z"/><path class="cls-8" d="M101.42,88.68c.06.57-1.31,1.72-2.06,1.59-.42-.07-.77-.57-1-.72,0-1.31.75-2.11,1.65-2.06A1.3,1.3,0,0,1,101.42,88.68Z"/><path class="cls-8" d="M92.57,60.41c.36,1.05-2.41,6.45-5,6.45a1.48,1.48,0,0,1-1.49-1.57,2.56,2.56,0,0,1,2.34-2.55C89.46,62.73,92,58.76,92.57,60.41Z"/><path class="cls-8" d="M71.42,87a1.17,1.17,0,0,1,.3,1.76A4.53,4.53,0,0,1,69.31,91c-2.93,2-.22-3.1.26-3.71A1.22,1.22,0,0,1,71.42,87Z"/><path class="cls-8" d="M42.75,28.15l.4.23a4.81,4.81,0,0,1-.27,1.43C40.67,34,37.65,37.27,33,38.7a6.78,6.78,0,0,1-1.53.12l-.12-.48C36.2,36.15,39.65,32.35,42.75,28.15Z"/><path class="cls-8" d="M38.43,70.53c.64-.06,1.18.3,1.09,1,0,.19-.21.35-.45.55a1.07,1.07,0,0,1-1.26,0c-.34-.24-1.12-.44-1.15-.68C36.54,70.58,37.86,70.58,38.43,70.53Z"/><path class="cls-8" d="M32.33,69a.44.44,0,0,1,0,.68c-.36.3-.62.55-.88.55s-.39-.2-.58-.43a.56.56,0,0,1,0-.72,1.36,1.36,0,0,1,.63-.55C31.7,68.46,32,68.69,32.33,69Z"/></g><path class="cls-3" d="M115.15,262.77c-8.89,0-7.51-9.17-7.51-14.54,0-4.54-1-6.95-4.63-6.95a8.94,8.94,0,0,0-2.13.19c.1,2.41.28,5.47.28,8.34,0,8-1.48,12.32-9.07,12.32-5.19,0-8.15-2.88-8.15-10.1,0-6.48.18-12,.18-19.26,0-10.47-.09-22.32-.93-29.92A27.06,27.06,0,0,1,92,200.9c3.52,0,6.76,1.3,7.69,5.74,1.48,7.23,1.2,19.27,1.2,24.64,0,1.3,0,2.5-.09,3.8,2.41,0,4.44-.09,5-4.07.65-4.54,1.2-9.54,1.39-14.26a32.09,32.09,0,0,1,7.87-1.48c3.61,0,7.32,1.85,7.32,8.15,0,7-5.56,14.63-9.82,15.19,8.34.37,11.3,4.35,11.76,8.89.47,4.35.74,5.28,2.5,5.74C126.63,258.23,120.7,262.77,115.15,262.77Z"/><path class="cls-3" d="M115.15,262.77c-8.89,0-7.51-9.17-7.51-14.54,0-4.54-1-6.95-4.63-6.95a8.94,8.94,0,0,0-2.13.19c.1,2.41.28,5.47.28,8.34,0,8-1.48,12.32-9.07,12.32-5.19,0-8.15-2.88-8.15-10.1,0-6.48.18-12,.18-19.26,0-10.47-.09-22.32-.93-29.92A27.06,27.06,0,0,1,92,200.9c3.52,0,6.76,1.3,7.69,5.74,1.48,7.23,1.2,19.27,1.2,24.64,0,1.3,0,2.5-.09,3.8,2.41,0,4.44-.09,5-4.07.65-4.54,1.2-9.54,1.39-14.26a32.09,32.09,0,0,1,7.87-1.48c3.61,0,7.32,1.85,7.32,8.15,0,7-5.56,14.63-9.82,15.19,8.34.37,11.3,4.35,11.76,8.89.47,4.35.74,5.28,2.5,5.74C126.63,258.23,120.7,262.77,115.15,262.77Z"/><path class="cls-3" d="M139.22,199c11.48-.37,10.47,13.61.56,13.89C130.05,213.22,129.59,199.79,139.22,199Z"/><path class="cls-3" d="M140.89,262.77c-5.38-.47-8.52-5.38-8.43-11.67.19-9.44,1.2-15.84.1-24.73-.28-1.94-.56-6.2-2.5-7.78,5.37-5.84,18.43-6.48,19.35,5.84.56,7.32-1.3,14.07-.09,23.7.46,2.87.93,3.52,3.61,4.73C151.08,261.28,146.07,263.23,140.89,262.77Z"/><path class="cls-3" d="M199.7,251.74c-3.8-1.48-2.5-3.06-2.6-44.36.19-4.82-2.69-6.58-7.5-6.58a15.91,15.91,0,0,0-7,1.85c.36,3,.37,9,.37,9l-.37,12.51c-3.06-13.7-24.91-13.24-26.58,10.56-1.48,20.56,4.54,28.06,14.45,28.06,2.31,0,9.17-.74,11.85-9.45C183.86,268.78,200.07,260.64,199.7,251.74Zm-19.17-6.39c-1,6.85-6,5.93-6.48,1.85-.65-6.2-1.2-19.17,3.33-18.61,2.23.28,3.15,3.15,3.15,5Z"/><path class="cls-9" d="M122.26,226.76l-.26,0a1.61,1.61,0,0,1-1.34-1.78c0-.29.06-.57.08-.86a1.61,1.61,0,0,1,1.61-1.52h0a1.61,1.61,0,0,1,1.57,1.6,6.31,6.31,0,0,1-.09,1.17l0,.12A1.61,1.61,0,0,1,122.26,226.76Z"/><path class="cls-9" d="M122.25,225.15l0-.1a4.71,4.71,0,0,0,.07-.87C122.32,224.51,122.29,224.83,122.25,225.15Z"/><path class="cls-4" d="M100.26,212a1.61,1.61,0,0,1-1.58-1.33c0-.17-.77-3.7-5.23-5.26a9.64,9.64,0,0,0-3.19-.53,13.47,13.47,0,0,0-6.09,1.58,1.61,1.61,0,0,1-2.38-1.28c-.06-.77-.13-1.51-.21-2.21a1.61,1.61,0,0,1,1-1.68,28.53,28.53,0,0,1,9.37-2c5,0,8.32,2.49,9.26,7,.23,1.15.44,2.47.61,3.94a1.61,1.61,0,0,1-1.37,1.78Z"/><path class="cls-4" d="M94,203.93a9.16,9.16,0,0,1,6.28,6.5c-.15-1.36-.35-2.64-.58-3.79-.93-4.44-4.17-5.74-7.69-5.74a27.06,27.06,0,0,0-8.8,1.94c.08.71.15,1.47.21,2.25C84.43,204.53,89.12,202.24,94,203.93Z"/><path class="cls-4" d="M122.3,225.8a1.61,1.61,0,0,1-1.57-1.6c0-1.47-.69-3.49-3.84-4.7a11.52,11.52,0,0,0-4.12-.67,20.49,20.49,0,0,0-5.19.71,1.61,1.61,0,0,1-2.07-1.63v-.1c0-.38,0-.75.05-1.13a1.61,1.61,0,0,1,1.2-1.49l.94-.25a28.66,28.66,0,0,1,7.34-1.28c5.59,0,8.93,3.65,8.93,9.76,0,.29,0,.58,0,.87a1.61,1.61,0,0,1-1.61,1.52Z"/><path class="cls-4" d="M117.47,218c4.31,1.66,4.86,4.71,4.87,6.19,0-.26,0-.52,0-.78,0-6.3-3.7-8.15-7.32-8.15a32.09,32.09,0,0,0-7.87,1.48c0,.41,0,.83-.06,1.25h0S112.93,216.25,117.47,218Z"/><path class="cls-3" d="M122.26,226.76a1.61,1.61,0,0,1-1.58-1.93l0-.1a1.61,1.61,0,0,1,3.16.61l0,.15A1.61,1.61,0,0,1,122.26,226.76Z"/><path class="cls-3" d="M122.25,225.15l0-.1,0,.1Z"/><polygon class="cls-3" points="122.25 225.15 122.25 225.15 122.25 225.15 122.25 225.15"/><polygon class="cls-3" points="122.25 225.15 122.25 225.15 122.25 225.15 122.25 225.15"/><path class="cls-4" d="M103.54,237.74a5.81,5.81,0,0,1-3.89-1.52,1.61,1.61,0,0,1,1.13-2.76c2.27,0,3,0,3.41-2.69.11-.75.21-1.52.31-2.29a1.61,1.61,0,0,1,.36-.83l.1-.13a1.61,1.61,0,0,1,2.84.95c.17,3.12,0,8.46-3.05,9.13A5.75,5.75,0,0,1,103.54,237.74Z"/><path class="cls-4" d="M104.42,236c2.17-.47,1.79-7.47,1.79-7.47l-.1.13c-.1.78-.2,1.55-.31,2.3-.56,4-2.59,4.07-5,4.07A4.18,4.18,0,0,0,104.42,236Z"/><path class="cls-4" d="M124,247.45a1.61,1.61,0,0,1-1.28-.64,25.24,25.24,0,0,0-4.33-4.36,17.77,17.77,0,0,0-6.14-2.27,1.61,1.61,0,0,1,.28-3.2h.07c9,.4,12,4.82,13,8.45a1.61,1.61,0,0,1-1.56,2Z"/><path class="cls-4" d="M112.55,238.6s4.33.76,6.81,2.56a26.63,26.63,0,0,1,4.67,4.69C123,242,119.86,238.92,112.55,238.6Z"/><path class="cls-4" d="M147.1,209.61h-.2a1.61,1.61,0,0,1-1.4-1.44A6.22,6.22,0,0,0,141,203a10.36,10.36,0,0,0-2.85-.42,7,7,0,0,0-3.87,1,1.61,1.61,0,0,1-2.41-2.07,9,9,0,0,1,7.18-4.11h.57c3.54,0,6.39,1.29,8,3.63a8.2,8.2,0,0,1,.92,7.48A1.61,1.61,0,0,1,147.1,209.61Z"/><path class="cls-4" d="M139.22,199a7.33,7.33,0,0,0-5.94,3.35c.2-.18,3.23-2.36,8.21-.93A7.85,7.85,0,0,1,147.1,208h0C148.56,203.92,146.21,198.82,139.22,199Z"/><path class="cls-4" d="M149.51,229.54a1.61,1.61,0,0,1-1.54-1.13l0-.19c-.48-2-2.47-8.5-7.82-9.5a10.7,10.7,0,0,0-2-.19,8.52,8.52,0,0,0-6,2.27,1.63,1.63,0,0,1-1.18.51h-.19a1.61,1.61,0,0,1-1.21-.79,2.43,2.43,0,0,0-.54-.68,1.61,1.61,0,0,1-.17-2.34,14.93,14.93,0,0,1,10.71-4.55c5.12,0,10.81,3,11.44,11.36.08,1.11.12,2.3.1,3.65a1.61,1.61,0,0,1-1.38,1.58Z"/><path class="cls-4" d="M149.51,227.93c0-1.16,0-2.33-.1-3.51-.93-12.32-14-11.67-19.35-5.84a4,4,0,0,1,.93,1.13h0a10.44,10.44,0,0,1,9.42-2.58C147.51,218.47,149.43,227.69,149.51,227.93Z"/><path class="cls-9" d="M174.45,250.26a1.61,1.61,0,0,1-1.45-.92,6.09,6.09,0,0,1-.55-2,1.61,1.61,0,0,1,1.36-1.77l.24,0a1.61,1.61,0,0,1,1.58,1.31,10.07,10.07,0,0,0,.34,1.22,1.61,1.61,0,0,1-1.52,2.14Z"/><path class="cls-9" d="M174.45,248.64a11.53,11.53,0,0,1-.4-1.44A4.5,4.5,0,0,0,174.45,248.64Z"/><path class="cls-4" d="M182.56,225.76a1.61,1.61,0,0,1-1.56-1.22c-.06-.23-1.37-4.39-10-4.93l-.89,0a14.3,14.3,0,0,0-8.94,3.12,1.61,1.61,0,0,1-2.39-2.12c3.14-4.53,7.76-7.14,12.67-7.14,6.19,0,9.48-1.46,12.67,10.35a1.59,1.59,0,0,1-1.21,1.92A1.61,1.61,0,0,1,182.56,225.76Z"/><path class="cls-4" d="M171.12,218c10.16.64,11.44,6.15,11.44,6.15-2.32-10.42-15.52-12.65-22.44-2.65A16,16,0,0,1,171.12,218Z"/><path class="cls-4" d="M197.1,210.19a1.61,1.61,0,0,1-1.44-.89h0c-.58-1.15-2.56-4.26-4.7-4.8a6.27,6.27,0,0,0-1.53-.16,21.89,21.89,0,0,0-6.22,1.22,1.61,1.61,0,0,1-2.13-1.4c0-.47-.07-.91-.12-1.3a1.61,1.61,0,0,1,.8-1.59,17.5,17.5,0,0,1,7.84-2.06c3.42,0,5.73.77,7.26,2.43s2.1,3.93,1.85,7.09a1.61,1.61,0,0,1-1.3,1.45Z"/><path class="cls-4" d="M191.36,202.94c3.34.85,5.74,5.64,5.74,5.64.49-6.16-2.69-7.78-7.5-7.78a15.91,15.91,0,0,0-7,1.85c0,.41.09.88.13,1.37C183.5,203.75,188.31,202.16,191.36,202.94Z"/><path class="cls-4" d="M177.61,253.59c-1.17,0-3.34-.57-4.68-4.42a1.61,1.61,0,0,1,3-1.22,1.25,1.25,0,0,0,1,.83c.59,0,1.61-.95,2-3.54v-3a1.61,1.61,0,0,1,1.45-1.6h.16a1.61,1.61,0,0,1,1.58,1.3c.13.69,1.25,6.79-1,9.86a4.32,4.32,0,0,1-3.06,1.79Z"/><path class="cls-4" d="M180.53,245.36c-.89,5.95-4.77,6-6.08,3.29.51,1.48,1.57,3.53,3.43,3.32,4.47-.51,2.65-9.75,2.65-9.75Z"/><path class="cls-9" d="M104.42,256.59c0,.58,0,1.21,0,1.87,0,.06,0,.13,0,.19v-.49c0-1.23,0-2.48-.07-3.7A16.69,16.69,0,0,1,104.42,256.59Z"/><path class="cls-8" d="M177.37,228.59c-4.53-.56-4,12.41-3.33,18.61.46,4.08,5.46,5,6.48-1.85V233.59C180.53,231.74,179.6,228.87,177.37,228.59Zm-.07,16.51c-.05.28-.1.53-.16.74a48.06,48.06,0,0,1,.14-12.53,2.29,2.29,0,0,1,0,.28Z"/><path class="cls-8" d="M202.91,251.61l-.09-2.1-2-.77-.24-.1c-.52-1.45-.48-7.37-.4-16.94.05-5.85.11-13.87.09-24.27a9.19,9.19,0,0,0-2.34-7c-1.86-1.93-4.6-2.87-8.39-2.87a18.93,18.93,0,0,0-8.64,2.27l-1.86,1.06.26,2.13c.27,2.23.35,6.6.35,8.6h0c0,.14,0,.28,0,.44l-.07,2.21a14.46,14.46,0,0,0-8.16-2.46c-8.52,0-17.6,7-18.69,22.64a62.33,62.33,0,0,0,.45,14.94,2.08,2.08,0,0,1-.36-.23,5.47,5.47,0,0,1-.36-1.51,68.21,68.21,0,0,1-.07-13.65,66.16,66.16,0,0,0,.18-9.85c-.35-4.73-2.38-8.44-5.55-10.64a10.48,10.48,0,0,0,3.67-8,9.52,9.52,0,0,0-6-8.74,13.21,13.21,0,0,0-5.09-.94H139a13.13,13.13,0,0,0-1.63.23,10.2,10.2,0,0,0-5.42,17.16,15.2,15.2,0,0,0-4.24,3.18l-2.33,2.52,2.67,2.16c.47.43.88,2.06,1.23,4.84,0,.33.08.63.11.84a86.28,86.28,0,0,1,.2,16.22c-.12,2.37-.24,4.82-.31,7.56l-1.32-.35c-.18-.81-.35-2.38-.42-3A12,12,0,0,0,120.38,237a22.31,22.31,0,0,0,5.2-13.63C125.59,215,120.15,212,115,212a30,30,0,0,0-7.76,1.34l-.92.24-2.31.61s-.1,2.45-.1,2.48A72.73,72.73,0,0,0,102.83,206c-1.1-5.28-5.05-8.31-10.84-8.31a30.21,30.21,0,0,0-9.93,2.15l-2.34.88L80,203.2c.8,7.26.9,18.5.9,29.56,0,3.68,0,6.95-.1,10.11s-.09,6-.09,9.15c0,11.59,7.13,13.32,11.37,13.32,10.52,0,12-7.69,12.26-13.06,0,3.68.36,8,3.16,10.84a10.21,10.21,0,0,0,7.64,2.87c6.68,0,13-4.72,14.53-10.4,1.3,5.9,5.34,9.9,10.92,10.38.57.05,1.13.08,1.67.08,3.74,0,10.08-1.34,13-9.69a17.82,17.82,0,0,0,3.12,4.78c3,3.22,7,4.85,12,4.85a15.25,15.25,0,0,0,11.14-4.83,9.53,9.53,0,0,0,7.83,4.07,14,14,0,0,0,9.75-4.51A12.48,12.48,0,0,0,202.91,251.61Zm-98.53-1.51c0,.06,0,.13,0,.19v-.49c0-1.23,0-2.48-.07-3.7a16.69,16.69,0,0,1,.11,2.13C104.42,248.81,104.4,249.44,104.38,250.1Zm10.76,12.67c-8.89,0-7.51-9.17-7.51-14.54,0-4.54-1-6.95-4.63-6.95a8.94,8.94,0,0,0-2.13.19c.1,2.41.28,5.47.28,8.34,0,8-1.48,12.32-9.07,12.32-5.19,0-8.15-2.88-8.15-10.1,0-6.48.18-12,.18-19.26,0-10.47-.09-22.32-.93-29.92A27.06,27.06,0,0,1,92,200.9c3.52,0,6.76,1.3,7.69,5.74,1.48,7.23,1.2,19.27,1.2,24.64,0,1.3,0,2.5-.09,3.8,2.41,0,4.44-.09,5-4.07.65-4.54,1.2-9.54,1.39-14.26a32.09,32.09,0,0,1,7.87-1.48c3.61,0,7.32,1.85,7.32,8.15,0,7-5.56,14.63-9.82,15.19,8.34.37,11.3,4.35,11.76,8.89.47,4.35.74,5.28,2.5,5.74C126.63,258.23,120.7,262.77,115.15,262.77ZM139.22,199c11.48-.37,10.47,13.61.56,13.89C130.05,213.22,129.59,199.79,139.22,199Zm1.67,63.72c-5.38-.47-8.52-5.38-8.43-11.67.19-9.44,1.2-15.84.1-24.73-.28-1.94-.56-6.2-2.5-7.78,5.37-5.84,18.43-6.48,19.35,5.84.56,7.32-1.3,14.07-.09,23.7.46,2.87.93,3.52,3.61,4.73C151.08,261.28,146.07,263.23,140.89,262.77Zm41.39-9.45c-2.68,8.7-9.54,9.45-11.85,9.45-9.91,0-15.93-7.5-14.45-28.06,1.67-23.8,23.52-24.26,26.58-10.56l.37-12.51s0-5.95-.37-9a15.91,15.91,0,0,1,7-1.85c4.81,0,7.69,1.76,7.5,6.58.1,41.3-1.2,42.88,2.6,44.36C200.07,260.64,183.86,268.78,182.28,253.32Z"/></g></g></svg>